<svg width="35" height="25" viewBox="0 0 35 25" fill="none" xmlns="http://www.w3.org/2000/svg">
<path d="M34.978 20.8931C34.9125 20.6684 34.7133 20.5146 34.4874 20.5146H29.1097C30.6793 19.4033 31.7122 17.5303 31.7122 15.4114C31.7122 14.0724 31.3058 12.7975 30.5365 11.7248C29.8822 10.8121 29.0187 10.1196 28.0178 9.69777C28.1097 9.54143 28.2197 9.39509 28.3468 9.26264L30.8062 6.70546C30.8192 6.69186 30.8347 6.68436 30.8441 6.68158C31.4614 6.99536 32.2006 6.86707 32.6874 6.36114C32.9913 6.04513 33.1587 5.625 33.1587 5.17821C33.1587 4.73114 32.9913 4.31129 32.6874 3.99528C32.3984 3.69483 32.0099 3.52211 31.6072 3.50656C31.5923 3.0881 31.4262 2.68379 31.1375 2.38362C30.5103 1.73134 29.4897 1.73134 28.8624 2.38362C28.3756 2.88955 28.2525 3.65845 28.554 4.30046C28.5516 4.3099 28.5444 4.326 28.5313 4.33961L26.072 6.89706C25.673 7.31192 25.1446 7.55211 24.5844 7.5735C24.2578 7.58571 23.913 7.59904 23.5568 7.62015C23.5622 7.61182 23.5664 7.60321 23.5715 7.59516L23.9376 7.02619L25.5056 4.58925C25.516 4.57314 25.5296 4.56259 25.5382 4.55842C26.2023 4.74114 26.9035 4.46595 27.2864 3.87088C27.7796 3.1042 27.581 2.06317 26.8437 1.55029C26.5043 1.31426 26.0909 1.22346 25.6931 1.28955C25.5999 0.88191 25.3614 0.518979 25.022 0.28295C24.6647 0.034424 24.2359 -0.0544344 23.8145 0.0324801C23.3931 0.119395 23.0294 0.371808 22.7904 0.743069C22.4078 1.33814 22.4308 2.11704 22.8465 2.68573C22.846 2.69545 22.842 2.71295 22.8316 2.72877L20.8975 5.73496C20.584 6.22257 20.1105 6.56495 19.5647 6.69935C18.7866 6.89068 18.0253 7.08589 17.2755 7.35107L15.6992 7.02313C12.6388 6.38668 9.49931 7.20168 7.08589 9.25931C4.67221 11.3169 3.28792 14.3584 3.28792 17.6039C3.28792 18.6041 3.48713 19.5952 3.86765 20.5146H0.512683C0.286776 20.5146 0.0875714 20.6682 0.0221491 20.8931C-0.0435403 21.118 0.0403071 21.361 0.228296 21.4912L4.60785 24.5277C5.05379 24.8367 5.57236 25 6.10803 25H28.8918C29.4275 25 29.9463 24.8367 30.392 24.5277L34.7718 21.4912C34.9598 21.361 35.0434 21.118 34.978 20.8931ZM29.2563 5.09379C29.585 4.75169 29.6739 4.24686 29.4777 3.837C29.3655 3.60347 29.4099 3.32218 29.5874 3.13752C29.8149 2.90094 30.185 2.90094 30.4123 3.13752C30.5453 3.27581 30.6051 3.46602 30.5762 3.65957C30.5378 3.91975 30.616 4.17328 30.7912 4.35516C30.9664 4.53732 31.2099 4.61896 31.4601 4.57869C31.6462 4.54898 31.8294 4.61118 31.9624 4.74919C32.0724 4.86387 32.133 5.01632 32.133 5.17821C32.133 5.3401 32.0724 5.49255 31.9624 5.60695C31.7845 5.79189 31.5143 5.83771 31.2897 5.72136C30.8956 5.51726 30.4099 5.60945 30.0812 5.95128L28.4501 7.64764L27.6253 6.78988L29.2563 5.09379ZM23.6837 3.32163C23.9422 2.91982 23.9349 2.40666 23.6658 2.04429C23.5122 1.83797 23.5029 1.55307 23.6428 1.33592C23.7293 1.20152 23.8612 1.10989 24.014 1.07823C24.167 1.04685 24.3224 1.07906 24.4519 1.16931C24.6081 1.27788 24.7024 1.45255 24.7104 1.64831C24.7213 1.911 24.8455 2.14398 25.0511 2.28698C25.257 2.43027 25.5115 2.46081 25.7491 2.37112C25.9262 2.30392 26.1174 2.32808 26.2736 2.43665C26.5409 2.6227 26.6127 3.00007 26.4341 3.27803C26.2944 3.49518 26.0375 3.59487 25.7956 3.52628C25.3708 3.40549 24.9117 3.59459 24.6532 3.99639L23.3704 5.99015L22.4011 5.31566L23.6837 3.32163ZM19.8008 7.73705C20.5995 7.54045 21.2916 7.04007 21.7498 6.32781L21.8307 6.20175L22.8003 6.87624L22.7194 7.0023C22.5736 7.22862 22.4556 7.47131 22.3664 7.72594C21.8134 7.79564 21.2513 7.90061 20.7025 8.06361L19.4953 7.81258C19.5968 7.78731 19.6985 7.76204 19.8008 7.73705ZM29.8235 23.6402C29.5466 23.8321 29.2245 23.9337 28.8918 23.9337H6.10803C5.77557 23.9337 5.45354 23.8321 5.17663 23.6405L2.20592 21.5809H5.99267C6.27572 21.5809 6.50537 21.3421 6.50537 21.0477C6.50537 20.7534 6.27572 20.5146 5.99267 20.5146H5.00172C4.55098 19.6138 4.31332 18.6141 4.31332 17.6039C4.31332 14.6791 5.56062 11.9381 7.73584 10.084C9.9108 8.22966 12.74 7.49519 15.4981 8.06888L19.036 8.80446C18.5289 9.12491 18.0595 9.53171 17.652 10.0524C15.9299 12.2536 16.0656 15.5635 17.9604 17.5878C18.9978 18.6961 20.3893 19.3022 21.8524 19.3022C22.0639 19.3022 22.2772 19.2895 22.4911 19.2639C22.7723 19.23 22.9739 18.9654 22.9413 18.673C22.909 18.3806 22.6551 18.171 22.3733 18.2046C21 18.3695 19.659 17.8738 18.6953 16.8442C17.1572 15.2011 17.0485 12.5135 18.4475 10.7252C19.9404 8.81696 22.646 8.71394 24.6217 8.63896C25.4415 8.60786 26.2143 8.25715 26.797 7.65097L26.9 7.54378L27.7249 8.40155L27.6218 8.50873C27.0392 9.11463 26.7016 9.91797 26.6717 10.7705C26.6186 12.2858 26.5521 14.1718 25.8202 15.6788C25.6925 15.9417 25.794 16.2622 26.0466 16.3952C26.2995 16.5279 26.6079 16.4224 26.7355 16.1594C27.5687 14.4439 27.6426 12.3432 27.6963 10.8093C27.6974 10.7782 27.6995 10.7468 27.7019 10.7157C28.4995 11.067 29.1885 11.6285 29.7143 12.3621C30.3506 13.2493 30.6868 14.304 30.6868 15.4114C30.6868 18.2251 28.4851 20.5146 25.7793 20.5146H8.18445C7.90113 20.5146 7.67175 20.7531 7.67175 21.0477C7.67175 21.3421 7.90113 21.5809 8.18445 21.5809H32.7942L29.8235 23.6402Z" fill="#717171"/>
</svg>
