<svg width="35" height="35" viewBox="0 0 35 35" fill="none" xmlns="http://www.w3.org/2000/svg">
<path d="M15.1448 23.2651C14.8774 22.9982 14.4442 22.9982 14.1774 23.2651C13.9099 23.5325 13.9099 23.9657 14.1774 24.2332C14.4442 24.5 14.8774 24.5 15.1448 24.2332C15.4117 23.9657 15.4117 23.5325 15.1448 23.2651Z" fill="#717171"/>
<path d="M32.4737 11.5288C31.5059 11.1556 30.3085 10.8744 29.0553 10.717C30.0249 9.60931 30.7897 8.44984 31.2506 7.37493C31.9166 5.82108 31.8824 4.56433 31.1545 3.83635C30.4265 3.1079 29.1696 3.07344 27.6157 3.73942C26.5406 4.20017 25.381 4.96506 24.2729 5.93497C24.1155 4.68273 23.8343 3.48703 23.4613 2.52102C22.6564 0.437374 21.6757 0 20.9947 0C20.2669 0 19.2285 0.484475 18.4143 2.79262C17.7453 4.68929 17.4074 7.36563 17.6557 9.89643C15.6909 9.59605 13.8938 10.2797 12.516 11.8777C7.77649 17.3751 4.15351 22.387 2.03888 26.3714C-0.0844953 30.3725 -0.552142 33.0476 0.649069 34.3228C0.658366 34.3328 0.668005 34.3423 0.677917 34.3517C2.43592 36.0077 6.48129 34.1019 8.62934 32.9619C12.614 30.847 17.6256 27.224 23.1224 22.4845C24.7234 21.1044 25.4065 19.3038 25.1024 17.3353C27.6396 17.5837 30.3151 17.2409 32.2021 16.5765C34.5146 15.7624 35 14.7239 35 13.996C35 13.3148 34.5617 12.3338 32.4737 11.5288ZM28.1546 4.99713C29.1011 4.59147 29.8986 4.51559 30.1867 4.80387C30.4746 5.0918 30.3985 5.88937 29.9928 6.83583C28.8646 9.46787 25.7111 12.4981 23.2438 13.4256C23.0003 13.127 22.7355 12.8339 22.4518 12.5507C22.1642 12.2626 21.8669 11.9941 21.5643 11.7478C22.4911 9.28247 25.5183 6.127 28.1546 4.99713ZM19.6511 3.42092C20.0655 2.15987 20.5853 1.36838 20.9946 1.36838C21.1863 1.36838 21.6819 1.71224 22.1846 3.01397C22.6207 4.1433 22.9192 5.63712 23.0143 7.15146C21.8441 8.3987 20.9345 9.72791 20.4165 10.9352C19.976 10.6688 19.5286 10.4489 19.0777 10.2769C18.727 7.66444 19.0936 5.11771 19.6511 3.42092ZM22.2289 21.4481C16.8081 26.1221 11.8837 29.6854 7.98786 31.7531C5.38091 33.1368 3.6307 33.6349 2.59861 33.6347C2.13616 33.6347 1.81767 33.5347 1.63126 33.3695C1.09723 32.767 1.24407 30.788 3.24761 27.013C5.31514 23.1173 8.87845 18.1926 13.5524 12.7714C15.8086 10.1545 19.0508 11.0808 21.4843 13.5183C23.942 15.9718 24.827 19.2084 22.2289 21.4481ZM31.7477 15.2859C29.9075 15.9338 27.2109 16.2461 24.7198 15.9133C24.5469 15.4619 24.3258 15.0139 24.0579 14.5727C25.2652 14.0544 26.5938 13.1449 27.8394 11.9756C29.3544 12.0709 30.8499 12.3693 31.9815 12.8057C33.2868 13.3089 33.6317 13.8045 33.6317 13.9961C33.6317 14.2127 33.2379 14.7611 31.7477 15.2859Z" fill="#717171"/>
<path d="M19.1324 15.8562L17.1975 13.9212C16.9303 13.6542 16.4971 13.6542 16.2299 13.9212C15.9628 14.1884 15.9627 14.6217 16.2299 14.8889L18.1648 16.8238C18.4321 17.0909 18.8653 17.091 19.1324 16.8238C19.3995 16.5567 19.3996 16.1234 19.1324 15.8562Z" fill="#717171"/>
<path d="M18.1648 20.6941L16.23 18.7592C15.9629 18.4921 15.5296 18.4921 15.2624 18.7592C14.9952 19.0263 14.9952 19.4596 15.2624 19.7268L17.1973 21.6618C17.4645 21.9289 17.8977 21.9289 18.1649 21.6618C18.4321 21.3946 18.4321 20.9614 18.1648 20.6941Z" fill="#717171"/>
<path d="M13.327 21.6616L11.3921 19.7267C11.125 19.4596 10.6917 19.4596 10.4245 19.7267C10.1573 19.9938 10.1573 20.4271 10.4245 20.6943L12.3594 22.6293C12.6266 22.8964 13.0598 22.8964 13.327 22.6293C13.5942 22.3621 13.5942 21.9289 13.327 21.6616Z" fill="#717171"/>
<path d="M12.3596 26.4997L10.424 24.5648C10.1568 24.2977 9.72354 24.2978 9.4564 24.5649C9.18925 24.8321 9.18939 25.2654 9.45653 25.5326L11.3921 27.4675C11.6593 27.7346 12.0925 27.7346 12.3597 27.4674C12.6268 27.2002 12.6267 26.7669 12.3596 26.4997Z" fill="#717171"/>
<path d="M8.48933 28.4355L6.55373 26.4999C6.28658 26.2328 5.85332 26.2328 5.5861 26.4999C5.31896 26.767 5.31896 27.2003 5.5861 27.4675L7.5217 29.4032C7.78892 29.6703 8.22211 29.6703 8.48933 29.4032C8.75648 29.136 8.75648 28.7027 8.48933 28.4355Z" fill="#717171"/>
</svg>
