<svg width="23" height="31" viewBox="0 0 23 31" fill="none" xmlns="http://www.w3.org/2000/svg">
<path d="M21.1873 16.0845C21.483 15.0712 21.1272 14.0234 20.2078 13.1439C20.8324 12.8527 21.5477 12.2423 21.8769 11.237C22.4326 9.54015 21.0357 8.53497 20.2737 7.99229C21.0115 7.62713 21.9836 6.91517 22.41 5.82737C22.7033 5.07922 22.7906 3.89154 21.541 2.48292C20.795 1.64205 19.8269 1.01184 19.3163 0.711C19.0664 0.564072 18.7533 0.604588 18.5713 0.807086C18.3873 1.01205 18.3838 1.31601 18.5631 1.54654C18.8361 1.89673 19.1162 2.43162 18.9002 2.98808C18.6375 3.66469 17.8654 4.33804 14.1943 3.53206C12.9517 3.25918 11.9666 3.41302 11.2669 3.98937C10.4429 4.66776 10.2325 5.75586 10.2052 6.57197C9.84555 6.43975 9.40406 6.33468 8.94887 6.32465C8.05082 6.3051 7.32458 6.64934 6.84877 7.32053C6.25656 8.156 6.15858 8.92125 6.24888 9.53376C6.12217 9.59661 6.00983 9.68942 5.92436 9.81148L5.54315 10.3559C4.84596 11.3516 4.96969 12.6907 5.76 13.6173L4.82758 16.2897C4.82742 16.29 4.82765 16.2901 4.8275 16.2903L1.77827 25.0287C1.77835 25.0291 1.7782 25.0293 1.77789 25.0297L0.403803 28.9681C0.204992 29.5382 0.420013 30.1657 0.938775 30.5289C1.45777 30.8923 2.12093 30.8797 2.5886 30.4975L15.1815 20.2143C16.3228 20.6402 17.6234 20.2985 18.3206 19.3028L18.7018 18.7584C18.7844 18.6405 18.8323 18.5084 18.8497 18.3732C19.6942 18.2409 20.7108 17.7186 21.1873 16.0845ZM1.88683 29.6821C1.73296 29.8078 1.58417 29.7287 1.5273 29.6889C1.47042 29.6491 1.34498 29.5361 1.41044 29.3486L2.43294 26.4181C2.83155 27.0264 3.24748 27.6287 3.67859 28.219L1.88683 29.6821ZM7.0719 25.4478C6.9732 25.3099 6.87504 25.1717 6.77926 25.0346C6.60951 24.7919 6.27819 24.7206 6.03883 24.8757C5.79947 25.0308 5.74283 25.3533 5.91265 25.5964C6.02987 25.7642 6.15007 25.9332 6.27173 26.1015L4.47898 27.5655C3.91224 26.7856 3.37154 25.9852 2.86597 25.1778L3.86201 22.3233C4.07247 22.7005 4.28991 23.0751 4.51225 23.4436C4.55412 23.5127 4.60879 23.5699 4.67119 23.6136C4.83789 23.7303 5.06041 23.7521 5.2423 23.6516C5.49279 23.5135 5.57207 23.1964 5.41903 22.9435C5.03497 22.3075 4.66822 21.6537 4.32455 20.9977L5.38628 17.9549C6.3148 20.0524 7.47271 22.0801 8.84219 24.0026L7.0719 25.4478ZM9.64266 23.3485C8.10765 21.1797 6.8502 18.8746 5.89822 16.4872L6.64376 14.3502L7.772 15.1402C8.65899 17.4945 9.87193 19.7749 11.3828 21.9278L9.64266 23.3485ZM12.1845 21.2729C11.0616 19.6612 10.1119 17.9766 9.34786 16.2436L14.1908 19.6347L12.1845 21.2729ZM18.2917 17.3687L10.8372 12.149C10.5929 11.978 10.2633 12.0272 10.1008 12.2593C9.93832 12.4914 10.0046 12.8181 10.2489 12.9892L17.7471 18.2395L17.4362 18.6835C16.9674 19.3531 16.0524 19.5391 15.3115 19.1491C15.3111 19.1491 15.311 19.1487 15.3106 19.1488C15.2769 19.1307 15.2439 19.1122 15.2124 19.093C15.2115 19.0924 15.2102 19.0918 15.2093 19.0912C15.1773 19.0717 15.1467 19.0516 15.1177 19.0313L6.89396 13.273C6.86472 13.2525 6.8354 13.2307 6.80615 13.2072C6.80523 13.2066 6.80446 13.2057 6.80331 13.2049C6.77453 13.1818 6.74589 13.1576 6.71757 13.1319C6.71726 13.1313 6.71688 13.1314 6.7168 13.131C6.0969 12.5682 5.95872 11.6447 6.42755 10.9752L6.73847 10.5311L8.17709 11.5385C8.42139 11.7095 8.75113 11.6601 8.91363 11.428C9.07614 11.1959 9.00968 10.8694 8.76539 10.6983L7.36613 9.71854C7.18116 9.14275 7.30317 8.54656 7.72996 7.94439C8.40618 6.99041 9.7792 7.4573 10.2065 7.69585C10.2264 7.70716 10.2467 7.71586 10.2673 7.7251C10.3001 8.05768 10.3458 8.42317 10.4049 8.67485C10.437 8.81079 10.5194 8.92451 10.6281 9.00061C10.746 9.08316 10.8945 9.12098 11.0431 9.09399C11.3288 9.04174 11.5064 8.77001 11.4393 8.48641C11.3492 8.10351 11.2837 7.24043 11.2656 6.92816C11.2543 6.36607 11.3294 5.33154 11.972 4.80252C12.4173 4.43563 13.1033 4.35073 14.011 4.55012C16.3439 5.06232 19.121 5.39456 19.8953 3.40026C20.0228 3.07126 20.0577 2.75377 20.0343 2.45835C20.9401 3.20635 21.855 4.29323 21.4165 5.41202C21.0611 6.31846 20.1695 6.87621 19.6297 7.11693C19.2706 7.26612 18.1972 7.61272 17.4519 7.46512C17.162 7.4078 16.8908 7.5902 16.8464 7.8727C16.814 8.07821 16.9107 8.28022 17.0774 8.39695C17.1398 8.44064 17.2119 8.47251 17.2909 8.48806C17.8986 8.60852 18.5755 8.5156 19.112 8.38757C19.1226 8.3983 19.1325 8.40974 19.144 8.41976C19.2908 8.5516 19.4734 8.68141 19.6667 8.81902C20.5548 9.45163 21.1608 9.96917 20.8644 10.8746C20.6157 11.6337 20.0447 12.057 19.6528 12.2243C19.4785 12.2776 18.5266 12.5564 17.5104 12.6086C17.2185 12.6236 17.0058 12.8691 17.0351 13.157C17.0515 13.3194 17.1416 13.4607 17.2694 13.5502C17.3682 13.6194 17.4893 13.6576 17.6164 13.651C18.1251 13.6248 18.6123 13.5504 19.0157 13.4697C19.0481 13.5048 19.0836 13.5375 19.1226 13.567C19.7509 14.0409 20.4418 14.8047 20.1653 15.7529C19.8464 16.8454 19.2327 17.3753 18.2917 17.3687Z" fill="#717171"/>
</svg>
