<svg width="131" height="122" viewBox="0 0 131 122" fill="none" xmlns="http://www.w3.org/2000/svg">
<path fill-rule="evenodd" clip-rule="evenodd" d="M128.727 80.5154L119.743 75.3022C114.307 65.2086 100.554 57.2225 83.1392 54.1167L71.8255 47.5725C68.8307 45.7978 63.9503 45.7978 60.8446 47.5725L49.5308 54.1167C32.1165 57.3334 18.3626 65.2086 12.8166 75.3022L2.27931 81.4028C-0.7155 83.1775 -0.7155 85.9505 2.27931 87.7252L12.262 93.493C17.4752 104.474 32.3384 113.126 51.3055 116.12L59.1808 120.668C62.1756 122.443 67.056 122.443 70.1617 120.668L77.0387 116.675C99.3334 114.124 116.97 104.03 121.295 91.1637L128.727 86.8378C131.722 85.174 131.722 82.2901 128.727 80.5154Z" fill="#E35F26"/>
<path fill-rule="evenodd" clip-rule="evenodd" d="M66.2802 109.687C95.341 109.687 119.189 95.9334 119.189 79.1846C119.189 62.3249 95.4519 48.6819 66.2802 48.6819C37.2194 48.6819 13.3718 62.4358 13.3718 79.1846C13.4827 95.9334 37.2194 109.687 66.2802 109.687Z" fill="#E15A27"/>
<path fill-rule="evenodd" clip-rule="evenodd" d="M66.2789 48.5713C94.6742 48.5713 117.856 61.5488 119.076 77.743C117.856 93.9371 94.6742 106.915 66.2789 106.915C37.8836 106.915 14.7016 93.9371 13.4814 77.743C14.7016 61.5488 37.8836 48.5713 66.2789 48.5713Z" fill="#F28221"/>
<path fill-rule="evenodd" clip-rule="evenodd" d="M66.2795 101.479C95.4512 101.479 119.299 89.1674 119.299 73.9715C119.299 58.7756 95.4512 46.4636 66.2795 46.4636C37.1079 46.4636 13.2603 58.7756 13.2603 73.9715C13.2603 89.1674 37.1079 101.479 66.2795 101.479Z" fill="#F8D798"/>
<path fill-rule="evenodd" clip-rule="evenodd" d="M2.27931 69.4239C-0.7155 71.1986 -0.7155 73.9716 2.27931 75.7463L59.1808 108.8C62.1756 110.575 67.056 110.575 70.1617 108.8L128.727 74.9698C131.722 73.1951 131.722 70.4221 128.727 68.6474L71.8255 35.5936C68.8307 33.8189 63.9503 33.8189 60.8446 35.5936L2.27931 69.4239Z" fill="#F5C017"/>
<path fill-rule="evenodd" clip-rule="evenodd" d="M2.27931 66.4294C-0.7155 68.2041 -0.7155 70.9771 2.27931 72.7518L59.1808 105.806C62.1756 107.58 67.056 107.58 70.1617 105.806L128.727 71.9753C131.722 70.2006 131.722 67.4277 128.727 65.653L71.8255 32.5991C68.8307 30.8244 63.9503 30.8244 60.8446 32.5991L2.27931 66.4294Z" fill="#F7CF27"/>
<path fill-rule="evenodd" clip-rule="evenodd" d="M66.5014 42.9132C95.3403 42.9132 118.633 55.6689 118.633 71.4194C118.633 74.0814 117.968 76.5216 116.97 78.74L83.5829 98.0399C82.5846 98.2618 81.5864 98.4836 81.2536 98.5945C81.1427 98.7054 81.0318 98.7054 80.8099 98.7054C80.1444 98.7054 69.6071 99.0382 69.1634 99.4819C69.0525 99.26 67.8324 99.5928 67.7215 99.5928H67.8324C66.0577 99.5928 60.179 98.7055 58.848 99.4819H58.9589C58.2934 99.4819 56.9624 99.1491 56.4078 99.26C55.1877 98.5945 50.64 98.7054 49.3089 98.1508C49.198 98.0399 46.0923 97.3744 44.0958 96.8198L19.3608 82.5113C19.139 81.6239 18.1407 81.2912 17.3643 80.7366C15.5896 77.8527 14.4804 74.747 14.4804 71.3085C14.3695 55.6689 37.6624 42.9132 66.5014 42.9132Z" fill="#E49A25"/>
<path fill-rule="evenodd" clip-rule="evenodd" d="M124.846 63.4344C125.4 63.989 125.733 64.6545 125.4 65.0982C125.178 65.4309 124.957 65.5419 124.735 65.6528H124.624C124.513 65.6528 124.513 65.6528 124.513 65.6528C123.293 65.9855 121.629 66.0964 120.187 65.9855C120.853 66.8729 121.851 67.8712 122.516 68.5367C124.069 70.2005 124.18 70.6441 123.515 70.4223C123.404 70.6441 121.74 70.4223 119.632 70.0895C120.409 70.755 120.853 71.4205 120.076 71.5315C119.965 71.7533 117.525 71.8642 115.085 71.7533C115.418 71.8642 115.639 71.8642 115.972 71.9751C120.409 73.0843 121.074 74.0826 119.743 74.3044C119.078 74.6372 115.528 74.7481 113.643 74.4154C113.199 76.5228 112.645 80.0722 111.757 80.2941C111.646 80.2941 111.646 80.2941 111.535 80.2941C111.424 80.2941 111.424 80.1832 111.314 80.1832C110.537 79.6286 109.65 78.7412 108.541 77.7429C108.319 78.963 108.208 80.1831 107.764 79.7395C106.766 79.2958 105.989 79.074 105.324 78.963C105.213 80.405 105.102 81.8469 104.326 81.4032C95.563 78.963 83.251 75.7464 75.043 73.3062C73.1574 72.7516 69.608 71.7533 69.0534 70.6441C68.6097 69.7568 67.8333 68.9803 67.3896 67.9821C67.1678 67.4275 66.5023 64.7654 66.3914 64.8763C69.3862 61.6597 72.381 60.2177 75.9304 59.5522C79.9234 58.554 84.582 58.7758 90.9044 59.2194C99.9998 59.774 106.1 58.8867 114.752 57.5557H114.974L124.846 63.4344Z" fill="#E49A25"/>
<path fill-rule="evenodd" clip-rule="evenodd" d="M7.4926 63.5449C6.93801 64.2104 6.27249 64.8759 5.71789 65.4305C4.16503 67.0943 4.05411 67.538 4.71963 67.3161C4.83055 67.538 6.49433 67.3161 8.60179 66.9834C7.82536 67.6489 7.38169 68.3144 8.15812 68.4253C8.26904 68.6472 10.7093 68.7581 13.1495 68.6471C12.8167 68.7581 12.5949 68.7581 12.2621 68.869C7.82535 69.9782 7.15984 70.9765 8.49087 71.1983C9.15638 71.5311 12.7058 71.642 14.5914 71.3092C15.0351 73.4167 15.5897 76.9661 16.477 77.1879C16.588 77.1879 16.5879 77.1879 16.6989 77.1879C16.8098 77.1879 16.8098 77.077 16.9207 77.077C17.6971 76.5224 18.5845 75.6351 19.6937 74.6368C19.9155 75.8569 20.0264 77.077 20.4701 76.6333C21.4684 76.1896 22.2448 75.9678 22.9103 75.8569C23.0213 77.2988 23.1322 78.7408 23.9086 78.2971C32.6712 75.8569 44.9832 72.6403 53.1912 70.2C55.0768 69.6454 58.6263 68.6471 59.1809 67.538C59.6245 66.6506 60.401 65.8742 60.8446 64.8759C61.0665 64.3213 61.732 61.6593 61.8429 61.7702C58.8481 58.5535 55.8533 57.1116 52.3039 56.4461C48.3108 55.3369 43.6522 55.6696 37.3298 56.1133C31.1183 56.4461 26.4597 56.2242 21.2465 55.5587L7.4926 63.5449Z" fill="#E49A25"/>
<path fill-rule="evenodd" clip-rule="evenodd" d="M66.2791 41.8041C95.1181 41.8041 118.411 54.5597 118.411 70.3102C118.411 81.1803 107.985 88.8337 98.6675 92.7159C97.7801 92.7159 96.3382 93.1596 95.6727 93.8251L95.8945 93.6032C95.3399 93.6032 94.7853 93.4923 94.3416 93.7141C93.8979 93.936 93.3434 94.2687 92.8997 94.7124C92.8997 94.7124 90.9032 95.0452 90.7922 95.0452C89.794 95.5998 88.4629 95.1561 87.4647 96.1544C87.4647 96.1544 85.1354 96.709 85.0244 96.8199C84.8026 96.5981 81.5859 97.2636 80.9204 97.5963C80.8095 97.7072 80.6986 97.7072 80.4768 97.7072C79.8112 97.7072 69.2739 98.04 68.8303 98.4837C68.7193 98.3728 67.4992 98.4837 67.3883 98.5946H67.4993C65.7245 98.5946 59.8458 97.7072 58.5148 98.4837H58.6257C57.9602 98.4837 56.6292 98.1509 56.0746 98.2618C54.8545 97.5963 50.3068 97.7072 48.9758 97.1526C48.7539 96.9308 42.9861 95.7107 42.2097 95.4889C41.766 95.0452 39.5476 94.6015 38.7712 94.2687C38.5494 94.1578 38.3276 94.0469 38.1057 93.936C35.2218 92.9377 30.896 91.7176 28.6776 89.7211C28.6776 89.4992 27.9012 88.8337 27.5684 88.7228C27.1247 88.501 26.4592 88.39 26.0155 88.6119C24.6845 87.7245 23.5753 86.2826 22.1334 85.3952C21.9115 84.9515 21.8006 84.5079 21.357 84.286C21.0242 83.9533 20.3587 83.9533 20.1368 83.6205C20.1368 82.6222 19.3604 82.2895 18.8058 81.7349L19.0276 81.9567C19.0276 80.6257 17.8075 80.4039 17.0311 79.7383C15.2564 76.8545 14.1472 73.7487 14.1472 70.3102C14.1472 54.6707 37.4402 41.8041 66.2791 41.8041Z" fill="#8A1930"/>
<path fill-rule="evenodd" clip-rule="evenodd" d="M66.2792 35.9266C95.1181 35.9266 118.411 48.0168 118.411 62.9909C118.411 77.0776 97.4474 88.7241 70.8269 89.9442C68.8303 89.2787 65.9464 90.4988 64.0608 89.7223C62.8407 89.0568 61.6206 90.3879 60.6223 89.6114C59.6241 88.2804 58.293 90.0551 57.0729 89.3896C56.4074 89.0568 55.2982 88.9459 54.6327 89.2787H54.7436C53.5235 89.2787 50.9724 88.6132 49.7523 88.2804C48.754 87.1712 47.6448 87.9476 47.0902 87.6149L47.2011 87.504C46.3138 87.504 44.7609 86.1729 44.0954 86.9494C42.8753 86.6166 41.3224 86.7276 40.1023 86.2839C39.4368 85.0638 37.8839 86.062 37.1075 85.2856C36.8856 85.2856 36.3311 84.8419 35.8874 84.8419C22.799 79.9615 14.2582 71.9753 14.2582 62.88C14.1473 48.0168 37.4403 35.9266 66.2792 35.9266Z" fill="#9F1E2F"/>
<path fill-rule="evenodd" clip-rule="evenodd" d="M57.7395 55.7813C57.7395 55.7813 57.6285 55.6703 57.6285 55.5594L57.5176 55.4485L57.4067 55.3376C57.2958 55.2266 57.1849 55.0048 57.0739 54.8939C56.7412 54.4502 56.5194 54.0066 56.2975 53.5629L56.1866 53.452C54.0791 50.1244 50.4188 44.6893 42.5436 44.8003C21.9126 45.0221 15.923 56.114 14.8138 64.7657C14.7029 65.5421 14.7029 66.3185 14.9247 67.095C14.9247 67.2059 14.9248 67.3168 14.8138 67.5386C13.8156 75.1921 25.1293 83.8438 36.1103 85.0639C48.4223 86.3949 65.9475 81.0708 69.386 72.1973C70.0515 70.4226 70.1624 68.9806 69.9405 67.7605C71.1607 61.8818 65.0601 59.9962 60.7343 57.7778L60.6234 57.6669H60.5124L60.2906 57.5559H60.1797L60.0688 57.445L59.9578 57.3341C59.736 57.2232 59.6251 57.1123 59.5142 57.0013C59.2923 56.8904 59.1814 56.7795 59.0705 56.6686C58.9596 56.5577 58.8487 56.5577 58.8487 56.4467C58.7377 56.3358 58.7378 56.3358 58.6268 56.2249C58.5159 56.114 58.5159 56.114 58.405 56.114C57.8504 55.8922 57.7395 55.7813 57.7395 55.7813Z" fill="#7A212F"/>
<path fill-rule="evenodd" clip-rule="evenodd" d="M68.0539 62.3252C68.0539 62.3252 68.1648 62.2142 68.1648 62.1033L68.2757 61.9924L68.3866 61.8815C68.4976 61.7706 68.6085 61.5487 68.7194 61.4378C69.0521 60.9941 69.274 60.5505 69.4958 60.1068L69.6068 59.9959C71.7142 56.6683 75.3745 51.2333 83.2498 51.3442C103.881 51.566 109.87 62.6579 110.98 71.3096C111.09 72.0861 111.09 72.8625 110.869 73.6389C110.869 73.7498 110.869 73.8608 110.98 74.0826C111.978 81.736 100.664 90.3877 89.6831 91.6078C77.3711 92.9388 59.8459 87.6147 56.4074 78.7412C55.7419 76.9665 55.631 75.5245 55.8528 74.3044C54.6327 68.4257 60.7332 66.5401 65.0591 64.3217L65.17 64.2108H65.2809L65.5027 64.0999H65.6137L65.7246 63.989L65.8355 63.878C66.0574 63.7671 66.1683 63.6562 66.2792 63.5453C66.501 63.4344 66.6119 63.3234 66.7229 63.2125C66.8338 63.1016 66.9447 63.1016 66.9447 62.9907C67.0556 62.8798 67.0556 62.8798 67.1665 62.7688C67.2774 62.6579 67.2775 62.6579 67.3884 62.6579C67.943 62.4361 67.943 62.3252 68.0539 62.3252Z" fill="#7A212F"/>
<path fill-rule="evenodd" clip-rule="evenodd" d="M53.7465 56.3365C52.0827 54.6727 48.8661 45.1337 38.5506 45.2446C17.9197 45.4664 11.93 56.5583 10.8209 65.21C9.82258 72.8634 21.1363 81.5151 32.1173 82.7352C44.4293 84.0662 61.9545 78.7421 65.393 69.8686C68.8315 60.9951 57.5177 60.1078 53.7465 56.3365Z" fill="#D32128"/>
<path fill-rule="evenodd" clip-rule="evenodd" d="M53.7467 53.6732C52.0829 52.0094 48.8663 42.4704 38.5508 42.5813C17.9199 42.8031 11.9303 53.895 10.8211 62.5467C9.82283 70.2001 21.1365 78.8518 32.1175 80.0719C44.4295 81.4029 61.9547 76.0788 65.3932 67.2053C68.8317 58.2209 57.518 57.3335 53.7467 53.6732Z" fill="#EC1D25"/>
<path fill-rule="evenodd" clip-rule="evenodd" d="M52.1943 54.3388C50.7523 52.8969 47.7575 44.1343 38.3294 44.2452C19.5841 44.467 14.0381 54.5606 12.9289 62.5468C12.0416 69.5347 22.3571 77.5209 32.3398 78.6301C43.6535 79.8502 59.5149 74.9697 62.7316 66.9836C65.9482 58.5537 55.7437 57.7773 52.1943 54.3388Z" fill="#F17761"/>
<path fill-rule="evenodd" clip-rule="evenodd" d="M42.7664 55.2263C41.4353 53.4516 39.4388 51.5659 36.3331 51.455C25.9067 51.0113 23.3555 57.001 23.2446 61.6596C23.1337 65.7636 29.3452 70.8659 35.002 71.7532C41.3244 72.8624 50.9744 71.0877 52.1945 66.3182C52.86 63.7671 50.6416 61.6596 48.9778 60.5504C51.0853 58.7757 53.7474 56.8901 56.6312 55.4481C55.5221 54.8935 54.4129 54.228 53.7473 53.4516C53.3037 53.0079 52.86 52.1205 52.0836 51.0114C48.9778 52.6751 46.2049 54.228 42.7664 55.2263Z" fill="#F7BA9A"/>
<path fill-rule="evenodd" clip-rule="evenodd" d="M41.7681 54.4507C44.652 47.0191 37.4422 43.5806 26.0176 50.1249C18.0314 54.6725 17.5877 58.9984 19.4734 64.8771C20.6935 68.5374 27.4595 64.8771 25.9067 62.215C21.4699 54.2289 36.9986 46.9082 36.7767 55.6708C36.8876 57.1128 40.8807 56.78 41.7681 54.4507Z" fill="#EC1D25"/>
<path fill-rule="evenodd" clip-rule="evenodd" d="M50.3087 62.1034C61.1788 63.6562 62.5098 69.5349 48.9777 73.7499C39.5496 76.6338 33.7818 75.0809 27.0157 71.3097C22.8008 68.9804 30.5651 66.3183 33.3381 68.4258C41.657 74.6372 58.073 68.3149 46.6484 64.6545C44.5409 63.989 46.7593 61.6597 50.3087 62.1034Z" fill="#EC1D25"/>
<path fill-rule="evenodd" clip-rule="evenodd" d="M75.042 65.6527C76.7058 63.9889 79.9224 54.4499 90.2379 54.5608C110.869 54.7826 116.858 65.8745 117.968 74.5262C118.966 82.1796 107.652 90.8313 96.6712 92.0514C84.3592 93.3824 66.834 88.0583 63.3955 79.1848C59.957 70.3112 71.2707 69.4239 75.042 65.6527Z" fill="#D32128"/>
<path fill-rule="evenodd" clip-rule="evenodd" d="M75.0415 62.9904C76.7053 61.3267 79.9219 51.7876 90.2374 51.8985C110.868 52.1204 116.858 63.2123 117.967 71.864C118.965 79.5174 107.652 88.169 96.6707 89.3891C84.3587 90.7202 66.8335 85.3961 63.395 76.5225C59.9565 67.649 71.2703 66.6508 75.0415 62.9904Z" fill="#EC1D25"/>
<path fill-rule="evenodd" clip-rule="evenodd" d="M76.595 63.7667C78.1479 62.3247 81.0318 53.5621 90.4599 53.673C109.205 53.8949 114.751 63.9885 115.86 71.9747C116.748 78.9626 106.432 86.9487 96.4495 88.0579C85.1358 89.278 69.2744 84.3976 66.0577 76.4114C62.8411 67.9816 73.1565 67.0942 76.595 63.7667Z" fill="#F17761"/>
<path fill-rule="evenodd" clip-rule="evenodd" d="M86.0223 64.654C87.3534 62.8793 89.3499 60.9937 92.4557 60.8828C102.882 60.4391 105.433 66.4287 105.544 71.0873C105.655 75.1913 99.4435 80.2936 93.7867 81.181C87.4643 82.2901 77.8143 80.5154 76.5942 75.7459C75.9287 73.1948 78.1471 71.0873 79.8109 69.9781C77.7034 68.2034 75.0414 66.3178 72.1575 64.8758C73.2667 64.3213 74.3759 63.6558 75.0414 62.8793C75.485 62.4356 75.9287 61.5483 76.7052 60.4391C79.9218 61.992 82.5839 63.5448 86.0223 64.654Z" fill="#F7BA9A"/>
<path fill-rule="evenodd" clip-rule="evenodd" d="M87.0223 63.7669C84.1384 56.3353 91.3481 52.8968 102.773 59.441C110.759 63.9887 111.203 68.3145 109.317 74.1932C108.208 77.8536 101.331 74.1932 102.884 71.5312C107.32 63.545 91.7918 56.2244 92.0136 64.987C92.0136 66.4289 87.9096 66.2071 87.0223 63.7669Z" fill="#EC1D25"/>
<path fill-rule="evenodd" clip-rule="evenodd" d="M78.591 71.4205C67.721 72.9734 66.3899 78.8521 79.922 83.067C89.3501 85.9509 95.118 84.3981 101.884 80.6268C106.099 78.2975 98.4455 75.6354 95.5616 77.7429C87.2427 83.9544 70.8267 77.632 82.2513 73.9717C84.2479 73.3062 82.1404 70.9768 78.591 71.4205Z" fill="#EC1D25"/>
<path fill-rule="evenodd" clip-rule="evenodd" d="M76.817 59.4409C81.2538 59.4409 84.8031 57.5553 84.8031 55.3369C84.8031 53.0076 81.2538 51.2329 76.817 51.2329C72.3802 51.2329 68.8308 53.1185 68.8308 55.3369C68.8308 57.5553 72.3802 59.4409 76.817 59.4409Z" fill="#EB1D25"/>
<path fill-rule="evenodd" clip-rule="evenodd" d="M4.27614 44.9098C11.0422 44.1333 16.4772 44.1334 9.82209 44.4661C8.04739 44.577 2.72327 51.6758 4.60889 52.2304C6.82727 52.896 10.3767 52.3414 11.5968 51.2322C18.2519 45.5753 10.7094 53.3396 9.04565 56.4453C8.1583 58.22 6.4945 58.7747 6.60542 59.1074C6.93817 59.9948 16.9209 55.7799 18.2519 54.1161C21.0249 50.6776 18.6956 52.1195 14.3697 56.1126C12.9278 57.4436 10.2657 59.4402 10.5985 60.1057C10.8203 60.5494 18.5847 59.8839 20.914 58.5528C26.7927 55.2253 23.1324 57.5546 16.81 60.6603C13.0387 62.435 10.8204 63.9878 11.4859 64.3206C12.5951 64.9861 20.8031 64.0988 19.0284 61.8804C18.5847 61.3258 20.3594 73.0832 21.3577 71.8631C22.6887 70.3102 24.1306 67.87 25.9053 64.4315C27.5691 64.7643 24.2416 71.3085 25.2398 70.643C33.6697 64.8752 27.0145 73.7487 29.2329 72.6395C38.2174 67.9809 50.973 61.6585 59.4029 57.1109C61.3994 56.1126 64.9488 54.1161 65.3925 52.4523C65.7252 51.1213 66.5017 49.9011 66.7235 48.3483C66.8344 47.4609 67.1672 43.5787 67.2781 43.6897C59.5138 35.038 52.9695 36.5909 41.5449 38.9202C31.784 40.9167 25.1289 40.3621 15.5899 39.4748C9.82207 39.142 3.38879 39.4747 4.27614 44.9098Z" fill="#489645"/>
<path fill-rule="evenodd" clip-rule="evenodd" d="M4.27609 44.9104C5.93988 39.1426 10.8203 41.361 8.15826 44.134C7.04907 45.3541 2.16863 49.4581 3.61057 51.3437C4.49792 52.4529 5.27436 52.5638 6.49447 51.4546C13.1496 45.7977 9.15652 52.8965 7.49274 56.1132C4.16517 62.4356 8.93468 57.2224 10.7094 54.8931C13.4824 51.4546 17.1427 51.6764 12.8168 55.7804C10.4875 57.9988 7.93642 62.2137 13.7042 58.8862C19.5829 55.5586 21.5794 57.2224 15.1461 60.3281C6.60538 64.4321 12.2622 66.0959 17.3645 61.5482C17.9191 61.1045 20.803 77.4096 22.0231 69.9781C22.3559 67.8706 19.5829 63.8775 22.5777 64.3212C24.2415 64.6539 24.5743 74.5257 25.6834 69.2016C27.5691 60.3281 27.5691 74.3039 29.2329 72.5292C35.2225 66.4286 49.3092 61.2155 57.739 56.7787C59.7356 55.7804 63.285 53.7839 63.7286 52.1201C64.0614 50.7891 64.8378 49.569 65.0597 48.0161C65.1706 47.1288 65.5034 43.1357 65.6143 43.3575C57.8499 34.7058 51.3057 36.2587 39.8811 38.588C30.1202 40.5845 23.4651 40.03 13.926 39.1426C8.15824 38.8098 3.38874 39.4753 4.27609 44.9104Z" fill="#8AC640"/>
<path fill-rule="evenodd" clip-rule="evenodd" d="M9.04657 40.6955C16.5891 39.6973 21.0258 41.472 26.0172 41.9156C27.9028 42.0266 30.0103 41.6938 31.785 41.6938C33.116 41.8047 34.7798 41.361 32.3396 41.9156C25.4626 43.4685 19.1402 42.1375 12.596 43.2466C9.93393 43.6903 7.16093 47.1288 8.27012 45.2432C8.93564 44.134 10.2667 41.2501 9.04657 40.6955Z" fill="#CED629"/>
<path fill-rule="evenodd" clip-rule="evenodd" d="M10.488 49.1252C13.5938 47.5724 16.8104 47.3505 19.0288 46.9069C23.3547 45.9086 27.9023 44.9103 32.1172 43.6902C37.1086 42.2482 28.0133 45.2431 26.9041 45.5758C22.5782 47.1287 20.2489 47.6833 16.034 49.458C15.2576 49.7907 11.3754 51.8982 10.7099 52.0091C10.2662 51.2327 11.3754 49.6798 10.488 49.1252Z" fill="#CED629"/>
<path fill-rule="evenodd" clip-rule="evenodd" d="M14.9241 52.4529C18.1407 51.011 21.2465 50.5673 23.4649 50.0127C24.4631 49.7908 25.3505 49.2363 26.3488 49.0144C27.2361 48.6817 28.2344 48.3489 26.6815 49.1253C24.1304 50.4564 21.5792 51.8983 19.139 53.1184L14.3695 55.5586C13.9258 55.6695 16.0333 53.1184 14.9241 52.4529Z" fill="#CED629"/>
<path fill-rule="evenodd" clip-rule="evenodd" d="M21.5811 64.2103C23.023 63.2121 24.5759 62.5466 26.0178 61.4374L36.0005 54.0058L39.2172 51.6765L37.2206 53.3403L24.6868 64.0995C22.2466 66.4288 24.354 63.7667 21.5811 64.2103Z" fill="#CED629"/>
<path fill-rule="evenodd" clip-rule="evenodd" d="M27.0151 65.8733C28.1242 65.2078 30.3426 64.3205 31.23 63.544C33.2265 61.7693 35.1121 60.6601 37.4414 59.2182C40.8799 57.1107 33.4483 62.7676 32.4501 63.8768C31.5627 64.875 30.6754 66.4279 30.0098 67.648C29.1225 69.2009 28.9007 69.2009 28.457 67.5371C28.2351 66.8716 26.5714 65.8733 27.0151 65.8733Z" fill="#CED629"/>
<path fill-rule="evenodd" clip-rule="evenodd" d="M17.6972 61.5479C20.0265 59.5514 23.5759 59.1077 25.4616 56.8893C26.6817 55.4474 29.1219 55.0037 30.6748 54.3382C32.2276 53.6726 29.4547 55.4474 29.2328 55.6692C26.349 57.5548 23.2432 60.5496 20.803 62.9899C20.0266 63.7663 19.8047 64.5427 19.1392 62.768C19.0283 62.3243 17.5863 61.5479 17.6972 61.5479Z" fill="#CED629"/>
<path fill-rule="evenodd" clip-rule="evenodd" d="M126.398 43.1373C120.186 43.1373 115.195 43.8028 121.296 43.3592C122.959 43.2482 128.616 49.1269 126.952 49.7924C124.956 50.5689 121.628 50.458 120.408 49.6816C113.642 45.2448 121.407 51.4563 123.292 54.1183C124.401 55.5603 125.843 55.893 125.732 56.2258C125.511 57.0022 115.972 54.3402 114.53 53.0091C111.646 50.1252 113.864 51.2344 118.301 54.4511C119.743 55.4493 122.405 57.0022 122.183 57.6677C122.072 58.1114 114.862 58.3332 112.644 57.335C106.987 54.8947 110.426 56.6694 116.637 58.7769C120.297 59.997 122.405 61.1062 121.961 61.4389C121.074 62.1045 113.42 62.2154 114.751 60.1079C115.084 59.5533 114.751 70.3125 113.753 69.3142C112.422 67.9832 110.869 65.9866 108.762 63.1027C107.32 63.5464 110.98 69.0924 109.982 68.5378C101.552 64.2119 108.651 71.5326 106.543 70.7562C97.7808 67.5395 85.4688 63.2137 77.2608 60.1079C75.3752 59.3315 71.8258 58.0005 71.2712 56.5585C70.8275 55.4493 69.9402 54.3402 69.6074 53.0091C69.3856 52.2327 68.72 48.6833 68.6091 48.9051C74.8206 40.3643 80.9211 41.0299 91.6803 41.8063C100.776 42.4718 106.876 41.3626 115.528 39.5879C120.63 38.4787 126.62 38.146 126.398 43.1373Z" fill="#489645"/>
<path fill-rule="evenodd" clip-rule="evenodd" d="M126.399 43.1374C124.291 38.1461 120.076 40.5863 122.738 42.9156C123.958 43.9139 128.728 47.0196 127.73 48.9052C127.064 50.0144 126.399 50.1253 125.067 49.3489C118.301 44.9121 122.849 51.0127 124.735 53.6747C128.506 58.9988 123.515 54.7839 121.629 53.0092C118.745 50.1253 115.418 50.7908 119.854 54.0075C122.295 55.7822 125.067 59.2207 119.411 56.8914C113.754 54.4512 112.09 56.2259 118.191 58.3333C126.509 61.1063 121.407 63.2138 116.305 59.6644C115.75 59.3316 114.863 74.3057 112.977 67.6505C112.423 65.8758 114.53 61.8827 111.868 62.6592C110.426 63.1028 111.092 71.9764 109.539 67.3178C106.877 59.5534 108.43 72.0873 106.655 70.7563C100.443 65.8758 87.0223 62.7701 78.8143 59.6644C76.9286 58.8879 73.3792 57.5569 72.8246 56.115C72.381 55.0058 71.4936 53.8966 71.1609 52.5655C70.939 51.7891 70.2735 48.2397 70.1626 48.4615C76.3741 39.9208 82.4746 40.5863 93.2337 41.3627C102.329 42.0283 108.43 40.9191 117.081 39.1444C122.073 38.0352 126.62 38.1461 126.399 43.1374Z" fill="#8AC640"/>
<path fill-rule="evenodd" clip-rule="evenodd" d="M121.516 39.8099C114.418 39.699 110.646 41.8064 106.099 42.6938C104.435 43.0265 102.438 42.9156 100.885 43.1374C99.6654 43.3593 98.1125 43.1375 100.442 43.3593C106.986 44.0248 112.532 42.1392 118.633 42.472C121.184 42.5829 123.957 45.3558 122.847 43.803C122.071 42.9156 120.407 40.4754 121.516 39.8099Z" fill="#CED629"/>
<path fill-rule="evenodd" clip-rule="evenodd" d="M121.074 47.5746C118.079 46.4654 115.084 46.6872 112.977 46.4654C108.873 46.0217 104.658 45.578 100.665 44.9125C96.0059 44.1361 104.658 45.7999 105.656 46.1326C109.76 47.02 111.978 47.3527 115.971 48.4619C116.748 48.6838 120.519 50.1257 121.074 50.2366C121.517 49.3493 120.408 48.1291 121.074 47.5746Z" fill="#CED629"/>
<path fill-rule="evenodd" clip-rule="evenodd" d="M117.303 50.9015C114.197 49.9033 111.313 49.9033 109.205 49.5705C108.318 49.4596 107.431 49.1268 106.433 48.905C105.545 48.7941 104.658 48.5723 106.1 49.1269C108.54 50.0142 111.091 51.1234 113.42 51.8998L118.079 53.5636C118.634 53.7854 116.526 51.678 117.303 50.9015Z" fill="#CED629"/>
<path fill-rule="evenodd" clip-rule="evenodd" d="M112.533 62.2146C111.091 61.4382 109.649 60.9946 108.207 60.2181L98.224 54.6722L95.0073 52.8975L97.0039 54.2285L109.649 62.5474C112.2 64.2112 109.981 62.1037 112.533 62.2146Z" fill="#CED629"/>
<path fill-rule="evenodd" clip-rule="evenodd" d="M107.763 64.3235C106.654 63.8798 104.547 63.3252 103.659 62.6597C101.663 61.3287 99.7771 60.4413 97.4478 59.443C94.0093 57.8902 101.441 62.216 102.55 63.1034C103.437 63.8798 104.547 65.2108 105.212 66.2091C106.21 67.5401 106.321 67.5401 106.654 65.9873C106.765 65.3217 108.207 64.2126 107.763 64.3235Z" fill="#CED629"/>
<path fill-rule="evenodd" clip-rule="evenodd" d="M115.86 59.4427C113.531 57.8898 110.204 57.8898 108.207 56.1151C106.876 55.0059 104.658 54.895 103.216 54.4513C101.663 54.0076 104.436 55.3387 104.658 55.4496C107.431 56.8915 110.758 59.2208 113.087 61.1064C113.864 61.661 114.197 62.4375 114.529 60.7737C114.751 60.2191 115.971 59.4427 115.86 59.4427Z" fill="#CED629"/>
<path fill-rule="evenodd" clip-rule="evenodd" d="M90.5716 78.0757C88.2423 73.1952 85.4693 69.5349 88.3532 74.1935C89.1297 75.4136 82.6963 82.5124 81.0326 81.5142C79.1469 80.2941 78.0377 77.632 78.8142 76.301C82.8073 69.0913 76.5958 77.8539 73.3792 80.5159C71.6045 82.0688 71.7154 83.2889 71.1608 83.3998C69.8298 83.6217 70.2734 74.859 71.7154 73.1953C74.8211 69.6458 74.0447 71.8642 71.0499 76.7447C70.0516 78.2975 68.8315 81.0705 67.7223 81.2924C67.0568 81.4033 64.062 75.8573 64.6166 73.6389C65.9476 68.093 64.8384 71.6424 64.062 77.4102C63.6183 80.8487 62.8418 82.9561 62.0654 82.7343C60.7344 82.2906 57.7396 76.4119 61.3999 76.5228C62.2873 76.5228 46.4259 81.0705 47.4241 79.8504C48.7552 78.1866 51.1954 76.0791 54.6339 73.1953C53.4138 72.197 46.6477 77.632 47.0914 76.6338C50.308 68.093 42.2109 76.9665 42.5437 74.97C44.0966 66.651 45.7603 55.0045 47.3132 47.1293C47.646 45.3546 48.4224 41.9161 50.308 40.8069C51.8609 39.9196 53.081 38.8104 54.8557 37.923C55.9649 37.3684 60.8453 35.261 60.5126 35.261C75.3757 36.2593 76.7067 41.3615 79.4797 50.235C81.809 57.6666 85.8021 61.8815 91.5699 67.9821C95.2302 71.5315 98.0032 76.0791 90.5716 78.0757Z" fill="#489645"/>
<path fill-rule="evenodd" clip-rule="evenodd" d="M90.5718 78.0763C97.0051 74.1941 91.9028 71.9757 89.5735 75.0815C88.5752 76.4125 85.8023 81.6257 82.5856 81.6257C80.7 81.6257 80.2563 81.182 81.0327 79.74C85.0258 72.5303 77.8161 78.7418 74.5995 81.4038C68.1662 86.7279 72.492 80.9601 74.4885 78.6308C77.5943 75.0814 75.3759 72.7521 72.3811 77.6326C70.7173 80.2946 66.6133 84.0659 67.9443 78.52C69.2753 72.974 66.0587 72.4194 65.3932 78.2981C64.3949 86.0624 59.4035 82.9567 62.7311 77.4108C63.0639 76.8562 40.7692 82.8458 49.7536 78.409C52.1938 77.1889 58.849 77.078 56.6306 75.3033C55.4105 74.305 42.6548 78.9636 48.8662 75.5251C59.2926 69.8683 41.4347 76.7452 42.7657 74.7487C47.5352 67.7608 47.2025 55.7816 48.7553 47.9063C49.0881 46.1316 49.8645 42.6931 51.7501 41.5839C53.303 40.6966 54.5231 39.5874 56.2978 38.7C57.407 38.1454 62.2875 36.038 61.9547 36.038C76.8178 37.0362 78.1488 42.1385 80.9218 50.9011C83.2511 58.3327 87.2442 62.5476 93.012 68.6481C96.4505 72.5303 98.0034 76.0797 90.5718 78.0763Z" fill="#8AC640"/>
<path fill-rule="evenodd" clip-rule="evenodd" d="M93.6772 72.8628C91.237 67.3168 86.8002 65.2094 83.6945 61.9927C82.5853 60.7726 82.0307 59.2197 81.0324 58.1105C80.256 57.2232 80.0342 55.8922 80.4778 57.8887C81.9198 63.3238 86.8002 66.7622 88.5749 71.7536C89.3514 73.7501 86.3565 77.2995 88.1312 75.6358C89.3513 74.5266 92.2352 72.3082 93.6772 72.8628Z" fill="#CED629"/>
<path fill-rule="evenodd" clip-rule="evenodd" d="M82.1414 75.9677C82.585 73.1947 81.254 70.8654 80.8103 69.0907C79.923 65.6522 79.0356 62.2137 78.3701 58.6643C77.7046 54.6712 78.481 62.2137 78.481 63.1011C78.7029 66.7614 79.0356 68.5361 78.8138 72.3073C78.8138 72.9729 78.0373 76.6332 78.1483 77.0768C79.5902 77.0768 80.9212 75.6349 82.1414 75.9677Z" fill="#CED629"/>
<path fill-rule="evenodd" clip-rule="evenodd" d="M75.7087 74.5265C75.9305 71.6426 74.9323 69.3133 74.5995 67.5386C74.4886 66.7621 74.5995 65.8748 74.4886 65.0984C74.3777 64.3219 74.3777 63.5455 74.1558 64.9875C73.7122 67.3168 73.1575 69.757 72.7139 72.0863L72.0483 76.4121C72.0483 76.8558 74.2667 74.1937 75.7087 74.5265Z" fill="#CED629"/>
<path fill-rule="evenodd" clip-rule="evenodd" d="M57.4063 75.858C58.0718 74.4161 58.0718 73.085 58.7373 71.5322L63.1741 61.2167L64.5051 57.8892L63.285 59.9966L55.7425 73.6396C54.3006 76.4126 56.6299 73.7506 57.4063 75.858Z" fill="#CED629"/>
<path fill-rule="evenodd" clip-rule="evenodd" d="M52.5267 73.0852C52.7486 71.976 52.8595 70.0904 53.4141 69.0921C54.6342 66.8737 55.1888 65.099 55.8543 62.7697C56.8526 59.4421 53.3032 67.2065 52.3049 68.4266C51.5285 69.5358 49.8647 70.8668 48.7555 71.976C47.2026 73.4179 47.2026 73.5289 49.6428 72.9743C50.6411 72.7524 52.8595 73.307 52.5267 73.0852Z" fill="#CED629"/>
<path fill-rule="evenodd" clip-rule="evenodd" d="M62.6195 77.1896C63.9506 74.7494 62.8414 72.0873 64.6161 69.758C65.8362 68.2051 65.1707 66.4304 65.2816 64.9885C65.3925 63.6575 64.5052 66.3195 64.3942 66.6523C63.396 69.5362 61.0667 73.0856 59.292 75.8585C58.7374 76.7459 57.7391 77.3005 60.2903 76.8568C61.0667 76.635 62.7305 77.1896 62.6195 77.1896Z" fill="#CED629"/>
<path fill-rule="evenodd" clip-rule="evenodd" d="M13.1491 41.9155C13.0382 43.5793 11.8181 45.4649 11.8181 47.1286C11.8181 48.1269 14.1474 47.2396 15.2566 47.2396C16.1439 47.2396 14.8129 51.7873 15.7003 51.6763C17.2531 51.5654 18.2514 51.8982 18.4732 53.451C19.0278 58.997 20.4698 57.7769 23.7973 58.4424C24.6847 58.5533 24.4628 62.1027 26.0157 61.5481C29.2324 60.328 28.5669 65.3194 29.1215 64.8757C36.8858 59.6625 33.2254 69.978 37.6622 67.5377C40.2133 66.2067 43.43 65.763 45.7593 63.8774C48.3104 61.8809 38.5496 50.0126 37.1076 48.016C34.3346 44.1339 25.683 35.1494 20.9135 35.1494C18.4732 35.1494 15.1457 38.6988 11.4854 39.2534C13.4819 40.3626 13.1491 41.9155 13.1491 41.9155Z" fill="#489645"/>
<path fill-rule="evenodd" clip-rule="evenodd" d="M44.6501 68.9801C46.4248 69.3129 48.3104 68.4255 49.8632 69.0911C50.7506 69.4238 51.8598 68.8692 52.8581 68.8692C54.5218 68.8692 52.0816 72.0858 54.1891 71.4203C55.5201 70.9767 57.6276 69.4238 58.6259 68.7583C59.7351 67.8709 58.2931 67.9818 59.5132 68.7583C60.0678 69.091 58.404 71.4203 58.404 71.9749C58.404 72.7514 60.4006 71.0876 60.6224 70.9767C61.2879 70.533 62.3971 69.8675 63.0626 69.6457C64.2827 69.5347 63.95 69.3129 63.95 70.533C63.95 70.8657 63.2845 72.6405 63.6172 72.8623C63.8391 73.0841 65.5028 71.5313 65.7247 71.3094C66.3902 70.533 67.3884 69.4238 68.2758 70.3111C68.8304 70.8657 69.385 72.5295 69.6068 73.306C71.6034 72.1968 73.3781 70.533 74.9309 69.6457C75.8183 69.202 75.4855 70.3111 75.4855 70.9767C75.4855 71.5313 76.0401 72.3077 75.7074 72.4186C76.7056 71.7531 76.4838 72.1968 77.1493 71.3094C77.593 70.6439 79.4786 68.0928 80.366 68.5365C81.3642 69.0911 81.1424 71.6422 81.8079 72.5295C82.4734 73.6387 84.3591 70.0893 84.6918 69.6457C85.5792 68.5365 86.9102 66.6508 88.574 66.6508C89.6832 66.6508 89.5722 67.2054 90.3487 67.4273C94.5636 69.202 86.9102 62.6578 87.3539 62.4359C85.5792 58.221 87.5757 56.4463 83.1389 54.7825C74.3763 51.344 57.2948 53.2296 48.754 57.2227C44.65 59.2193 44.5391 64.5434 44.6501 68.9801Z" fill="#489645"/>
<path fill-rule="evenodd" clip-rule="evenodd" d="M119.632 38.7002C119.077 40.0313 118.079 41.6951 119.521 43.2479C120.075 43.9134 120.741 44.9117 121.295 45.6882C121.961 46.7973 122.072 47.241 121.185 47.6847C120.741 47.4628 120.852 47.3519 120.297 47.3519C119.632 47.3519 115.417 46.3537 117.413 49.1267C117.746 49.6812 117.968 49.7921 117.968 50.4577C116.97 51.7887 118.079 50.7904 117.413 50.7904C116.859 50.7904 116.193 50.4577 115.528 50.4577C114.862 50.4577 114.197 50.1249 113.531 50.2358C112.977 51.0123 111.867 52.0105 112.755 53.2306C112.977 53.4525 114.308 54.0071 114.086 54.2289C113.753 54.6726 109.76 54.4507 111.091 55.5599C111.978 56.3364 113.198 56.891 112.977 58.222L112.644 58.1111C105.101 55.8927 112.422 62.1042 108.651 59.9967C107.431 59.3312 105.212 58.4438 105.323 60.3294C105.656 64.4334 106.321 63.657 102.106 61.5496C99.999 60.5513 101.663 64.6553 100.221 65.6536C98.2243 66.9846 88.0197 64.988 89.9054 62.1042C93.8984 56.0036 101.33 50.7904 107.209 46.5755C110.314 44.3571 113.309 40.9186 116.193 39.2548C116.97 39.1439 117.524 38.8112 118.19 38.5893C118.522 38.4784 119.077 38.4784 119.632 38.7002Z" fill="#489645"/>
<path fill-rule="evenodd" clip-rule="evenodd" d="M66.2802 0.0996094C103.327 0.0996094 119.078 24.169 120.298 40.2523C119.078 56.3355 95.341 69.0912 66.2802 69.0912C37.2195 69.0912 13.4828 56.3355 12.2627 40.2523C13.4828 24.169 29.2333 0.0996094 66.2802 0.0996094Z" fill="#E15A27"/>
<path fill-rule="evenodd" clip-rule="evenodd" d="M68.8319 0.764962C95.4524 0.432205 116.083 21.0631 117.193 34.3734C116.083 47.6837 94.8978 58.221 68.8319 58.221C42.8768 58.221 21.5804 47.6837 20.4712 34.3734C21.5804 21.0631 42.1004 0.9868 68.8319 0.764962Z" fill="#F4A41D"/>
<path fill-rule="evenodd" clip-rule="evenodd" d="M73.4912 3.3161C86.8014 3.20518 97.1169 10.304 97.6715 14.8517C97.1169 19.3993 86.4687 23.0597 73.4912 23.0597C60.5136 23.0597 49.8654 19.3993 49.3108 14.8517C49.8654 10.304 60.1809 3.42702 73.4912 3.3161Z" fill="#F5C017"/>
<path fill-rule="evenodd" clip-rule="evenodd" d="M43.3206 38.3664C44.9843 38.3664 46.4263 37.59 46.4263 36.5917C46.4263 35.5935 45.0953 34.817 43.3206 34.817C41.6568 34.817 40.2148 35.5935 40.2148 36.5917C40.2148 37.59 41.5459 38.3664 43.3206 38.3664Z" fill="#F28221"/>
<path fill-rule="evenodd" clip-rule="evenodd" d="M43.9851 37.4786C45.6489 37.4786 47.0908 36.7022 47.0908 35.7039C47.0908 34.7056 45.7598 33.9292 43.9851 33.9292C42.3213 33.9292 40.8794 34.7056 40.8794 35.7039C40.8794 36.7022 42.3213 37.4786 43.9851 37.4786Z" fill="#F9DBB3"/>
<path d="M63.9112 28.9272C64.2827 28.0201 63.297 26.7578 61.7097 26.1078C60.1224 25.4577 58.5346 25.666 58.1631 26.573C57.7916 27.48 58.7772 28.7423 60.3645 29.3924C61.9518 30.0425 63.5397 29.8342 63.9112 28.9272Z" fill="#F28221"/>
<path d="M64.9235 28.3473C65.2955 27.4405 64.3105 26.1776 62.7236 25.5267C61.1366 24.8757 59.5486 25.0832 59.1767 25.99C58.8047 26.8969 59.7896 28.1596 61.3766 28.8106C62.9635 29.4615 64.5516 29.2541 64.9235 28.3473Z" fill="#F9DBB3"/>
<path d="M82.2086 36.6852C81.8474 35.7741 80.2619 35.548 78.6674 36.1802C77.0729 36.8124 76.0732 38.0636 76.4345 38.9747C76.7957 39.8859 78.3812 40.112 79.9757 39.4797C81.5702 38.8475 82.5699 37.5963 82.2086 36.6852Z" fill="#F28221"/>
<path d="M82.5468 35.72C82.1864 34.8086 80.6013 34.581 79.0063 35.2117C77.4112 35.8424 76.4104 37.0926 76.7708 38.004C77.1312 38.9154 78.7164 39.143 80.3114 38.5123C81.9064 37.8816 82.9072 36.6315 82.5468 35.72Z" fill="#F9DBB3"/>
<path d="M95.8733 23.7351C96.0266 22.767 94.7775 21.7647 93.0833 21.4965C91.3892 21.2282 89.8916 21.7955 89.7383 22.7636C89.585 23.7317 90.8341 24.7339 92.5282 25.0022C94.2224 25.2705 95.72 24.7032 95.8733 23.7351Z" fill="#F28221"/>
<path d="M96.7054 22.8737C96.8586 21.9056 95.6096 20.9033 93.9154 20.635C92.2213 20.3668 90.7236 20.9341 90.5703 21.9022C90.417 22.8703 91.6661 23.8725 93.3603 24.1408C95.0544 24.409 96.5521 23.8417 96.7054 22.8737Z" fill="#F9DBB3"/>
<path d="M47.5588 13.514C47.1218 12.6366 45.5229 12.5455 43.9875 13.3103C42.4522 14.0751 41.5619 15.4063 41.9989 16.2836C42.436 17.161 44.0349 17.2522 45.5702 16.4874C47.1055 15.7225 47.9959 14.3913 47.5588 13.514Z" fill="#F28221"/>
<path d="M47.7367 12.4072C47.2996 11.53 45.7007 11.439 44.1656 12.204C42.6304 12.969 41.7403 14.3003 42.1775 15.1775C42.6146 16.0547 44.2135 16.1457 45.7486 15.3807C47.2838 14.6157 48.1739 13.2844 47.7367 12.4072Z" fill="#F9DBB3"/>
<path d="M78.3106 23.1335C79.0557 22.3206 78.4882 20.5879 77.043 19.2634C75.5979 17.9388 73.8224 17.524 73.0774 18.3369C72.3323 19.1497 72.8998 20.8825 74.3449 22.2071C75.79 23.5316 77.5655 23.9464 78.3106 23.1335Z" fill="#F28221"/>
<path d="M79.562 22.966C80.3074 22.1534 79.7406 20.4205 78.2961 19.0953C76.8515 17.7702 75.0763 17.3546 74.3309 18.1672C73.5855 18.9797 74.1522 20.7127 75.5967 22.0378C77.0413 23.363 78.8166 23.7785 79.562 22.966Z" fill="#F9DBB3"/>
<path fill-rule="evenodd" clip-rule="evenodd" d="M103.549 13.2988C105.101 13.9643 105.989 15.0735 105.656 15.85C105.212 16.6264 103.659 16.7373 102.107 16.0718C100.554 15.4063 99.6664 14.2971 100.11 13.5207C100.443 12.7442 101.996 12.6333 103.549 13.2988Z" fill="#F28221"/>
<path fill-rule="evenodd" clip-rule="evenodd" d="M104.547 12.7451C106.1 13.4106 106.987 14.5198 106.655 15.2963C106.211 16.0727 104.658 16.1836 103.105 15.5181C101.552 14.8526 100.665 13.7434 100.998 12.967C101.441 12.3014 102.994 12.1905 104.547 12.7451Z" fill="#F9DBB3"/>
<path fill-rule="evenodd" clip-rule="evenodd" d="M28.2353 20.6195C29.7882 21.285 30.6755 22.3942 30.3428 23.1706C29.8991 23.947 28.3462 24.058 26.7934 23.3925C25.2405 22.727 24.3532 21.6178 24.7968 20.8413C25.1296 20.1758 26.6824 20.0649 28.2353 20.6195Z" fill="#F28221"/>
<path fill-rule="evenodd" clip-rule="evenodd" d="M29.233 20.176C30.7858 20.8415 31.6732 21.9507 31.3404 22.7271C30.8968 23.5036 29.3439 23.6145 27.791 22.949C26.2381 22.2835 25.3508 21.1743 25.6836 20.3978C26.1272 19.7323 27.6801 19.6214 29.233 20.176Z" fill="#F9DBB3"/>
<path d="M62.0047 3.16921C61.2482 2.54613 59.7509 3.11435 58.6605 4.43836C57.5702 5.76236 57.2996 7.34078 58.0561 7.96385C58.8127 8.58693 60.3099 8.01873 61.4003 6.69473C62.4907 5.37073 62.7613 3.79229 62.0047 3.16921Z" fill="#F28221"/>
<path d="M61.7478 2.11801C60.9915 1.49454 59.4939 2.06205 58.4029 3.38554C57.3118 4.70902 57.0404 6.28731 57.7966 6.91078C58.5529 7.53425 60.0505 6.96679 61.1416 5.6433C62.2326 4.31982 62.504 2.74148 61.7478 2.11801Z" fill="#F9DBB3"/>
<path d="M86.2618 5.16013C86.4161 4.19224 85.168 3.18874 83.4742 2.91876C81.7804 2.64878 80.2822 3.21455 80.128 4.18244C79.9737 5.15033 81.2218 6.1538 82.9156 6.42378C84.6094 6.69376 86.1075 6.12802 86.2618 5.16013Z" fill="#F28221"/>
<path d="M87.0572 4.35079C87.2105 3.38271 85.9613 2.38044 84.2672 2.11217C82.573 1.84391 81.0754 2.41123 80.9221 3.37932C80.7688 4.34741 82.0179 5.34967 83.712 5.61794C85.4062 5.8862 86.9039 5.31888 87.0572 4.35079Z" fill="#F9DBB3"/>
<path fill-rule="evenodd" clip-rule="evenodd" d="M58.849 16.738C60.4019 16.0725 61.8438 16.1834 62.0657 17.0708C62.2875 17.8472 61.2892 19.0673 59.8473 19.7328C58.2944 20.3984 56.8525 20.2874 56.6306 19.4001C56.2979 18.6236 57.2962 17.4035 58.849 16.738Z" fill="#F28221"/>
<path fill-rule="evenodd" clip-rule="evenodd" d="M59.1811 15.7386C60.734 15.0731 62.1759 15.184 62.3978 16.0714C62.6196 16.8478 61.6213 18.0679 60.0685 18.7334C58.5156 19.3989 57.0737 19.288 56.8518 18.4007C56.63 17.6242 57.6283 16.4041 59.1811 15.7386Z" fill="#F9DBB3"/>
<path fill-rule="evenodd" clip-rule="evenodd" d="M85.0262 12.0791C86.69 11.8572 88.0211 12.4118 88.0211 13.1883C88.0211 14.0756 86.8009 14.963 85.1372 15.1848C83.4734 15.4067 82.1423 14.8521 82.1423 14.0756C82.1423 13.1883 83.4734 12.3009 85.0262 12.0791Z" fill="#F28221"/>
<path fill-rule="evenodd" clip-rule="evenodd" d="M85.691 11.1913C87.3548 10.9694 88.6858 11.524 88.6858 12.3004C88.6858 13.1878 87.4657 14.0751 85.802 14.297C84.1382 14.5188 82.8071 13.9642 82.8071 13.1878C82.8071 12.3004 84.0272 11.4131 85.691 11.1913Z" fill="#F9DBB3"/>
<path fill-rule="evenodd" clip-rule="evenodd" d="M105.214 23.2819C106.323 24.502 106.767 25.8331 106.102 26.3877C105.436 26.9423 103.994 26.3877 102.774 25.1675C101.665 23.9474 101.221 22.6164 101.887 22.0618C102.552 21.5072 104.105 22.0618 105.214 23.2819Z" fill="#F28221"/>
<path fill-rule="evenodd" clip-rule="evenodd" d="M106.323 23.1704C107.433 24.3905 107.876 25.7215 107.211 26.2761C106.545 26.8307 105.103 26.2761 103.883 25.056C102.774 23.8359 102.33 22.5049 102.996 21.9503C103.661 21.5066 105.103 22.0612 106.323 23.1704Z" fill="#F9DBB3"/>
<path fill-rule="evenodd" clip-rule="evenodd" d="M44.0969 2.7611C45.6498 2.2065 47.2027 2.42836 47.5354 3.09388C47.8682 3.87031 46.759 4.86855 45.2061 5.42315C43.6532 5.97774 42.1004 5.75592 41.7676 5.0904C41.4349 4.31397 42.4331 3.20478 44.0969 2.7611Z" fill="#F28221"/>
<path fill-rule="evenodd" clip-rule="evenodd" d="M44.43 1.87427C45.9829 1.31967 47.5358 1.5415 47.8685 2.20701C48.2013 2.98345 47.0921 3.98172 45.5392 4.53632C43.9864 5.09091 42.4335 4.86909 42.1007 4.20358C41.768 3.42714 42.8772 2.31795 44.43 1.87427Z" fill="#F9DBB3"/>
<path fill-rule="evenodd" clip-rule="evenodd" d="M32.2286 9.30564C34.2251 9.19472 35.778 9.74932 35.8889 10.5258C35.8889 11.3022 34.3361 12.1895 32.3395 12.3005C30.343 12.4114 28.7901 11.9677 28.6792 11.0803C28.6792 10.193 30.232 9.41656 32.2286 9.30564Z" fill="#F28221"/>
<path fill-rule="evenodd" clip-rule="evenodd" d="M32.8944 8.4188C34.8909 8.30788 36.5547 8.86248 36.5547 9.63891C36.5547 10.4153 35.0019 11.1918 33.0053 11.4136C31.0088 11.5245 29.4559 10.9699 29.345 10.1935C29.345 9.41707 31.0088 8.64063 32.8944 8.4188Z" fill="#F9DBB3"/>
<path fill-rule="evenodd" clip-rule="evenodd" d="M66.2796 0.0996094C102.106 0.0996094 118.079 22.7271 120.186 38.6994C116.082 53.2298 93.5657 64.3217 66.3905 64.3217C38.9935 64.3217 16.2551 53.008 12.4839 38.2557C14.8132 22.3943 30.6746 0.0996094 66.2796 0.0996094Z" fill="#F28221"/>
<path fill-rule="evenodd" clip-rule="evenodd" d="M68.8307 0.76545C95.4512 0.432693 116.082 21.0636 117.191 34.3739C116.082 47.6842 94.8966 58.2215 68.8307 58.2215C42.8756 58.2215 21.5792 47.6842 20.47 34.3739C21.5792 21.0636 42.0992 0.987288 68.8307 0.76545Z" fill="#F4A41D"/>
<path fill-rule="evenodd" clip-rule="evenodd" d="M73.489 3.31574C86.7992 3.20482 97.1147 10.3036 97.6693 14.8513C97.1147 19.399 86.4665 23.0593 73.489 23.0593C60.5114 23.0593 49.8632 19.399 49.3086 14.8513C49.8632 10.3036 60.1787 3.42666 73.489 3.31574Z" fill="#F5C017"/>
<path d="M43.3191 38.367C45.0343 38.367 46.4248 37.5725 46.4248 36.5923C46.4248 35.6122 45.0343 34.8176 43.3191 34.8176C41.6038 34.8176 40.2134 35.6122 40.2134 36.5923C40.2134 37.5725 41.6038 38.367 43.3191 38.367Z" fill="#F28221"/>
<path d="M43.9849 37.4801C45.7001 37.4801 47.0906 36.6855 47.0906 35.7054C47.0906 34.7252 45.7001 33.9307 43.9849 33.9307C42.2696 33.9307 40.8792 34.7252 40.8792 35.7054C40.8792 36.6855 42.2696 37.4801 43.9849 37.4801Z" fill="#F9DBB3"/>
<path d="M63.9126 28.9593C64.2843 28.0524 63.299 26.7899 61.7119 26.1395C60.1247 25.4891 58.5368 25.697 58.1652 26.604C57.7935 27.5109 58.7788 28.7734 60.3659 29.4238C61.953 30.0742 63.541 29.8663 63.9126 28.9593Z" fill="#F28221"/>
<path d="M64.9233 28.3468C65.2952 27.44 64.3103 26.1771 62.7233 25.5262C61.1364 24.8753 59.5484 25.0827 59.1764 25.9895C58.8045 26.8964 59.7894 28.1592 61.3763 28.8101C62.9633 29.461 64.5513 29.2536 64.9233 28.3468Z" fill="#F9DBB3"/>
<path d="M82.2235 36.7259C81.8621 35.8148 80.2767 35.589 78.6824 36.2214C77.0881 36.8538 76.0885 38.105 76.4499 39.0161C76.8113 39.9271 78.3967 40.153 79.991 39.5206C81.5854 38.8881 82.5849 37.6369 82.2235 36.7259Z" fill="#F28221"/>
<path d="M82.5454 35.7197C82.185 34.8082 80.5998 34.5806 79.0048 35.2113C77.4098 35.842 76.4089 37.0922 76.7693 38.0036C77.1297 38.9151 78.7149 39.1426 80.3099 38.5119C81.9049 37.8812 82.9058 36.6311 82.5454 35.7197Z" fill="#F9DBB3"/>
<path d="M95.8539 23.7292C96.0071 22.7611 94.7578 21.759 93.0637 21.4909C91.3695 21.2228 89.872 21.7903 89.7188 22.7583C89.5656 23.7264 90.8148 24.7286 92.5089 24.9967C94.2031 25.2647 95.7007 24.6973 95.8539 23.7292Z" fill="#F28221"/>
<path d="M96.7041 22.8733C96.8574 21.9052 95.6083 20.9029 93.9142 20.6347C92.22 20.3664 90.7224 20.9337 90.5691 21.9018C90.4158 22.8699 91.6649 23.8721 93.3591 24.1404C95.0532 24.4087 96.5508 23.8414 96.7041 22.8733Z" fill="#F9DBB3"/>
<path d="M47.5566 13.5144C47.1196 12.6371 45.5207 12.546 43.9853 13.3108C42.45 14.0756 41.5597 15.4068 41.9967 16.2841C42.4338 17.1615 44.0327 17.2527 45.568 16.4878C47.1033 15.723 47.9937 14.3918 47.5566 13.5144Z" fill="#F28221"/>
<path d="M47.7365 12.4068C47.2994 11.5296 45.7005 11.4386 44.1653 12.2036C42.6302 12.9686 41.7401 14.2999 42.1772 15.1771C42.6144 16.0544 44.2132 16.1454 45.7484 15.3804C47.2835 14.6154 48.1736 13.284 47.7365 12.4068Z" fill="#F9DBB3"/>
<path d="M78.3018 23.1339C79.0471 22.3212 78.4801 20.5883 77.0353 19.2634C75.5906 17.9384 73.8152 17.5231 73.0699 18.3358C72.3246 19.1484 72.8917 20.8813 74.3364 22.2063C75.7811 23.5313 77.5565 23.9465 78.3018 23.1339Z" fill="#F28221"/>
<path d="M79.5684 22.9534C80.3136 22.1406 79.7463 20.4078 78.3014 19.0831C76.8564 17.7583 75.081 17.3433 74.3359 18.156C73.5907 18.9688 74.1579 20.7016 75.6028 22.0264C77.0478 23.3511 78.8232 23.7662 79.5684 22.9534Z" fill="#F9DBB3"/>
<path fill-rule="evenodd" clip-rule="evenodd" d="M103.548 13.2993C105.101 13.9648 105.989 15.074 105.656 15.8504C105.212 16.6269 103.659 16.7378 102.106 16.0723C100.553 15.4067 99.6661 14.2976 100.11 13.5211C100.443 12.7447 101.995 12.6338 103.548 13.2993Z" fill="#F28221"/>
<path fill-rule="evenodd" clip-rule="evenodd" d="M104.546 12.7447C106.099 13.4103 106.986 14.5195 106.653 15.2959C106.209 16.0723 104.657 16.1832 103.104 15.5177C101.551 14.8522 100.664 13.743 100.996 12.9666C101.44 12.3011 102.993 12.1901 104.546 12.7447Z" fill="#F9DBB3"/>
<path fill-rule="evenodd" clip-rule="evenodd" d="M28.2338 20.62C29.7867 21.2855 30.6741 22.3947 30.3413 23.1711C29.8976 23.9475 28.3448 24.0585 26.7919 23.393C25.239 22.7274 24.3517 21.6183 24.7954 20.8418C25.1281 20.1763 26.681 20.0654 28.2338 20.62Z" fill="#F28221"/>
<path fill-rule="evenodd" clip-rule="evenodd" d="M29.2335 20.1766C30.7863 20.8422 31.6737 21.9513 31.3409 22.7278C30.8972 23.5042 29.3444 23.6151 27.7915 22.9496C26.2386 22.2841 25.3513 21.1749 25.684 20.3985C26.1277 19.7329 27.6806 19.622 29.2335 20.1766Z" fill="#F9DBB3"/>
<path d="M62.0035 3.16971C61.247 2.54664 59.7497 3.11486 58.6593 4.43886C57.5689 5.76286 57.2983 7.34127 58.0549 7.96435C58.8115 8.58742 60.3087 8.01923 61.3991 6.69523C62.4895 5.37123 62.7601 3.79279 62.0035 3.16971Z" fill="#F28221"/>
<path d="M61.7729 2.11374C61.0166 1.49027 59.5191 2.05778 58.428 3.38126C57.3369 4.70475 57.0655 6.28304 57.8218 6.90651C58.5781 7.52998 60.0756 6.96251 61.1667 5.63903C62.2578 4.31554 62.5292 2.73721 61.7729 2.11374Z" fill="#F9DBB3"/>
<path d="M86.2788 5.10964C86.433 4.14165 85.1848 3.13822 83.4908 2.86841C81.7968 2.5986 80.2986 3.1646 80.1444 4.13258C79.9902 5.10057 81.2385 6.10398 82.9325 6.37379C84.6265 6.64359 86.1247 6.07763 86.2788 5.10964Z" fill="#F28221"/>
<path d="M87.0835 4.38339C87.2368 3.4153 85.9877 2.41303 84.2935 2.14477C82.5994 1.8765 81.1018 2.44383 80.9485 3.41191C80.7952 4.38 82.0443 5.38226 83.7384 5.65053C85.4326 5.91879 86.9302 5.35147 87.0835 4.38339Z" fill="#F9DBB3"/>
<path fill-rule="evenodd" clip-rule="evenodd" d="M58.8478 16.7377C60.4007 16.0721 61.8426 16.183 62.0645 17.0704C62.2863 17.8468 61.288 19.067 59.8461 19.7325C58.2932 20.398 56.8513 20.2871 56.6294 19.3997C56.2967 18.6233 57.2949 17.4032 58.8478 16.7377Z" fill="#F28221"/>
<path fill-rule="evenodd" clip-rule="evenodd" d="M59.1809 15.7381C60.7337 15.0726 62.1757 15.1835 62.3975 16.0709C62.6194 16.8473 61.6211 18.0674 60.0682 18.7329C58.5153 19.3984 57.0734 19.2875 56.8516 18.4002C56.6297 17.6238 57.628 16.4037 59.1809 15.7381Z" fill="#F9DBB3"/>
<path fill-rule="evenodd" clip-rule="evenodd" d="M85.025 12.0786C86.6888 11.8568 88.0198 12.4113 88.0198 13.1878C88.0198 14.0751 86.7997 14.9625 85.1359 15.1843C83.4722 15.4062 82.1411 14.8516 82.1411 14.0752C82.1411 13.1878 83.4721 12.3004 85.025 12.0786Z" fill="#F28221"/>
<path fill-rule="evenodd" clip-rule="evenodd" d="M85.6896 11.1908C87.3533 10.9689 88.6844 11.5235 88.6844 12.3C88.6844 13.1873 87.4643 14.0747 85.8005 14.2965C84.1367 14.5183 82.8057 13.9637 82.8057 13.1873C82.8057 12.2999 84.0258 11.4126 85.6896 11.1908Z" fill="#F9DBB3"/>
<path fill-rule="evenodd" clip-rule="evenodd" d="M105.212 23.2814C106.321 24.5015 106.765 25.8326 106.099 26.3872C105.434 26.9418 103.992 26.3872 102.772 25.1671C101.663 23.947 101.219 22.6159 101.884 22.0613C102.55 21.5067 104.103 22.0613 105.212 23.2814Z" fill="#F28221"/>
<path fill-rule="evenodd" clip-rule="evenodd" d="M106.321 23.1699C107.43 24.39 107.874 25.721 107.209 26.2756C106.543 26.8302 105.101 26.2756 103.881 25.0555C102.772 23.8354 102.328 22.5044 102.994 21.9498C103.659 21.5061 105.101 22.0607 106.321 23.1699Z" fill="#F9DBB3"/>
<path fill-rule="evenodd" clip-rule="evenodd" d="M44.0947 2.76073C45.6476 2.20614 47.2005 2.428 47.5332 3.09351C47.866 3.86994 46.7568 4.86819 45.2039 5.42278C43.651 5.97738 42.0982 5.75555 41.7654 5.09004C41.4327 4.31361 42.4309 3.31533 44.0947 2.76073Z" fill="#F28221"/>
<path fill-rule="evenodd" clip-rule="evenodd" d="M44.4278 1.8739C45.9807 1.31931 47.5336 1.54113 47.8663 2.20665C48.1991 2.98308 47.0899 3.98136 45.537 4.53595C43.9842 5.09055 42.4313 4.86872 42.0985 4.20321C41.7658 3.42678 42.875 2.31758 44.4278 1.8739Z" fill="#F9DBB3"/>
<path fill-rule="evenodd" clip-rule="evenodd" d="M32.2274 9.30613C34.2239 9.19521 35.7768 9.74981 35.8877 10.5262C35.8877 11.3027 34.3348 12.19 32.3383 12.301C30.3417 12.4119 28.7889 11.9682 28.678 11.0808C28.678 10.1935 30.2308 9.41704 32.2274 9.30613Z" fill="#F28221"/>
<path fill-rule="evenodd" clip-rule="evenodd" d="M32.8922 8.41928C34.8887 8.30837 36.5525 8.86297 36.5525 9.6394C36.5525 10.4158 34.9997 11.1923 33.0031 11.4141C31.0066 11.525 29.4537 10.9704 29.3428 10.194C29.3428 9.41756 31.0066 8.64112 32.8922 8.41928Z" fill="#F9DBB3"/>
<path fill-rule="evenodd" clip-rule="evenodd" d="M29.0116 87.8365C29.4553 87.8365 29.8989 87.171 29.8989 86.3946C29.8989 85.6181 29.5662 84.9526 29.0116 84.9526C28.5679 84.9526 28.1243 85.6181 28.1243 86.3946C28.1243 87.171 28.5679 87.8365 29.0116 87.8365Z" fill="#9F1E2F"/>
<path fill-rule="evenodd" clip-rule="evenodd" d="M29.0114 86.9486C29.455 86.9486 29.8987 86.5049 29.8987 85.8394C29.8987 85.2848 29.566 84.7302 29.0114 84.7302C28.5677 84.7302 28.124 85.1739 28.124 85.8394C28.124 86.5049 28.5677 86.9486 29.0114 86.9486Z" fill="#7A212F"/>
<path d="M31.4509 90.3877C31.8185 90.3877 32.1164 89.8414 32.1164 89.1676C32.1164 88.4937 31.8185 87.9475 31.4509 87.9475C31.0834 87.9475 30.7854 88.4937 30.7854 89.1676C30.7854 89.8414 31.0834 90.3877 31.4509 90.3877Z" fill="#9F1E2F"/>
<path d="M31.4521 89.6109C31.8197 89.6109 32.1176 89.2136 32.1176 88.7235C32.1176 88.2334 31.8197 87.8362 31.4521 87.8362C31.0846 87.8362 30.7866 88.2334 30.7866 88.7235C30.7866 89.2136 31.0846 89.6109 31.4521 89.6109Z" fill="#7A212F"/>
<path d="M54.078 94.7124C54.5681 94.7124 54.9654 94.0668 54.9654 93.2704C54.9654 92.4741 54.5681 91.8285 54.078 91.8285C53.588 91.8285 53.1907 92.4741 53.1907 93.2704C53.1907 94.0668 53.588 94.7124 54.078 94.7124Z" fill="#9F1E2F"/>
<path d="M54.0788 93.936C54.5688 93.936 54.9661 93.4394 54.9661 92.8268C54.9661 92.2143 54.5688 91.7177 54.0788 91.7177C53.5887 91.7177 53.1914 92.2143 53.1914 92.8268C53.1914 93.4394 53.5887 93.936 54.0788 93.936Z" fill="#7A212F"/>
<path d="M77.8162 97.9295C78.1837 97.9295 78.4817 97.3832 78.4817 96.7094C78.4817 96.0355 78.1837 95.4893 77.8162 95.4893C77.4486 95.4893 77.1506 96.0355 77.1506 96.7094C77.1506 97.3832 77.4486 97.9295 77.8162 97.9295Z" fill="#9F1E2F"/>
<path d="M77.8162 97.264C78.1837 97.264 78.4817 96.8667 78.4817 96.3766C78.4817 95.8865 78.1837 95.4893 77.8162 95.4893C77.4486 95.4893 77.1506 95.8865 77.1506 96.3766C77.1506 96.8667 77.4486 97.264 77.8162 97.264Z" fill="#7A212F"/>
<path d="M51.3054 94.9351C51.673 94.9351 51.9709 94.3888 51.9709 93.715C51.9709 93.0411 51.673 92.4949 51.3054 92.4949C50.9379 92.4949 50.6399 93.0411 50.6399 93.715C50.6399 94.3888 50.9379 94.9351 51.3054 94.9351Z" fill="#9F1E2F"/>
<path d="M51.3054 94.2696C51.673 94.2696 51.9709 93.8723 51.9709 93.3822C51.9709 92.8922 51.673 92.4949 51.3054 92.4949C50.9379 92.4949 50.6399 92.8922 50.6399 93.3822C50.6399 93.8723 50.9379 94.2696 51.3054 94.2696Z" fill="#7A212F"/>
<path d="M74.2656 94.4895C74.6331 94.4895 74.9311 93.9433 74.9311 93.2694C74.9311 92.5956 74.6331 92.0493 74.2656 92.0493C73.898 92.0493 73.6001 92.5956 73.6001 93.2694C73.6001 93.9433 73.898 94.4895 74.2656 94.4895Z" fill="#9F1E2F"/>
<path fill-rule="evenodd" clip-rule="evenodd" d="M74.2656 93.7145C74.5983 93.7145 74.9311 93.3818 74.9311 92.8272C74.9311 92.3835 74.5983 91.9398 74.2656 91.9398C73.9328 91.9398 73.6001 92.2726 73.6001 92.8272C73.6001 93.3818 73.8219 93.7145 74.2656 93.7145Z" fill="#7A212F"/>
<path fill-rule="evenodd" clip-rule="evenodd" d="M47.8668 93.2721C48.5323 93.2721 48.976 92.3848 48.976 91.2756C48.976 90.1664 48.4214 89.2791 47.8668 89.2791C47.2013 89.2791 46.7576 90.1664 46.7576 91.2756C46.6467 92.3848 47.2013 93.2721 47.8668 93.2721Z" fill="#9F1E2F"/>
<path d="M47.8655 92.163C48.4781 92.163 48.9747 91.5174 48.9747 90.721C48.9747 89.9247 48.4781 89.2791 47.8655 89.2791C47.2529 89.2791 46.7563 89.9247 46.7563 90.721C46.7563 91.5174 47.2529 92.163 47.8655 92.163Z" fill="#7A212F"/>
<path d="M42.876 93.6038C43.2435 93.6038 43.5415 93.0575 43.5415 92.3837C43.5415 91.7098 43.2435 91.1636 42.876 91.1636C42.5084 91.1636 42.2104 91.7098 42.2104 92.3837C42.2104 93.0575 42.5084 93.6038 42.876 93.6038Z" fill="#9F1E2F"/>
<path d="M42.876 92.9383C43.2435 92.9383 43.5415 92.541 43.5415 92.0509C43.5415 91.5608 43.2435 91.1636 42.876 91.1636C42.5084 91.1636 42.2104 91.5608 42.2104 92.0509C42.2104 92.541 42.5084 92.9383 42.876 92.9383Z" fill="#7A212F"/>
<path fill-rule="evenodd" clip-rule="evenodd" d="M70.0509 93.7154C70.4946 93.7154 70.9383 93.0499 70.9383 92.2735C70.9383 91.4971 70.6055 90.8315 70.0509 90.8315C69.6072 90.8315 69.1636 91.4971 69.1636 92.2735C69.2745 93.0499 69.6072 93.7154 70.0509 93.7154Z" fill="#9F1E2F"/>
<path d="M70.0509 92.9394C70.541 92.9394 70.9383 92.4428 70.9383 91.8303C70.9383 91.2177 70.541 90.7211 70.0509 90.7211C69.5608 90.7211 69.1636 91.2177 69.1636 91.8303C69.1636 92.4428 69.5608 92.9394 70.0509 92.9394Z" fill="#7A212F"/>
<path fill-rule="evenodd" clip-rule="evenodd" d="M64.0612 98.0399C64.5049 98.0399 64.9485 97.3744 64.9485 96.5979C64.9485 95.8215 64.6158 95.156 64.0612 95.156C63.6175 95.156 63.1738 95.8215 63.1738 96.5979C63.1738 97.3744 63.5066 98.0399 64.0612 98.0399Z" fill="#9F1E2F"/>
<path d="M64.0617 97.2643C64.5518 97.2643 64.949 96.7677 64.949 96.1551C64.949 95.5425 64.5518 95.0459 64.0617 95.0459C63.5716 95.0459 63.1743 95.5425 63.1743 96.1551C63.1743 96.7677 63.5716 97.2643 64.0617 97.2643Z" fill="#7A212F"/>
<path fill-rule="evenodd" clip-rule="evenodd" d="M48.9766 99.1504C52.6369 101.258 56.1863 103.698 59.9575 105.473C63.2851 107.026 66.169 106.915 68.1655 105.695C71.9368 103.476 74.1552 101.702 77.8155 99.705C68.4983 102.256 59.8466 102.256 48.9766 99.1504Z" fill="#F8ED8D"/>
</svg>
