<svg width="375" height="334" viewBox="0 0 375 334" fill="none" xmlns="http://www.w3.org/2000/svg">
<path d="M47.3929 180.569L49.1786 179.035C50.1989 178.269 50.2001 176.99 49.4362 176.221L23.2164 142.932C22.4527 141.908 21.1783 141.907 20.4129 142.674L18.6272 144.207C17.6069 144.974 17.6057 146.253 18.3695 147.021L44.5894 180.31C45.0984 181.078 46.3726 181.335 47.3929 180.569Z" fill="#F9B361"/>
<path opacity="0.19" d="M48.671 177.244L22.1965 143.699C21.6872 143.187 21.6877 142.675 21.6882 142.163C22.198 142.164 22.7075 142.42 23.2168 142.932L49.6913 176.477C50.2005 176.989 50.1998 177.757 50.1993 178.269C49.6898 178.012 49.1803 177.756 48.671 177.244Z" fill="#FFF6F7"/>
<path d="M64.4786 172.91L66.5187 171.888C67.5388 171.377 68.0498 170.099 67.541 169.075L49.4824 130.677C48.9737 129.653 47.6998 129.14 46.6797 129.65L44.6397 130.672C43.6196 131.182 43.1086 132.461 43.6174 133.485L61.676 171.883C62.1847 172.907 63.4586 173.42 64.4786 172.91Z" fill="#F9B361"/>
<path opacity="0.19" d="M66.7792 169.841L48.4662 130.931C48.2119 130.419 48.2126 129.652 48.2129 129.396C48.7227 129.397 49.2319 129.909 49.4863 130.421L67.7993 169.331C68.0536 169.843 68.0529 170.61 67.7975 171.122C67.288 170.865 67.0336 170.353 66.7792 169.841Z" fill="#FFF6F7"/>
<path d="M46.3728 182.359L47.9038 180.57C48.6692 179.803 48.6705 178.524 47.652 177.499L16.3296 149.067C15.5658 148.299 14.2914 148.297 13.2708 149.32L11.7397 151.109C10.9743 151.876 10.9731 153.155 11.9916 154.18L43.3139 182.612C44.3327 183.381 45.6071 183.382 46.3728 182.359Z" fill="#F9B361"/>
<path opacity="0.19" d="M47.1433 178.778L15.5666 149.834C15.0573 149.322 14.803 148.81 14.8035 148.298C15.3132 148.298 16.0779 148.299 16.5871 148.811L48.1638 177.756C48.6731 178.268 48.9275 178.78 48.927 179.292C48.1621 179.547 47.6526 179.29 47.1433 178.778Z" fill="#FFF6F7"/>
<path d="M56.0644 175.46L58.1048 174.183C59.1248 173.672 59.3809 172.393 58.6173 171.369L35.7132 135.78C35.2044 134.756 33.9303 134.499 32.91 135.266L30.8697 136.543C29.8496 137.054 29.5935 138.333 30.3571 139.357L53.2612 174.945C53.7702 175.713 55.0444 175.971 56.0644 175.46Z" fill="#F9B361"/>
<path opacity="0.19" d="M57.6006 172.136L34.4421 136.035C34.1877 135.523 33.9336 134.755 33.9338 134.5C34.4436 134.5 34.9531 134.756 35.4621 135.525L58.6206 171.625C58.875 172.137 59.1291 172.905 58.8738 173.416C58.6191 173.16 58.1099 172.648 57.6006 172.136Z" fill="#FFF6F7"/>
<path d="M45.3442 191.313L46.8753 189.524C47.6407 188.757 47.6419 187.478 46.6234 186.453L15.5562 157.765C14.7923 156.997 13.5179 156.996 12.4974 158.018L10.9663 159.808C10.2009 160.574 10.1996 161.854 11.2181 162.878L42.2854 191.566C43.3041 192.335 44.5785 192.336 45.3442 191.313Z" fill="#F9B361"/>
<path opacity="0.19" d="M46.1089 187.731L14.5322 158.787C14.0229 158.275 13.7685 157.763 13.769 157.251C14.2788 157.251 15.0434 157.252 15.2978 157.764L46.8745 186.709C47.3838 187.221 47.6382 187.733 47.6377 188.244C47.1277 188.5 46.6182 188.243 46.1089 187.731Z" fill="#FFF6F7"/>
<path d="M62.4364 176.747L64.4767 175.469C65.4967 174.959 65.7529 173.68 65.2442 172.656L43.3603 136.301C42.8515 135.277 41.5774 135.02 40.5573 135.53L38.517 136.808C37.497 137.318 37.2408 138.597 37.7496 139.621L59.6334 175.976C60.3971 177.001 61.671 177.514 62.4364 176.747Z" fill="#F9B361"/>
<path opacity="0.19" d="M64.2262 173.677L42.0879 136.81C41.8336 136.298 41.5794 135.531 41.8346 135.275C42.3443 135.276 42.8536 135.788 43.3629 136.3L65.5011 173.167C65.7555 173.679 66.0096 174.447 65.7542 174.958C65.2449 174.446 64.7354 174.19 64.2262 173.677Z" fill="#FFF6F7"/>
<path d="M54.7856 181.599L56.5713 180.065C57.5916 179.299 57.5929 178.02 57.0839 177.251L31.3743 143.451C30.6106 142.427 29.3362 142.426 28.5711 142.937L26.7854 144.47C25.7651 145.237 25.7638 146.516 26.2728 147.284L51.9824 181.084C52.7461 182.109 54.0205 182.11 54.7856 181.599Z" fill="#F9B361"/>
<path opacity="0.19" d="M56.315 178.019L30.3508 143.962C29.8415 143.45 29.842 142.938 29.8425 142.427C30.3523 142.427 30.8618 142.684 31.3711 143.196L57.3353 177.252C57.8446 177.764 57.8438 178.532 57.5884 179.043C57.3335 179.043 56.8243 178.531 56.315 178.019Z" fill="#FFF6F7"/>
<path d="M57.8815 139.64C55.3312 141.173 53.7991 143.986 53.7958 147.312C53.5339 154.476 49.194 161.38 42.3084 165.211C36.1879 168.532 29.5607 168.781 23.9556 166.473C21.4081 165.191 18.349 165.699 16.0535 167.232L15.0332 167.999C13.7578 169.021 13.2463 170.812 14.2648 171.836L26.4862 184.898L46.0908 206.41C46.8547 207.178 48.1289 207.435 48.8943 206.669L59.3538 197.212C60.3743 196.189 61.6495 195.423 62.9247 194.657L76.9508 186.994C77.9708 186.484 78.227 185.205 77.7182 184.181L69.583 162.936L61.7035 140.923C61.1955 139.132 59.157 138.618 57.8815 139.64Z" fill="#F94A3D"/>
<path d="M32.867 180.299L20.6456 167.238C20.1363 166.725 20.1368 166.214 20.1373 165.702C18.608 165.7 17.0782 166.211 15.8031 166.977L14.7828 167.744C13.5073 168.766 12.9958 170.556 14.0143 171.581L26.2357 184.642L45.8403 206.154C46.6042 206.923 47.8784 207.18 48.6438 206.413L53.2357 202.324C52.9808 202.324 52.7262 202.067 52.4716 201.811L32.867 180.299Z" fill="#FF7664"/>
<path d="M11.3044 78.1856C11.3044 78.1856 0.854009 78.4311 0.352864 69.7311C0.101278 66.4046 1.88849 63.3359 3.42031 60.7788C5.71805 56.943 8.78094 52.5963 11.5879 49.2728C22.5605 36.4903 32.7619 30.3596 46.7863 24.4885C50.611 22.9571 60.0439 20.6636 64.3746 22.9707C65.9032 23.7399 67.1761 25.2763 67.9392 26.8123C68.4477 28.0921 68.9562 29.372 68.7 30.6511C68.1857 35.2562 63.0847 38.5774 60.0236 41.133C55.6871 44.7109 51.3508 48.0329 46.7594 51.6105C36.8114 59.2766 26.8636 66.6869 16.6607 74.3528C15.6404 75.1194 14.6202 75.8861 13.5999 76.6526C13.3447 76.9083 12.0691 78.1863 11.3044 78.1856Z" fill="#FFAC79"/>
<path opacity="0.25" d="M13.8524 76.3974C14.8727 75.6308 15.893 74.8642 16.9133 74.0976C27.1159 66.6875 37.0639 59.0214 47.0119 51.3552C51.3482 48.0332 55.9397 44.4556 60.2762 40.8778C63.3373 38.3221 68.6931 35.0011 68.9526 30.3958C68.9536 29.3723 68.9546 28.3488 68.4459 27.3249C63.6046 25.7849 55.1915 27.8235 51.8765 29.3554C37.5973 35.2262 27.3959 41.3569 16.6782 54.1397C13.8712 57.4632 10.8081 62.0658 8.51056 65.6456C6.97874 68.2028 5.19153 71.2714 5.44312 74.598C5.44236 75.3656 5.69647 76.1334 5.95084 76.6454C8.75328 77.9275 11.8119 77.9306 11.8119 77.9306C12.0665 78.1867 13.3422 76.9086 13.8524 76.3974Z" fill="#F97762"/>
<path d="M10.7929 76.6497C10.7921 77.4174 11.3011 78.1855 11.8104 78.6977C18.4335 82.5423 58.1756 102.283 76.0084 111.256C79.575 113.051 83.6562 109.985 82.8956 105.89C78.5834 84.9047 68.4355 37.0474 66.401 32.4397C63.6031 26.552 11.5839 50.0403 10.7929 76.6497Z" fill="#FFD98B"/>
<path d="M11.0505 73.8357C11.0508 73.5799 11.051 73.3241 11.3067 73.0686C11.051 73.3241 11.0508 73.5799 11.0505 73.8357Z" fill="#FFD98B"/>
<path d="M11.3098 72.5573C11.31 72.3016 11.5657 72.0461 11.5659 71.7903C11.3103 72.0458 11.31 72.3016 11.3098 72.5573Z" fill="#FFD98B"/>
<path d="M11.5634 71.2785C11.5637 71.0228 11.8194 70.7672 11.8196 70.5115C11.8194 70.7672 11.5637 71.0228 11.5634 71.2785Z" fill="#FFD98B"/>
<path d="M11.8188 70.2545C11.8191 69.9988 12.0747 69.7432 12.0752 69.2317C12.075 69.4875 12.0747 69.7433 11.8188 70.2545Z" fill="#FFD98B"/>
<path d="M13.3496 66.6744C13.6046 66.4189 13.6051 65.9074 13.8601 65.6519C13.6051 65.9074 13.6046 66.4189 13.3496 66.6744Z" fill="#FFD98B"/>
<path d="M16.1599 62.0714C16.4149 61.8159 16.6702 61.3046 16.9252 61.0491C16.6702 61.3046 16.4152 61.5601 16.1599 62.0714Z" fill="#FFD98B"/>
<path d="M14.6335 64.3727C14.8885 64.1171 15.1438 63.6059 15.3989 63.3504C15.1438 63.6059 14.8888 63.8614 14.6335 64.3727Z" fill="#FFD98B"/>
<path d="M15.3969 63.0939C15.652 62.8383 15.9073 62.3271 16.1623 62.0716C15.9073 62.3271 15.652 62.8383 15.3969 63.0939Z" fill="#FFD98B"/>
<path d="M13.6024 72.8154C13.6016 73.583 14.1106 74.3511 14.6199 74.8634C21.243 78.708 60.9851 98.4491 78.8179 107.422C80.0916 108.191 81.6209 108.193 82.6409 107.682C82.6414 107.17 82.6419 106.658 82.6424 106.147C78.3302 85.1612 68.1824 37.3039 66.1479 32.6962C64.1134 28.0886 30.7101 41.8724 16.6724 61.3044C17.438 60.2817 18.4588 59.0034 19.4794 57.9809C16.1616 62.3274 13.8626 67.4425 13.6024 72.8154Z" fill="#F9B361"/>
<path d="M12.8401 67.6964C13.0951 67.4409 13.0956 66.9294 13.3506 66.6738C13.0954 67.1851 12.8403 67.4407 12.8401 67.6964Z" fill="#FFD98B"/>
<path d="M13.8613 65.3951C14.1163 65.1396 14.3716 64.6283 14.3719 64.3726C14.3714 64.8841 14.1163 65.1396 13.8613 65.3951Z" fill="#FFD98B"/>
<path d="M12.3322 68.9757C12.3325 68.72 12.5878 68.2087 12.8428 67.9531C12.5875 68.4644 12.5873 68.7202 12.3322 68.9757Z" fill="#FFD98B"/>
<path d="M81.3645 110.495L81.1089 110.75L81.3645 110.495Z" fill="#FFD98B"/>
<path d="M80.855 111.007L80.5994 111.262C80.5996 111.006 80.855 111.007 80.855 111.007Z" fill="#FFD98B"/>
<path d="M81.8731 109.985L81.6174 110.24C81.6174 110.24 81.6174 110.24 81.8731 109.985Z" fill="#FFD98B"/>
<path d="M82.8944 107.426C82.8933 108.449 82.383 109.216 81.8727 109.982C82.3828 109.471 82.8933 108.449 82.8944 107.426Z" fill="#FFD98B"/>
<path d="M80.343 111.261C80.0883 111.261 80.088 111.516 79.8332 111.516C80.0883 111.261 80.0883 111.261 80.343 111.261Z" fill="#FFD98B"/>
<path d="M13.3493 66.6734C13.6044 66.4179 13.6049 65.9064 13.8599 65.6509C13.6049 65.9064 13.6046 66.1622 13.3493 66.6734Z" fill="#FFD98B"/>
<path d="M11.303 78.186C11.5573 78.4421 11.5573 78.4421 11.8119 78.4423C12.0663 78.6983 12.3209 78.6986 12.8298 78.9549C12.5755 78.6988 12.0663 78.6983 11.8119 78.4423C11.5573 78.4421 11.5573 78.4421 11.303 78.186Z" fill="#FFD98B"/>
<path d="M81.8725 109.982C82.3828 109.215 82.8931 108.448 82.8941 107.425C82.8931 108.448 82.3825 109.471 81.8725 109.982Z" fill="#FFD98B"/>
<path d="M80.3423 111.26C80.5971 111.261 80.5973 111.005 80.8521 111.005C80.8521 111.005 80.5973 111.005 80.3423 111.26C80.5971 111.261 80.5973 111.005 80.3423 111.26Z" fill="#FFD98B"/>
<path d="M79.3229 111.516L79.0681 111.516C79.3229 111.516 79.5777 111.517 79.5779 111.261C79.3229 111.516 79.3229 111.516 79.3229 111.516Z" fill="#FFD98B"/>
<path d="M15.3967 63.0929C15.6517 62.8374 15.907 62.3261 16.1621 62.0706C15.907 62.3261 15.6517 62.8374 15.3967 63.0929Z" fill="#FFD98B"/>
<path d="M81.8731 109.984L81.6174 110.239C81.6174 110.239 81.6174 110.239 81.8731 109.984Z" fill="#FFD98B"/>
<path d="M11.0495 74.092C11.0492 74.3478 11.049 74.6035 11.0484 75.115C10.7933 74.859 10.7936 74.6033 11.0495 74.092Z" fill="#FFD98B"/>
<path d="M11.3065 72.5557C11.3067 72.3 11.5618 72.0445 11.562 71.7887L11.5623 71.5329C11.5625 71.2772 11.8176 71.0217 11.8178 70.7659C11.562 71.7887 11.306 73.0673 11.0502 74.0901C11.0504 73.8343 11.0507 73.5786 11.3057 73.3231C11.0514 72.8113 11.3062 72.8115 11.3065 72.5557Z" fill="#FFD98B"/>
<path d="M16.1589 62.0705C16.4139 61.8149 16.6692 61.3036 16.9243 61.0481C16.6692 61.3036 16.4142 61.5592 16.1589 62.0705Z" fill="#FFD98B"/>
<path d="M80.3418 111.262C80.087 111.261 80.0868 111.517 79.832 111.517C80.0871 111.261 80.087 111.261 80.3418 111.262Z" fill="#FFD98B"/>
<path d="M15.3981 63.0926C15.1431 63.3481 14.8878 63.8593 14.6328 64.1148C14.8878 63.8593 15.1428 63.6038 15.3981 63.0926Z" fill="#FFD98B"/>
<path d="M16.9262 60.7919C17.4363 60.2809 17.6916 59.7696 18.2016 59.2586C17.6916 59.7696 17.1815 60.2807 16.9262 60.7919Z" fill="#FFD98B"/>
<path d="M81.3645 110.494L81.1089 110.749L81.3645 110.494Z" fill="#FFD98B"/>
<path d="M14.6254 64.3728C14.3704 64.6283 14.1151 65.1396 13.8601 65.3951C14.1151 65.1396 14.3701 64.8841 14.6254 64.3728Z" fill="#FFD98B"/>
<path d="M12.3277 69.2317C12.3274 69.4875 12.0715 69.9988 12.0713 70.2545C12.0718 69.743 12.072 69.4872 12.3277 69.2317Z" fill="#FFD98B"/>
<path d="M12.8418 67.9517C13.0971 67.4404 13.3521 67.1849 13.3526 66.6734C13.0971 67.4404 12.5868 68.2072 12.3312 68.9743L12.3315 68.7185C12.5862 68.7188 12.5865 68.463 12.8418 67.9517Z" fill="#FFD98B"/>
<path d="M48.2683 68.2424C55.0252 68.2491 60.5081 62.7558 60.5148 55.9729C60.5216 49.1899 55.0495 43.6858 48.2927 43.6791C41.5358 43.6724 36.0529 49.1657 36.0462 55.9486C36.0395 62.7316 41.5115 68.2357 48.2683 68.2424Z" fill="#FF5E4D"/>
<path d="M48.2764 64.4049C53.2033 64.4098 57.2013 60.4043 57.2062 55.4584C57.2111 50.5125 53.221 46.4991 48.2942 46.4942C43.3673 46.4893 39.3693 50.4948 39.3644 55.4407C39.3595 60.3866 43.3496 64.4 48.2764 64.4049Z" fill="#F94A3D"/>
<g opacity="0.23">
<g opacity="0.23">
<path opacity="0.23" d="M76.024 95.1356C76.7273 95.1363 77.2981 94.5643 77.2988 93.858C77.2995 93.1517 76.7299 92.5786 76.0265 92.5779C75.3231 92.5772 74.7524 93.1492 74.7517 93.8555C74.751 94.5618 75.3206 95.1349 76.024 95.1356Z" fill="#FFA35D"/>
<path opacity="0.23" d="M25.8423 64.1253C26.5457 64.126 27.1165 63.554 27.1172 62.8478C27.1179 62.1415 26.5482 61.5684 25.8449 61.5677C25.1415 61.567 24.5707 62.139 24.57 62.8452C24.5693 63.5515 25.139 64.1246 25.8423 64.1253Z" fill="#FFA35D"/>
<path opacity="0.23" d="M62.2737 83.3529C62.9771 83.3536 63.5479 82.7816 63.5486 82.0753C63.5493 81.369 62.9796 80.7959 62.2763 80.7952C61.5729 80.7945 61.0021 81.3665 61.0014 82.0728C61.0007 82.7791 61.5703 83.3522 62.2737 83.3529Z" fill="#FFA35D"/>
<path opacity="0.23" d="M74.7433 98.9734C75.1651 98.9738 75.5074 98.6306 75.5078 98.2068C75.5083 97.783 75.1666 97.4392 74.7448 97.4387C74.3229 97.4383 73.9806 97.7815 73.9802 98.2053C73.9798 98.6291 74.3214 98.9729 74.7433 98.9734Z" fill="#FFA35D"/>
<path opacity="0.23" d="M58.7025 87.6986C58.8432 87.6987 58.9574 87.5845 58.9576 87.4434C58.9577 87.3024 58.8437 87.1879 58.703 87.1878C58.5623 87.1876 58.4481 87.3019 58.448 87.4429C58.4478 87.584 58.5618 87.6984 58.7025 87.6986Z" fill="#FFA35D"/>
<path opacity="0.23" d="M61.5421 49.8328C61.6828 49.833 61.797 49.7187 61.7972 49.5777C61.7973 49.4366 61.6833 49.3222 61.5426 49.322C61.4019 49.3219 61.2877 49.4361 61.2876 49.5771C61.2874 49.7182 61.4014 49.8327 61.5421 49.8328Z" fill="#FFA35D"/>
<path opacity="0.23" d="M29.65 79.7386C29.7908 79.7387 29.9049 79.6245 29.9051 79.4834C29.9052 79.3424 29.7913 79.2279 29.6505 79.2278C29.5098 79.2277 29.3956 79.3419 29.3955 79.4829C29.3954 79.624 29.5093 79.7384 29.65 79.7386Z" fill="#FFA35D"/>
<path opacity="0.23" d="M60.984 97.4241C61.1247 97.4243 61.2389 97.3101 61.239 97.169C61.2392 97.028 61.1252 96.9135 60.9845 96.9133C60.8438 96.9132 60.7296 97.0274 60.7295 97.1685C60.7293 97.3095 60.8433 97.424 60.984 97.4241Z" fill="#FFA35D"/>
<path opacity="0.23" d="M34.7753 53.1322C34.916 53.1323 35.0302 53.0181 35.0303 52.877C35.0305 52.736 34.9165 52.6215 34.7758 52.6213C34.6351 52.6212 34.5209 52.7355 34.5207 52.8765C34.5206 53.0176 34.6346 53.132 34.7753 53.1322Z" fill="#FFA35D"/>
<path opacity="0.23" d="M19.7223 67.7029C19.863 67.7031 19.9772 67.5888 19.9773 67.4478C19.9775 67.3067 19.8635 67.1923 19.7228 67.1921C19.5821 67.192 19.4679 67.3062 19.4678 67.4473C19.4676 67.5883 19.5816 67.7028 19.7223 67.7029Z" fill="#FFA35D"/>
<path opacity="0.23" d="M65.1219 37.8109C65.2627 37.811 65.3769 37.6968 65.377 37.5557C65.3771 37.4147 65.2632 37.3002 65.1225 37.3001C64.9817 37.2999 64.8676 37.4142 64.8674 37.5552C64.8673 37.6963 64.9812 37.8107 65.1219 37.8109Z" fill="#FFA35D"/>
<path opacity="0.23" d="M70.161 96.4094C70.5828 96.4098 70.9251 96.0666 70.9255 95.6428C70.926 95.2191 70.5843 94.8752 70.1625 94.8748C69.7406 94.8744 69.3983 95.2176 69.3979 95.6413C69.3975 96.0651 69.7391 96.409 70.161 96.4094Z" fill="#FFA35D"/>
<path opacity="0.23" d="M28.3836 71.8058C28.665 71.8061 28.8933 71.5773 28.8936 71.2948C28.8939 71.0122 28.666 70.783 28.3846 70.7827C28.1032 70.7825 27.8748 71.0112 27.8745 71.2938C27.8742 71.5763 28.1021 71.8055 28.3836 71.8058Z" fill="#FFA35D"/>
<path opacity="0.23" d="M57.4769 38.0597C57.8987 38.0602 58.241 37.717 58.2415 37.2932C58.2419 36.8694 57.9002 36.5256 57.4784 36.5252C57.0566 36.5248 56.7143 36.8679 56.7138 37.2917C56.7134 37.7154 57.055 38.0593 57.4769 38.0597Z" fill="#FFA35D"/>
</g>
</g>
<path d="M67.6298 81.056C68.1343 86.4297 72.7181 90.5282 78.0711 90.0217C78.5809 90.0222 79.0907 90.0227 79.3458 89.7671C78.0775 83.625 76.5545 77.2268 75.2867 70.573C70.6978 71.5919 67.3798 76.1943 67.6298 81.056Z" fill="#FF5E4D"/>
<path d="M70.176 80.5457C70.4271 84.384 73.7378 87.2018 77.5613 86.9497C77.8161 86.95 78.3259 86.9505 78.581 86.6948C77.5658 82.3441 76.8058 77.7377 75.7905 73.387C72.2217 73.8952 69.6698 76.9631 70.176 80.5457Z" fill="#F94A3D"/>
<path d="M28.3856 73.0852C28.1307 73.0849 27.6209 73.0844 27.3663 72.8283C26.6019 72.5717 26.0929 71.8036 25.5841 70.7796C25.33 70.0118 25.331 68.9883 25.5867 68.2209C25.8421 67.7095 26.3523 67.1982 26.8624 66.9429C27.3724 66.6875 28.137 66.6883 28.6465 66.9446C29.4109 67.2013 29.9199 67.9694 30.4287 68.9933C30.9369 70.5291 30.4254 72.3196 28.8956 72.8298C28.8953 73.0857 28.6405 73.0854 28.3856 73.0852ZM27.8801 68.7349C27.6252 68.7347 27.8801 68.7349 27.8801 68.7349C27.6252 68.7347 27.3701 68.9903 27.3701 68.9903C27.115 69.2459 27.1145 69.7577 27.3691 70.0138C27.6235 70.5258 27.8781 70.7819 28.133 70.7821C28.133 70.7821 28.3879 70.7824 28.6427 70.7826C28.8976 70.7829 29.1533 70.0155 28.8991 69.2477C28.6448 68.7357 28.3901 68.4796 28.1352 68.4793C28.135 68.7352 27.8801 68.7349 27.8801 68.7349Z" fill="#390028"/>
<path d="M57.9425 79.768C56.6681 79.7667 55.6493 78.9981 55.1408 77.7182C54.8867 76.9504 54.8875 76.1828 55.1431 75.4154C55.3985 74.904 55.9088 74.3927 56.4185 74.3932C57.6935 73.8827 59.4769 74.6521 59.9851 76.1879C60.4933 77.7236 59.9821 79.2582 58.4525 79.5126C58.4523 79.7685 58.1974 79.7682 57.9425 79.768ZM57.4363 76.1853C57.1814 76.1851 56.9263 76.4407 56.9263 76.4407C56.6711 76.6963 56.6709 76.9522 56.9253 77.4642C57.1796 77.9762 57.6889 78.4884 57.944 78.2327C58.1989 78.233 58.4545 77.4656 58.2002 76.9537C58.2007 76.4419 57.6912 76.1856 57.4363 76.1853Z" fill="#390028"/>
<path d="M69.9074 98.201C69.6525 98.2007 69.1425 98.2003 68.8878 97.9441C68.3781 97.6878 67.8687 97.1755 67.8692 96.6638C67.6148 96.1518 67.8703 95.6403 67.8705 95.3845C68.126 94.873 68.3812 94.6173 68.8911 94.6179C69.4013 94.3625 69.911 94.6188 70.4207 94.8752C71.44 95.388 71.9489 96.4119 71.438 97.4349C71.1825 97.9464 70.6723 98.2018 70.1621 98.4571C70.4173 98.2015 70.1624 98.2012 69.9074 98.201Z" fill="#390028"/>
<path d="M64.8617 45.4877C64.3519 45.4872 63.8421 45.4867 63.3329 44.9744C61.8043 44.2053 61.0415 42.4135 61.8074 41.1349C62.5733 39.8563 64.358 39.3464 65.8865 40.1155C66.6509 40.3721 67.1599 41.1402 67.4143 41.6522C67.6684 42.4201 67.6676 43.1877 67.412 43.955C66.9012 44.978 65.8812 45.4887 64.8617 45.4877ZM64.1006 41.9048C63.8457 41.9045 63.5908 41.9043 63.3357 42.1599C63.0805 42.4155 63.3347 43.1834 64.0991 43.44C64.8634 43.6966 65.3732 43.6971 65.6286 43.1856C65.6288 42.9298 65.6291 42.6739 65.6291 42.6739C65.3745 42.4178 65.1198 42.1617 64.8652 41.9055C64.6103 41.9053 64.3555 41.905 64.1006 41.9048Z" fill="#390028"/>
<path d="M40.3598 81.0292C36.0266 81.2808 32.4549 84.6035 31.1765 88.6962C36.7811 91.5163 43.1498 94.8489 49.264 97.9253C50.7953 95.8799 51.5625 93.322 51.3101 90.7631C51.0611 84.8779 46.2224 80.7792 40.3598 81.0292Z" fill="#FF5E4D"/>
<path d="M40.8613 83.8437C37.5476 84.0963 34.7413 86.6522 33.7188 89.7216C38.0495 92.0287 42.89 94.3363 47.7302 96.8997C49.0061 95.3658 49.5179 93.3194 49.265 91.2722C49.0147 86.6663 45.1945 83.5921 40.8613 83.8437Z" fill="#F94A3D"/>
<path d="M40.1776 261.926L16.4837 251.668C13.1717 250.129 11.6462 246.29 12.924 242.965L19.8215 227.108L56.5088 243.008L49.8666 258.353C48.3338 261.934 43.9993 263.465 40.1776 261.926Z" fill="#390028"/>
<path d="M40.6268 228.758C30.5483 224.384 21.2008 223.573 19.7484 226.945C18.2961 230.318 25.289 236.597 35.3675 240.971C45.446 245.345 54.7935 246.156 56.2459 242.784C57.6982 239.411 50.7053 233.132 40.6268 228.758Z" fill="#F8F8EE"/>
<path d="M39.0531 232.47C36.0813 231.181 33.3098 230.977 32.863 232.014C32.4161 233.052 34.463 234.939 37.4349 236.228C40.4067 237.518 43.1782 237.722 43.625 236.685C44.0719 235.647 42.025 233.76 39.0531 232.47Z" fill="#F94A3D"/>
<path opacity="0.11" d="M40.4635 231.991C40.2086 231.991 40.2086 231.991 40.2088 231.735C39.9547 230.967 39.7006 230.199 39.1911 229.943C38.9365 229.686 38.4267 229.686 38.1718 229.686C37.9169 229.685 37.6618 229.941 37.6615 230.197L37.4064 230.453C37.1515 230.452 37.1518 230.196 37.1518 230.196C37.152 229.941 37.1523 229.685 36.8976 229.429C36.8979 229.173 36.643 229.172 36.3881 229.172C36.1333 229.172 36.133 229.428 35.8779 229.683C35.6225 230.195 35.3671 230.706 35.3668 230.962C35.3666 231.218 35.1117 231.218 34.8568 231.218C34.6019 231.217 34.6022 230.961 34.6025 230.706C34.8578 230.194 35.1132 229.683 35.3686 229.171C35.6237 228.916 35.8789 228.66 36.3889 228.405C36.8987 228.405 37.1533 228.661 37.4079 228.917C37.4077 229.173 37.6626 229.173 37.6623 229.429C37.9172 229.43 37.9174 229.174 38.1723 229.174C38.6821 229.174 39.1919 229.175 39.7014 229.431C40.4655 229.944 40.7194 230.968 40.9735 231.735C40.9735 231.735 40.7183 231.991 40.4635 231.991Z" fill="#390028"/>
<g opacity="0.11">
<path opacity="0.11" d="M29.7592 228.397L29.5045 228.397C29.2499 228.141 28.9954 227.885 29.2504 227.629C29.5055 227.374 29.7605 227.118 30.015 227.374C30.2698 227.375 30.2696 227.63 30.2696 227.63C30.2693 227.886 30.2693 227.886 30.2691 228.142C30.5238 228.142 30.2688 228.398 29.7592 228.397C30.014 228.397 30.014 228.397 29.7592 228.397Z" fill="#390028"/>
<path opacity="0.11" d="M24.9163 228.647L24.6615 228.646C24.4067 228.646 24.407 228.39 24.407 228.39C24.4072 228.135 24.4072 228.135 24.4075 227.879C24.4077 227.623 24.6625 227.623 24.6625 227.623C24.9173 227.624 24.9173 227.624 25.172 227.624C25.4268 227.624 25.4266 227.88 25.4266 227.88C25.4263 228.136 25.4263 228.136 25.4261 228.391C25.4261 228.391 25.171 228.647 24.9163 228.647Z" fill="#390028"/>
<path opacity="0.11" d="M28.2282 231.464C27.9736 231.464 27.9736 231.464 27.719 231.464C27.2101 231.207 26.956 230.696 27.2111 230.184C27.4662 229.673 27.9757 229.418 28.4846 229.674C28.9936 229.93 29.2477 230.442 28.9925 230.953C28.9923 231.209 28.7374 231.465 28.4828 231.464C28.4828 231.464 28.4828 231.464 28.2282 231.464ZM28.2295 230.185C27.9749 230.185 27.9749 230.185 27.9746 230.441L27.9744 230.697C27.9744 230.697 27.9741 230.952 28.2288 230.953L28.4834 230.953C28.4834 230.953 28.738 230.953 28.7382 230.697C28.7385 230.442 28.7385 230.442 28.2295 230.185C28.4841 230.185 28.4841 230.185 28.2295 230.185Z" fill="#390028"/>
</g>
<g opacity="0.11">
<path opacity="0.11" d="M50.3918 239.677L50.1371 239.677C49.8823 239.677 49.8825 239.421 49.8825 239.421C49.8828 239.165 49.8828 239.165 49.883 238.91C49.8833 238.654 50.1381 238.654 50.1381 238.654C50.3929 238.654 50.3929 238.654 50.6476 238.655C50.9024 238.655 50.9022 238.911 50.9022 238.911C50.9019 239.166 50.9019 239.166 50.9016 239.422C50.9014 239.678 50.9014 239.678 50.3918 239.677C50.6466 239.678 50.3918 239.677 50.3918 239.677Z" fill="#390028"/>
<path opacity="0.11" d="M45.2956 239.928L45.0409 239.928C44.7861 239.928 44.7863 239.672 44.7863 239.672C44.7866 239.416 44.7866 239.416 44.7869 239.161C44.7871 238.905 45.0419 238.905 45.0419 238.905C45.2967 238.905 45.2967 238.905 45.5514 238.906C45.806 239.162 46.0605 239.418 45.8055 239.673C45.8052 239.929 45.5504 239.929 45.2956 239.928Z" fill="#390028"/>
<path opacity="0.11" d="M48.8568 243.002C48.6022 243.002 48.6021 243.002 48.3475 243.001C47.8386 242.745 47.5845 242.233 47.8396 241.722C47.8399 241.466 48.0947 241.211 48.3493 241.211C48.6039 241.211 48.8585 241.212 49.1131 241.212C49.3677 241.212 49.6221 241.468 49.6218 241.724C49.6216 241.98 49.6213 242.235 49.6211 242.491C49.6208 242.747 49.1114 243.002 48.8568 243.002ZM48.8583 241.467C48.6037 241.467 48.6037 241.467 48.6034 241.723C48.6032 241.979 48.6029 242.234 48.8575 242.235C49.1121 242.235 49.3667 242.235 49.367 241.979L49.3672 241.724C49.1126 241.723 49.1126 241.723 48.8583 241.467Z" fill="#390028"/>
</g>
<path d="M341.355 96.1667L260.587 66.1502C258.549 65.3806 257.531 63.3326 258.298 61.2864C259.064 59.2402 261.104 58.2188 263.143 58.9884L343.911 89.005C345.949 89.7746 346.967 91.8225 346.2 93.8687C345.688 95.9151 343.393 96.9363 341.355 96.1667Z" fill="#470B1B"/>
<path d="M342.896 88.4919L326.335 82.3346C326.08 82.3344 325.571 82.078 325.316 82.3336L318.178 83.6059C317.668 83.6054 316.903 83.6046 316.394 83.0924L310.538 76.6899C310.283 76.4338 310.029 76.4335 309.774 76.1774L264.421 59.5011C263.657 59.2444 263.148 58.4763 263.403 57.9648L264.937 54.1283C265.192 53.6169 265.957 53.3618 266.721 53.6184L344.941 82.6089C345.706 82.8656 346.215 83.6337 345.959 84.1452L344.426 87.9817C344.426 88.4934 343.661 88.7485 342.896 88.4919Z" fill="#FFD98B"/>
<path d="M336.514 99.9999L261.606 72.292C260.586 72.0351 260.078 70.7553 260.589 69.7323L261.355 67.942C261.611 66.9188 262.886 66.4083 263.905 66.921L338.813 94.629C339.832 94.8858 340.341 96.1657 339.83 97.1886L339.063 98.979C338.553 99.7461 337.533 100.257 336.514 99.9999Z" fill="#F94A3D"/>
<path opacity="0.74" d="M338.809 96.6757L261.863 68.1982C261.353 67.9418 261.099 67.4298 261.354 67.1742C261.609 66.6627 262.119 66.4074 262.374 66.6635L339.32 95.141C339.83 95.3974 340.084 95.9094 339.829 96.165C339.829 96.6768 339.319 96.6762 338.809 96.6757Z" fill="#EC6565"/>
<path d="M321.462 111.244L265.918 90.7191C259.039 88.1536 254.967 82.0088 256.756 76.8932L259.056 70.4988L339.569 100.515L337.269 106.909C335.48 111.769 328.596 113.809 321.462 111.244Z" fill="#FFAC79"/>
<path opacity="0.25" d="M339.824 100.515L335.748 98.976C333.195 103.067 326.821 104.596 320.452 102.287L273.825 84.842C267.456 82.5328 263.383 77.1556 264.407 72.2951L259.566 70.4993L257.266 76.8937C255.477 82.0093 259.549 88.1541 266.428 90.7196L321.972 111.244C328.851 113.81 335.99 111.77 337.779 106.654L339.824 100.515Z" fill="#F97762"/>
<path d="M348.252 84.4038L262.643 52.5914C268.777 35.9661 288.156 27.5417 305.991 34.2119L327.394 42.165C344.974 48.835 354.386 67.7785 348.252 84.4038Z" fill="#FFB6AF"/>
<path opacity="0.08" d="M348.252 84.4038L262.643 52.5914C268.777 35.9661 288.156 27.5417 305.991 34.2119L327.394 42.165C344.974 48.835 354.386 67.7785 348.252 84.4038Z" fill="#FFF6F7"/>
<path d="M348.252 84.4038L262.643 52.5914C268.777 35.9661 288.156 27.5417 305.991 34.2119L327.394 42.165C344.974 48.835 354.386 67.7785 348.252 84.4038Z" fill="#FFAC79"/>
<path opacity="0.25" d="M339.111 49.3408C339.111 49.5967 339.111 49.5967 339.111 49.3408C345.729 58.5586 336.542 70.5753 326.095 66.7269L287.622 52.6161C279.978 49.794 278.969 39.3024 286.11 35.2156C288.66 33.6829 291.465 32.6622 294.269 32.1533C280.506 31.8838 267.499 39.8028 262.898 52.8475L348.507 84.6599C352.852 72.1267 348.788 58.3058 339.111 49.3408Z" fill="#F97762"/>
<path d="M313.371 46.7565C312.862 46.756 312.352 46.7555 311.842 46.4992C311.333 46.2429 309.549 45.7296 309.805 44.7068C310.061 43.684 312.1 44.1976 312.609 44.1981C313.119 44.4543 314.903 44.9676 314.647 45.9904C314.646 46.502 314.391 46.7575 313.371 46.7565Z" fill="#F8F8EE"/>
<path d="M325.341 55.2115C324.831 55.211 324.321 55.2105 323.812 54.9542C323.302 54.698 321.519 54.1847 321.775 53.1619C321.775 52.9061 322.285 52.3951 323.05 52.3958C323.559 52.3963 324.069 52.3968 324.579 52.6531C325.088 52.9094 326.872 53.4227 326.616 54.4455C326.616 54.957 326.105 55.2123 325.341 55.2115Z" fill="#F8F8EE"/>
<path d="M324.584 47.024C324.074 47.0235 323.31 46.767 323.055 46.7667C322.546 46.5104 320.762 45.9972 321.018 44.9743C321.018 44.7186 321.273 44.7188 321.528 44.4633C322.293 44.2083 323.567 44.4653 323.822 44.4656C324.332 44.7219 326.115 45.2352 325.859 46.258C325.604 47.025 325.094 47.0245 324.584 47.024Z" fill="#F8F8EE"/>
<path d="M300.115 45.9752C299.605 45.9747 299.096 45.9742 298.586 45.7179C298.077 45.4616 296.293 44.9483 296.549 43.9255C296.549 43.6697 297.059 43.1587 297.824 43.1595C298.334 43.16 298.844 43.1605 299.353 43.4167C299.863 43.673 301.646 44.1863 301.39 45.2091C301.39 45.7207 300.88 45.9759 300.115 45.9752Z" fill="#F8F8EE"/>
<path d="M303.437 39.0704C302.927 39.0699 302.418 39.0694 301.908 38.8131C301.399 38.5568 299.615 38.0435 299.871 37.0207C299.871 36.765 300.126 36.7652 300.381 36.5097C301.146 36.2547 302.42 36.5117 302.675 36.512C303.185 36.7683 304.968 37.2815 304.712 38.3044C304.712 38.8159 304.457 39.0714 303.437 39.0704Z" fill="#F8F8EE"/>
<path d="M343.584 167.045L312.732 178.528C309.672 179.548 306.36 178.01 305.089 174.938L302.801 168.795C301.785 165.724 303.317 162.399 306.377 161.123L337.229 149.639C340.289 148.619 343.601 150.157 344.872 153.229L347.16 159.372C348.176 162.443 346.644 165.768 343.584 167.045Z" fill="white"/>
<path opacity="0.11" d="M312.737 171.876C312.482 171.876 312.482 171.876 312.737 171.876C311.973 171.619 311.463 171.107 310.954 170.339C310.7 170.083 310.7 169.571 310.956 169.06C310.956 168.804 311.211 168.548 311.466 168.549C311.721 168.549 311.976 168.549 311.976 168.549L311.976 168.293C312.232 167.526 312.742 167.271 313.506 167.271C314.016 167.272 314.271 167.528 314.526 167.528C314.78 167.784 315.035 167.785 315.29 167.785C315.545 167.785 315.545 168.041 315.545 168.041C315.544 168.297 315.289 168.296 315.289 168.296C314.78 168.296 314.525 168.04 314.27 168.04C314.016 167.783 313.761 167.783 313.506 167.783C313.251 167.783 312.741 168.038 312.741 168.294C312.74 168.55 312.74 168.806 312.995 169.062C312.995 169.318 312.995 169.318 312.994 169.574C312.994 169.574 312.739 169.573 312.485 169.573C312.23 169.317 311.975 169.061 311.72 169.061C311.72 169.061 311.466 169.06 311.465 169.316C311.465 169.572 311.465 169.828 311.465 169.828C311.719 170.34 312.229 170.596 312.738 170.853C312.993 170.853 312.993 171.109 312.993 171.365C312.992 171.876 312.737 171.876 312.737 171.876Z" fill="#390028"/>
<path opacity="0.11" d="M311.201 175.457C310.692 175.2 310.183 174.944 309.929 174.432C309.675 174.176 309.675 173.921 309.675 173.665C309.676 173.153 310.185 172.898 310.694 172.898C311.204 172.899 311.458 173.155 311.712 173.411C311.967 173.411 311.967 173.667 311.712 173.923C311.712 174.178 311.457 174.178 311.203 173.922C310.948 173.666 310.694 173.666 310.439 173.666C310.184 173.665 310.184 173.665 310.184 173.921C310.184 173.921 310.184 174.177 310.184 174.433C310.438 174.689 310.692 174.945 310.947 175.201C311.201 175.201 311.201 175.457 311.201 175.712C311.456 175.457 311.456 175.457 311.201 175.457Z" fill="#390028"/>
<path opacity="0.11" d="M322.684 164.976C322.429 164.976 322.684 164.976 322.684 164.976C322.174 164.72 321.92 164.208 321.92 163.697C321.921 163.185 322.431 162.93 322.941 162.675C323.196 162.675 323.451 162.675 323.961 162.932C324.471 163.188 324.725 163.444 324.98 163.956C324.979 164.211 324.979 164.211 324.979 164.467C324.724 164.467 324.724 164.467 324.469 164.467C324.215 164.211 323.96 163.955 323.705 163.699C323.45 163.443 323.195 163.442 323.195 163.442C322.94 163.442 322.94 163.698 322.685 163.953C322.685 164.209 322.684 164.465 322.939 164.465C323.194 164.465 323.194 164.721 322.939 164.977L322.684 164.976Z" fill="#390028"/>
<path opacity="0.11" d="M324.716 170.353C324.716 170.353 324.461 170.352 324.462 170.096C324.207 169.584 323.953 169.072 323.698 168.56C323.444 168.049 323.699 167.793 323.699 167.537C323.955 167.281 323.955 167.281 324.209 167.282C324.464 167.282 324.719 167.282 324.719 167.282C324.72 167.026 324.72 166.515 324.975 166.259C325.485 165.748 325.995 165.748 326.76 166.005C327.014 166.005 327.269 166.005 327.269 166.261C327.524 166.261 327.779 166.518 328.033 166.518C328.288 166.518 328.288 166.774 328.288 166.774C328.288 167.03 328.033 167.03 328.033 167.03C327.778 167.029 327.269 166.773 327.014 166.773C326.759 166.772 326.759 166.772 326.504 166.516C326.249 166.516 325.74 166.26 325.23 166.771C325.23 166.771 324.974 167.027 324.974 167.282L324.974 167.538C325.229 167.539 325.229 167.794 325.228 168.05C325.228 168.306 324.973 168.306 324.718 168.306C324.718 168.306 324.718 168.306 324.463 168.305C324.209 168.049 323.699 168.049 323.444 168.048C323.444 168.048 323.444 168.048 323.444 168.304C323.698 168.816 323.953 169.328 324.207 169.584C324.971 170.097 324.971 170.353 324.716 170.353Z" fill="#390028"/>
<path opacity="0.11" d="M334.919 161.664C334.919 161.664 334.664 161.663 334.664 161.408C334.41 160.896 334.156 160.384 334.156 159.872C334.156 159.616 334.157 159.104 334.412 158.849C334.667 158.593 335.177 158.338 335.687 158.594C335.942 158.594 335.942 158.594 336.196 158.85C336.196 158.595 336.196 158.595 336.452 158.339C336.707 157.827 337.217 157.572 337.727 157.573C338.746 157.318 339.511 157.83 340.02 158.342C340.275 158.343 340.275 158.599 340.019 158.854C340.019 159.11 339.764 159.11 339.51 158.854C339 158.597 338.236 158.085 337.471 158.34C337.216 158.34 336.706 158.595 336.706 158.851C336.706 159.107 336.451 159.362 336.45 159.618C336.45 159.874 336.45 159.874 336.195 159.874L335.94 159.874C335.686 159.617 335.431 159.617 335.176 159.361C334.921 159.361 334.666 159.361 334.666 159.361C334.666 159.361 334.666 159.616 334.666 159.872C334.665 160.384 334.92 160.896 335.174 161.152C335.174 161.408 335.174 161.664 334.919 161.664Z" fill="#390028"/>
<path opacity="0.11" d="M339.507 164.483C339.252 164.227 339.252 164.482 339.507 164.483C338.998 163.97 338.743 163.459 338.489 162.947C338.234 162.435 338.49 161.924 338.745 161.668C339 161.669 339.255 161.669 339.255 161.669C340.02 161.67 340.529 162.182 341.294 162.438C341.549 162.438 341.549 162.694 341.293 162.95C341.293 163.205 341.038 163.205 340.784 162.949C340.274 162.693 339.764 162.437 339.255 162.18L339 162.18C339 162.18 338.999 162.436 338.999 162.692C338.999 163.203 339.253 163.459 339.508 163.715C339.763 163.971 339.762 164.227 339.507 164.483C339.507 164.483 339.507 164.227 339.507 164.483Z" fill="#390028"/>
<path d="M342.577 153.226L304.586 167.261C301.526 168.282 298.214 166.743 296.943 163.672L295.672 160.344C294.655 157.273 296.188 153.948 299.248 152.672L337.239 138.637C340.299 137.616 343.611 139.155 344.882 142.226L346.153 145.554C347.17 148.625 345.637 151.95 342.577 153.226Z" fill="#390028"/>
<path opacity="0.3" d="M299.813 152.408L305.078 166.822L308.668 165.5L303.403 151.086L299.813 152.408Z" fill="#F94A3D"/>
<path opacity="0.3" d="M310.37 148.729L315.635 163.143L319.225 161.821L313.96 147.407L310.37 148.729Z" fill="#F94A3D"/>
<path opacity="0.3" d="M321.642 144.587L326.907 159.001L330.498 157.679L325.233 143.266L321.642 144.587Z" fill="#F94A3D"/>
<path opacity="0.3" d="M332.611 140.582L337.876 154.996L341.467 153.674L336.202 139.26L332.611 140.582Z" fill="#F94A3D"/>
<path d="M344.535 232.035L317.795 208.725C316.522 207.7 314.738 207.698 313.717 208.977C312.696 210.255 312.694 212.046 313.968 213.071L340.707 236.381C341.981 237.406 343.765 237.408 344.786 236.13C345.806 235.107 345.808 233.06 344.535 232.035Z" fill="#470B1B"/>
<path d="M295.037 284.437L273.391 265.738C271.863 264.457 271.865 262.154 272.886 260.62L308.362 213.319C309.638 211.529 312.187 211.276 313.97 212.557L341.728 236.636C343.256 238.173 343.253 240.732 341.723 242.265L300.136 283.931C298.86 285.465 296.565 285.718 295.037 284.437Z" fill="white"/>
<path d="M298.407 226.872L284.626 245.28L313.657 270.64L329.731 254.28L298.407 226.872Z" fill="#FF7664"/>
<path d="M339.426 244.312L306.829 215.878C305.556 214.853 305.558 212.806 306.578 211.528L308.875 208.972C309.896 207.693 311.935 207.695 313.208 208.72L345.805 237.154C347.078 238.179 347.076 240.225 346.055 241.504L343.759 244.06C342.484 245.082 340.699 245.337 339.426 244.312Z" fill="#FF7664"/>
<path d="M301.771 254.417C304.743 257.015 309.401 256.53 312.175 253.333C314.948 250.136 314.787 245.437 311.814 242.839C308.842 240.24 304.184 240.726 301.41 243.923C298.637 247.12 298.798 251.818 301.771 254.417Z" fill="#F94A3D"/>
<path d="M10.2532 121.121C11.3797 121.122 12.2938 120.207 12.2949 119.076C12.296 117.946 11.3837 117.029 10.2572 117.027C9.13073 117.026 8.21662 117.942 8.2155 119.072C8.21438 120.203 9.12667 121.12 10.2532 121.121Z" fill="#F9B361"/>
<path d="M76.1133 4.56027C77.2398 4.56139 78.1539 3.64584 78.155 2.51534C78.1562 1.38485 77.2439 0.467492 76.1174 0.466376C74.9909 0.46526 74.0767 1.38081 74.0756 2.5113C74.0745 3.6418 74.9868 4.55916 76.1133 4.56027Z" fill="#F9B361"/>
<path d="M21.5393 291.844C22.6658 291.846 23.5799 290.93 23.5811 289.8C23.5822 288.669 22.6699 287.752 21.5434 287.751C20.4169 287.749 19.5028 288.665 19.5016 289.796C19.5005 290.926 20.4128 291.843 21.5393 291.844Z" fill="#F9B361"/>
<path d="M280.748 297.987C281.874 297.988 282.788 297.073 282.79 295.942C282.791 294.812 281.878 293.894 280.752 293.893C279.625 293.892 278.711 294.808 278.71 295.938C278.709 297.069 279.621 297.986 280.748 297.987Z" fill="#F9B361"/>
<path d="M363.239 291.471C364.365 291.473 365.279 290.557 365.28 289.426C365.281 288.296 364.369 287.379 363.243 287.378C362.116 287.376 361.202 288.292 361.201 289.422C361.2 290.553 362.112 291.47 363.239 291.471Z" fill="#F9B361"/>
<path d="M257.327 12.1589C258.454 12.16 259.368 11.2445 259.369 10.114C259.37 8.98348 258.458 8.06613 257.331 8.06501C256.205 8.06389 255.291 8.97944 255.29 10.1099C255.289 11.2404 256.201 12.1578 257.327 12.1589Z" fill="#F9B361"/>
<path d="M9.36379 9.12033C10.4903 9.12145 11.4044 8.2059 11.4055 7.0754C11.4067 5.94491 10.4943 5.02755 9.36784 5.02643C8.24134 5.02532 7.32722 5.94087 7.3261 7.07136C7.32498 8.20186 8.23729 9.11921 9.36379 9.12033Z" fill="#F9B361"/>
<path d="M359.86 198.789C360.987 198.79 361.901 197.874 361.902 196.744C361.903 195.613 360.991 194.696 359.864 194.695C358.738 194.694 357.824 195.609 357.822 196.74C357.821 197.87 358.734 198.788 359.86 198.789Z" fill="#F9B361"/>
<path d="M293.917 123.497C294.48 123.497 294.936 123.04 294.937 122.475C294.937 121.91 294.482 121.451 293.919 121.451C293.357 121.45 292.9 121.908 292.9 122.473C292.899 123.038 293.355 123.496 293.917 123.497Z" fill="#F9B361"/>
<path d="M368.363 147.428C368.925 147.429 369.381 146.971 369.382 146.406C369.383 145.841 368.927 145.383 368.365 145.382C367.802 145.382 367.346 145.839 367.345 146.404C367.345 146.969 367.8 147.428 368.363 147.428Z" fill="#F9B361"/>
<path d="M372.204 88.011C373.33 88.0121 374.245 87.0965 374.246 85.966C374.247 84.8355 373.334 83.9182 372.208 83.9171C371.081 83.9159 370.167 84.8315 370.166 85.962C370.165 87.0925 371.077 88.0098 372.204 88.011Z" fill="#F9B361"/>
<path d="M90.2477 146.324C91.0926 146.324 91.7781 145.638 91.779 144.791C91.7798 143.943 91.0956 143.255 90.2507 143.254C89.4059 143.254 88.7203 143.94 88.7194 144.788C88.7186 145.635 89.4028 146.323 90.2477 146.324Z" fill="#F9B361"/>
<path d="M6.08069 200.739C6.92557 200.74 7.61115 200.054 7.61199 199.206C7.61283 198.359 6.92861 197.671 6.08373 197.67C5.23886 197.669 4.55327 198.355 4.55243 199.203C4.5516 200.051 5.23582 200.738 6.08069 200.739Z" fill="#F9B361"/>
<path d="M218.449 148.241C218.704 148.241 218.959 148.497 219.468 148.497C219.213 148.497 218.704 148.496 218.449 148.241Z" fill="#FFAC79"/>
<path d="M238.316 163.357C238.57 163.613 238.57 163.613 238.825 163.868C238.825 163.613 238.57 163.613 238.316 163.357Z" fill="#FFAC79"/>
<path d="M233.225 158.234L233.48 158.49C233.48 158.235 233.225 158.234 233.225 158.234Z" fill="#FFAC79"/>
<path d="M244.171 170.271C244.425 170.527 244.425 170.782 244.68 171.038C244.68 170.783 244.425 170.527 244.171 170.271Z" fill="#FFAC79"/>
<path d="M236.787 161.564C237.041 161.82 237.041 161.82 237.296 162.076C237.041 161.82 236.786 161.82 236.787 161.564Z" fill="#FFAC79"/>
<path d="M242.39 167.967L242.645 168.222C242.645 168.222 242.646 167.967 242.39 167.967Z" fill="#FFAC79"/>
<path d="M254.862 185.122C255.116 185.378 255.371 185.89 255.625 186.146C255.116 185.89 255.116 185.378 254.862 185.122Z" fill="#FFAC79"/>
<path d="M256.896 188.706C257.151 188.962 257.405 189.473 257.66 189.729C257.406 189.218 257.151 188.962 256.896 188.706Z" fill="#FFAC79"/>
<path d="M252.827 181.793C253.082 182.049 253.336 182.561 253.59 182.817C253.081 182.561 252.827 182.305 252.827 181.793Z" fill="#FFAC79"/>
<path d="M246.21 172.576C246.465 172.832 246.719 173.088 246.719 173.343C246.719 173.088 246.465 172.832 246.21 172.576Z" fill="#FFAC79"/>
<path d="M248.244 175.393C248.498 175.649 248.498 175.905 248.752 176.161C248.498 175.905 248.498 175.649 248.244 175.393Z" fill="#FFAC79"/>
<path d="M250.79 178.978C250.79 178.978 250.79 179.233 251.045 179.234C250.79 179.233 250.79 178.978 250.79 178.978Z" fill="#FFAC79"/>
<path d="M240.354 165.406C240.609 165.661 240.609 165.661 240.608 165.917C240.609 165.661 240.353 165.661 240.354 165.406Z" fill="#FFAC79"/>
<path d="M225.837 152.085C226.092 152.086 226.091 152.341 226.346 152.341C226.091 152.341 225.837 152.341 225.837 152.085Z" fill="#FFAC79"/>
<path d="M223.542 150.805C223.542 150.805 223.798 150.805 223.798 151.06C223.798 150.805 223.542 150.805 223.542 150.805Z" fill="#FFAC79"/>
<path d="M224.564 151.317L224.819 151.573C224.819 151.573 224.819 151.573 224.564 151.317Z" fill="#FFAC79"/>
<path d="M222.273 150.035C222.273 150.035 222.528 150.035 222.528 150.29C222.528 150.035 222.273 150.035 222.273 150.035Z" fill="#FFAC79"/>
<path d="M221.253 149.523C221.507 149.523 221.507 149.779 221.762 149.779C221.507 149.523 221.253 149.523 221.253 149.523Z" fill="#FFAC79"/>
<path d="M219.723 148.752C219.978 148.753 219.978 148.753 220.233 149.008C219.978 148.753 219.723 148.752 219.723 148.752Z" fill="#FFAC79"/>
<path d="M220.486 149.01C220.741 149.01 220.741 149.01 220.995 149.266C220.741 149.265 220.486 149.265 220.486 149.01Z" fill="#FFAC79"/>
<path d="M227.111 153.111C227.366 153.112 227.366 153.367 227.111 153.111C227.366 153.112 227.366 153.367 227.111 153.111Z" fill="#FFAC79"/>
<path d="M232.946 181.518L243.114 208.394C251.022 202.261 259.697 193.058 259.697 193.058C258.934 191.778 258.17 190.754 257.661 189.474C257.407 189.218 257.152 188.706 256.898 188.45C256.389 187.682 255.88 186.914 255.371 186.146C255.116 185.89 254.862 185.378 254.607 185.122C254.098 184.353 253.589 183.585 253.08 182.817C252.826 182.561 252.571 182.049 252.317 181.793C251.808 180.769 251.044 180.001 250.535 178.977C250.535 178.977 250.535 178.721 250.28 178.721C249.517 177.696 249.008 176.928 248.244 175.904C247.99 175.648 247.99 175.392 247.735 175.136C247.226 174.368 246.717 173.856 246.208 173.343C245.953 173.087 245.698 172.831 245.699 172.575C245.189 172.063 244.68 171.295 244.426 170.783C244.171 170.527 244.172 170.271 243.917 170.015C243.408 169.247 242.899 168.734 242.39 167.966L242.135 167.71C241.626 166.942 240.862 166.174 240.353 165.661C240.098 165.405 240.098 165.405 240.099 165.149C239.589 164.637 239.08 164.125 238.826 163.613C238.571 163.357 238.571 163.357 238.317 163.101C237.807 162.589 237.553 162.332 237.043 161.82C236.789 161.564 236.789 161.564 236.534 161.308C236.025 160.796 235.516 160.283 235.261 160.027L235.006 159.771C234.497 159.259 233.988 158.747 233.479 158.235L233.224 157.978C232.715 157.466 232.46 157.21 231.951 156.954C231.696 156.953 231.696 156.698 231.441 156.697C231.186 156.441 230.677 156.185 230.423 155.673C230.168 155.673 230.168 155.417 229.913 155.416C229.658 155.16 229.149 154.904 228.895 154.392L228.64 154.136C228.13 153.879 227.876 153.367 227.366 153.111C227.366 153.111 227.112 153.111 227.112 152.855C226.857 152.599 226.348 152.342 226.093 152.086C225.838 152.086 225.838 151.83 225.584 151.83C225.329 151.574 225.074 151.574 224.819 151.317C224.565 151.317 224.565 151.061 224.565 151.061C224.31 150.805 224.055 150.805 223.801 150.549L223.546 150.293C223.291 150.037 222.782 149.78 222.527 149.78C222.527 149.78 222.272 149.78 222.272 149.524C222.017 149.524 221.763 149.268 221.508 149.267C221.253 149.267 221.253 149.011 220.998 149.011C220.744 149.011 220.744 148.755 220.489 148.754C220.234 148.754 220.234 148.498 219.979 148.498C219.979 148.498 219.725 148.498 219.725 148.242C219.47 148.242 219.47 148.242 219.215 147.986C219.215 147.986 219.215 147.986 218.96 147.985C218.706 147.729 218.196 147.729 217.941 147.729C227.875 153.879 232.963 164.375 232.946 181.518Z" fill="#E16504"/>
<path d="M249.214 224.776L243.113 208.395L232.945 181.519C232.95 176.145 232.445 171.539 231.429 167.444C229.399 158.487 224.817 152.342 218.449 148.497C211.571 144.397 202.142 142.596 190.163 142.84L129.5 143.292C122.618 143.285 116.499 145.582 111.398 149.415C106.806 152.736 103.233 157.594 100.934 162.965L66.4669 221.525C64.1691 225.361 66.2034 230.224 70.5354 231.252L96.0167 238.186L99.2361 333.116L234.069 333.249L238.723 265.961L242.297 260.591L246.381 254.454C251.488 245.504 252.773 234.503 249.214 224.776Z" fill="#FF7000"/>
<path opacity="0.27" d="M137.591 210.593L139.837 258.955L125.066 246.914L137.591 210.593Z" fill="#353535"/>
<path d="M254.42 119.621C252.896 114.502 249.586 110.405 246.277 106.308C249.343 99.1467 249.608 88.6564 241.971 78.9259L232.55 69.1935C232.552 66.8907 232.555 64.3321 232.302 62.029C232.05 59.2142 231.543 56.3991 230.781 53.5838L229.262 43.6035C225.97 21.8515 210.437 6.9958 183.67 11.0632L180.612 11.316C177.808 10.8015 175.26 10.2872 172.456 10.2844C166.085 10.0223 159.201 11.2948 153.846 14.6157C150.02 16.9148 146.958 20.238 144.151 23.8174C139.571 16.1368 131.42 11.0114 121.989 11.0021C107.715 10.9879 96.2344 22.4906 96.2202 36.8191C96.2078 49.3566 105.118 59.8561 117.095 62.1707C112.249 66.004 107.657 69.8374 104.848 75.2078C101.273 82.1127 100.245 90.2995 102.787 97.7222C104.566 103.097 108.129 108.218 106.849 113.846C106.081 116.915 103.785 119.472 102.253 122.029C100.466 124.586 99.1885 127.911 100.205 130.982C101.731 134.822 106.572 136.106 110.65 136.366C116.767 136.884 123.139 136.634 129.511 136.385C150.412 135.638 171.313 134.891 192.215 133.888C197.816 139.523 218.454 147.219 218.454 147.219L231.966 144.418C237.319 143.912 235.541 138.025 235.038 130.86C239.626 130.609 244.214 130.102 248.548 129.594C250.077 129.34 251.607 129.341 252.882 128.575C255.177 127.042 255.181 122.948 254.42 119.621Z" fill="#390028"/>
<path d="M218.541 57.9214C216.501 58.1752 214.463 57.4056 213.19 56.125L208.607 51.5148C206.822 51.7689 208.599 59.4468 206.814 59.7009C194.324 60.4561 182.603 57.374 173.688 51.7361C172.911 63.7611 167.294 73.2227 159.392 74.4942L149.704 76.2757L144.351 76.7821C136.959 77.5424 131.6 84.4455 132.612 91.6108C133.369 99.0317 140.246 104.412 147.383 103.395L147.638 103.396L147.59 152.522C147.579 163.78 156.745 172.745 167.705 172.756L176.371 172.764C187.586 172.775 196.516 163.573 196.527 152.571L196.543 136.451C213.113 133.909 224.853 118.568 223.085 101.679L218.541 57.9214Z" fill="#FFAC79"/>
<path opacity="0.32" d="M197.823 131.848L190.686 132.609C173.607 134.639 158.072 122.086 156.049 104.941L155.797 102.126L152.993 102.379L153.751 109.288C154.509 116.453 157.561 122.597 162.144 127.463C160.861 136.673 166.969 145.634 176.143 147.179C184.553 148.722 192.714 143.869 195.525 136.196C208.271 134.673 218.22 125.983 221.8 114.473C217.457 123.936 208.53 130.579 197.823 131.848Z" fill="#FF755F"/>
<path d="M142.039 94.691C141.529 94.6905 141.275 94.4344 141.02 94.1782C140.511 93.666 140.766 92.8986 141.277 92.3874L145.102 89.8325L140.774 84.9667C140.265 84.4545 140.266 83.6869 140.776 83.1757C141.286 82.6645 142.051 82.6652 142.56 83.1775L147.907 89.0677C148.161 89.3238 148.161 89.8356 148.161 90.0914C148.16 90.3473 147.905 90.8588 147.65 91.1144L142.549 94.4356C142.549 94.4356 142.294 94.6912 142.039 94.691Z" fill="#FF755F"/>
<path d="M195.788 128.518C195.534 128.517 195.024 128.517 194.769 128.261C191.968 125.443 188.144 126.975 188.143 127.231C187.378 127.486 186.869 127.229 186.36 126.717C186.105 126.205 186.361 125.438 186.871 124.927C187.126 124.927 192.481 122.373 196.555 126.471C197.064 126.984 197.064 127.751 196.553 128.262C196.299 128.262 196.043 128.518 195.788 128.518Z" fill="#FF755F"/>
<path d="M196.076 96.5346C195.566 96.5341 195.057 96.0218 195.057 95.5101C195.058 94.9984 195.313 94.4869 195.823 94.4874L199.646 94.2353C201.686 93.9815 203.725 93.2159 205.256 91.938C206.532 90.66 207.298 88.8697 207.3 87.0786C207.3 86.5669 207.046 86.3107 206.791 86.3105C206.281 86.0541 205.772 85.7977 205.262 85.7972C202.713 86.0506 200.166 84.257 199.913 81.9539L198.65 71.2062C198.65 70.6945 198.905 70.183 199.415 70.1835C199.925 70.184 200.435 70.4404 200.434 70.9521L201.698 81.6998C201.951 82.9794 203.225 84.0041 205.009 84.0059C206.029 84.0069 207.048 84.2638 207.812 85.0321C208.576 85.5446 208.83 86.3125 208.829 87.0801C209.082 89.3832 208.06 91.6849 206.274 93.2184C204.488 95.0077 202.193 96.0289 199.645 96.0264L196.076 96.5346Z" fill="#FF755F"/>
<path d="M186.165 63.7749C185.146 63.518 183.871 64.0285 182.851 64.2833C181.577 64.538 180.557 64.7928 179.537 65.0477C178.517 65.3025 177.243 65.5571 176.223 65.5561C174.948 65.8107 173.929 65.8097 172.909 66.5763C172.143 67.0873 171.887 68.3664 173.161 69.3911C174.434 70.4158 177.237 71.4421 180.551 70.6778C183.865 69.9134 186.161 68.1247 186.927 66.5902C187.693 65.0558 186.93 64.0315 186.165 63.7749Z" fill="#390028"/>
<path d="M209.101 66.8668C209.866 66.3559 210.885 66.3569 211.905 66.3579C212.925 66.3589 213.944 66.3599 214.964 66.1051C215.983 66.1061 217.003 65.8512 218.023 65.8522C219.042 65.8532 220.062 65.5984 220.826 65.855C221.591 66.1116 222.099 67.1356 221.079 68.158C220.313 69.4366 218.273 70.714 215.214 70.9668C212.155 71.2196 209.862 70.1939 209.098 69.1697C208.08 68.4011 208.336 67.3778 209.101 66.8668Z" fill="#390028"/>
<path d="M146.365 100.58C148.054 100.582 149.425 99.2087 149.427 97.513C149.428 95.8172 148.06 94.4412 146.371 94.4396C144.682 94.4379 143.311 95.8112 143.309 97.5069C143.308 99.2027 144.676 100.579 146.365 100.58Z" fill="white"/>
<path d="M196.063 107.538C191.22 107.533 187.653 106.506 185.616 104.201C183.58 101.641 184.092 98.8267 184.092 98.8267C184.093 98.315 184.603 98.0596 185.113 98.0601C185.622 98.0607 185.877 98.5726 185.876 99.0844C185.876 99.0844 185.364 101.131 186.892 102.923C188.165 104.46 191.476 106.254 199.633 105.495C200.143 105.495 200.653 105.752 200.652 106.263C200.652 106.775 200.396 107.287 199.887 107.286C198.612 107.541 197.338 107.539 196.063 107.538Z" fill="#FF755F"/>
<path d="M223.615 80.4431C223.107 77.8839 221.582 74.3003 216.739 73.7838C215.975 73.783 215.21 73.7822 214.445 73.7815C211.386 74.2902 209.344 77.1027 208.068 79.4042C207.557 80.4272 207.811 81.7068 208.574 82.731C208.831 80.4285 210.872 78.6394 213.421 78.3861C216.225 78.133 218.772 80.4383 218.769 82.997C218.769 83.2528 218.769 83.5087 218.769 83.5087C220.298 83.2544 221.318 83.2554 222.338 83.0005C223.102 82.7454 223.868 81.9785 223.614 80.9548C223.614 80.699 223.615 80.4431 223.615 80.4431Z" fill="white"/>
<path d="M213.42 78.1288C210.871 78.3822 208.83 80.1712 208.573 82.4738C209.083 82.986 209.592 83.2424 210.102 83.2429C213.16 83.7577 216.219 83.5048 218.768 83.2515C218.768 82.9956 218.768 82.7397 218.768 82.7397C218.771 80.1811 216.224 78.1316 213.42 78.1288Z" fill="#390028"/>
<path d="M194.304 82.4611C193.797 79.3902 192.018 74.5269 185.647 73.753C184.627 73.4961 183.608 73.751 182.843 73.7502C178.764 74.5138 175.957 77.5814 174.17 80.3942C172.894 82.4399 174.166 85.2557 176.459 85.5138C176.969 85.5143 177.733 85.771 178.243 85.7715C178.244 85.2597 177.989 85.0036 177.99 84.4919C177.993 81.1656 180.799 78.3538 184.623 78.1018C188.446 78.1055 191.502 80.6673 191.499 83.9935C191.498 84.5053 191.498 85.017 191.242 85.5285C191.497 85.5287 192.007 85.5292 192.262 85.2736C193.537 85.019 194.303 83.9963 194.304 82.9728C194.304 82.9728 194.304 82.717 194.304 82.4611Z" fill="white"/>
<path d="M184.623 78.3577C180.8 78.3539 177.993 81.1657 177.989 84.7478C177.989 85.2595 177.988 85.7713 178.243 86.0274C183.34 86.5442 188.438 86.2934 191.242 86.0403C191.497 85.5288 191.498 85.0171 191.499 84.5053C191.502 80.9232 188.446 78.1056 184.623 78.3577Z" fill="#390028"/>
<path d="M308.593 237.886L300.468 206.662L278.115 129.368C278.115 129.112 277.861 128.6 277.861 128.344L277.353 126.296C274.811 119.897 270.483 114.52 264.37 110.676L246.793 100.168L237.876 96.0648C235.329 94.783 228.195 91.9613 225.642 96.3086C224.108 100.657 230.223 103.222 232.515 104.503L244.999 110.656C244.999 110.656 238.882 109.883 234.291 112.693C230.976 114.736 229.443 118.573 230.204 122.412L230.457 123.691L230.967 123.436C233.773 121.392 237.088 120.371 240.656 120.631L244.479 120.891C244.479 120.891 230.971 119.854 229.435 126.505C227.899 133.156 230.957 133.415 230.957 133.415C230.957 133.415 237.843 129.328 243.448 132.404C243.448 132.404 225.354 129.827 226.617 140.575C227.375 147.228 234.763 151.073 240.369 153.126L250.004 203.541C247.963 205.586 245.667 207.375 243.372 209.164L249.473 225.545C253.031 235.272 252.001 246.273 246.385 254.711L242.301 260.848L275.428 268.557C276.447 268.814 277.467 269.071 278.486 269.328L280.524 269.841L280.525 269.585C284.602 269.845 288.681 269.082 292.761 267.295C304.236 262.189 310.875 250.17 308.593 237.886ZM244.2 145.198L243.69 145.453L241.908 143.404L244.2 145.198Z" fill="#FFAC79"/>
<path opacity="0.51" d="M242.647 166.432L262.03 155.193L240.112 153.125" fill="#FF8970"/>
<path d="M245.996 133.941C244.977 133.172 243.704 132.659 242.429 132.402C241.155 132.145 239.881 131.888 238.352 131.886C237.077 131.885 235.548 132.139 234.273 132.394C232.999 132.648 231.724 133.159 230.448 133.925C229.938 134.181 229.429 133.924 229.175 133.412C228.92 132.9 229.176 132.389 229.686 132.133C230.961 131.623 232.49 131.113 233.765 130.602C235.295 130.348 236.824 130.094 238.099 130.095C239.628 130.096 241.157 130.354 242.431 130.867C243.96 131.38 245.234 131.893 246.507 132.918C246.762 133.174 247.016 133.686 246.761 133.941C246.761 134.197 246.506 134.197 245.996 133.941Z" fill="#FF755F"/>
<path d="M245.497 121.402C244.223 120.889 242.949 120.632 241.675 120.63C240.4 120.629 238.871 120.883 237.596 121.138C236.321 121.393 235.046 121.903 233.771 122.669C232.496 123.436 231.476 124.202 230.455 124.969C229.945 125.224 229.436 125.224 229.181 124.712C228.927 124.2 228.927 123.688 229.437 123.433C230.713 122.666 231.733 121.644 233.263 121.134C234.538 120.367 236.068 120.113 237.343 119.603C238.872 119.348 240.402 119.094 241.676 119.351C243.205 119.352 244.479 119.865 246.008 120.379C246.262 120.635 246.517 120.891 246.262 121.147C246.262 121.402 245.752 121.402 245.497 121.402Z" fill="#FF755F"/>
<path opacity="0.32" d="M249.494 202.773L259.4 237.837L246.688 205.585L249.494 202.773Z" fill="#FF755F"/>
<path d="M174.745 272.806L209.66 276.167C212.974 276.426 215.78 274.126 216.038 271.056L223.761 193.28C224.019 189.954 221.728 187.137 218.67 186.878L183.754 183.517C180.441 183.258 177.635 185.558 177.377 188.628L169.654 266.404C169.14 269.73 171.432 272.547 174.745 272.806Z" fill="#390028"/>
<path opacity="0.47" d="M205.916 196.589L216.111 197.623C217.385 197.88 218.66 196.857 218.917 195.323C219.173 194.043 218.154 192.763 216.625 192.506L206.431 191.472C205.157 191.215 203.882 192.237 203.625 193.772C203.624 195.051 204.387 196.332 205.916 196.589Z" fill="#E1E2FE"/>
<path d="M216.254 193.776C215.555 193.705 214.93 194.217 214.859 194.919C214.788 195.622 215.298 196.249 215.998 196.32C216.698 196.391 217.323 195.879 217.393 195.176C217.464 194.474 216.954 193.847 216.254 193.776Z" fill="#390028"/>
<path d="M230.595 239.599C229.832 237.551 227.794 236.781 226.009 237.291L229.324 235.759C231.364 234.738 232.132 232.18 231.115 229.62C230.606 228.596 229.842 227.572 229.078 227.06C231.118 226.294 232.14 223.481 231.123 220.921C230.106 218.361 227.814 217.08 225.774 218.101L223.989 218.867C226.028 218.101 227.051 215.288 226.034 212.728C225.017 210.168 222.724 208.887 220.684 209.908L188.811 223.182C188.046 223.437 175.557 223.169 174.292 213.7L171.994 217.024C169.444 218.301 167.911 222.393 166.377 226.742C165.61 229.044 164.844 231.346 164.331 233.648L126.087 245.636L73.3407 231.511L51.3719 280.872C44.7277 298.264 54.9032 318.232 73.7574 325.415C83.1845 329.006 92.8708 328.248 100.776 324.162C103.326 323.141 105.621 321.864 107.917 320.331L174.486 274.597L174.486 274.341C193.091 276.407 220.897 251.871 224.98 247.525L229.57 245.227C230.845 244.205 231.612 241.647 230.595 239.599Z" fill="#FFAC79"/>
<path d="M208.689 226.272C208.179 226.272 207.924 226.015 207.67 225.504C207.416 224.736 207.671 223.968 208.436 223.713L224.755 217.077C225.52 216.822 226.03 217.078 226.539 217.846C226.793 218.614 226.537 219.381 225.772 219.637L209.453 226.273C209.198 226.273 208.944 226.272 208.689 226.272Z" fill="#FF755F"/>
<path d="M211.228 235.487C210.718 235.486 210.463 235.23 210.209 234.718C209.955 233.95 210.21 233.183 210.975 232.928L227.294 226.291C228.059 226.036 228.569 226.292 229.078 227.061C229.332 227.828 229.076 228.596 228.311 228.851L211.992 235.487C211.483 235.487 211.228 235.487 211.228 235.487Z" fill="#FF755F"/>
<path d="M211.217 245.465C210.708 245.464 210.453 245.208 210.199 244.696C209.945 243.928 210.2 243.161 210.71 242.905L226.775 235.501C227.54 235.246 228.304 235.503 228.559 236.015C228.813 236.783 228.557 237.55 228.047 237.805L211.982 245.209C211.472 245.465 211.217 245.72 211.217 245.465Z" fill="#FF755F"/>
<path opacity="0.28" d="M126.088 245.892L114.876 242.81L84.5294 258.9L126.088 245.892Z" fill="#FF755F"/>
</svg>
