<svg width="416" height="356" viewBox="0 0 416 356" fill="none" xmlns="http://www.w3.org/2000/svg">
<g opacity="0.61">
<g opacity="0.61">
<g opacity="0.61">
<g opacity="0.41">
<path opacity="0.41" d="M3.0017 223.415C0.225252 220.145 0.225314 215.113 2.74936 212.345C5.27341 209.578 11.5835 207.817 14.3599 211.087C17.1364 214.358 13.0979 219.138 12.3407 223.164C10.8263 228.95 5.77815 226.686 3.0017 223.415Z" fill="#FF9455"/>
</g>
<g opacity="0.41">
<path opacity="0.41" d="M412.685 175.108C416.219 178.127 416.976 183.914 414.2 187.94C411.676 191.965 404.861 195.739 401.579 192.72C398.046 189.701 402.084 183.159 402.589 178.127C403.346 170.831 409.151 171.838 412.685 175.108Z" fill="#FF9455"/>
</g>
<g opacity="0.41">
<path opacity="0.41" d="M212.764 23.3984C216.55 18.8698 223.871 17.3602 229.424 20.3793C234.977 23.3984 240.026 31.701 236.492 36.2297C232.705 40.7584 224.123 36.4813 217.56 35.9781C208.22 35.4749 208.978 27.9271 212.764 23.3984Z" fill="#FF9455"/>
</g>
</g>
<g opacity="0.28">
<g opacity="0.28">
<g opacity="0.28">
<path opacity="0.28" d="M27.4878 291.344C23.449 268.198 29.7595 248.322 31.5265 225.679C33.041 204.293 26.4781 186.178 22.9442 165.548C19.6627 147.433 20.9247 126.551 24.7111 108.688C30.2644 84.2833 42.8856 61.6399 60.8077 47.8022C89.0791 26.1652 126.69 28.9328 157.991 43.5252C171.117 49.815 183.738 57.866 197.621 60.1303C218.068 63.1494 238.009 52.8341 257.698 46.5443C284.707 37.9901 314.493 37.487 339.988 50.8214C369.017 65.917 389.463 100.385 387.191 138.124C386.182 155.232 380.628 172.089 382.395 189.198C384.415 206.557 392.997 220.898 397.541 237.252C401.832 252.096 403.346 271.972 400.822 290.086C398.803 304.176 386.939 314.742 372.551 314.742H55.5067C41.8758 314.742 29.7596 304.93 27.4878 291.344C27.4878 291.596 27.4878 291.344 27.4878 291.344Z" fill="#FF9455"/>
</g>
</g>
</g>
<g opacity="0.66">
<g opacity="0.66">
<g opacity="0.47">
<path opacity="0.47" d="M347.563 241.022C346.301 224.417 339.738 207.812 328.379 195.987C310.709 177.369 283.952 172.841 260.477 177.118C250.632 178.879 240.788 182.15 230.943 181.143C216.303 179.634 203.429 169.821 190.051 162.274C171.876 152.21 150.925 146.927 131.741 151.204C109.78 156.235 91.8577 174.602 89.5859 199.258C88.5762 210.328 98.4209 230.204 95.3918 240.771C92.1103 251.589 69.1397 284.296 69.6445 309.456C70.1494 330.841 74.1881 339.395 79.9939 349.459C81.7608 352.73 85.2948 354.742 89.0812 354.742H315.505H321.058C325.602 354.742 329.641 351.723 331.155 347.446C334.437 337.634 335.951 328.325 331.408 314.739C327.117 301.153 338.98 290.083 343.524 277.755C347.31 266.433 348.573 253.099 347.563 241.022Z" fill="#FF5F00"/>
</g>
</g>
</g>
</g>
</g>
<path d="M173.325 233.06C171.092 233.06 169.137 231.39 169.137 229.164L162.995 54.1309C162.995 51.9047 159.366 51.6264 152.386 51.3482H150.431C148.198 51.3482 146.244 49.4003 146.244 47.1741C146.244 44.9479 148.198 43 150.431 43H152.107C159.086 43 170.533 43.2783 171.092 53.8526L177.234 228.886C177.513 231.112 175.838 233.06 173.325 233.06Z" fill="#CC3E3E"/>
<path d="M116.929 298.175L218.275 299.01C221.346 299.01 223.859 296.784 224.138 293.723L239.773 102.828L98.5023 101.715L111.345 293.166C111.624 295.949 113.858 298.175 116.929 298.175Z" fill="#DA4D4D"/>
<path d="M103.247 171.284L106.318 217.199H230.279L234.188 171.284H103.247Z" fill="#F8F8EE"/>
<path d="M98.5023 101.715L239.773 102.828V103.942L113.299 103.107L126.142 294.558C126.142 296.227 126.98 297.619 128.376 298.454H117.208C114.416 298.454 111.903 296.227 111.624 293.166L98.5023 101.715Z" fill="#CC3E3E"/>
<path opacity="0.46" d="M238.376 115.908L99.3395 114.795L99.8979 121.752L237.818 122.03L238.376 115.908Z" fill="#390028"/>
<path d="M97.6653 101.437L98.7819 115.907H239.494L240.611 102.55L97.6653 101.437Z" fill="#F8F8EE"/>
<path d="M314.595 141.786H248.706C243.96 141.786 240.051 145.682 240.051 150.413V159.596C240.051 164.326 243.96 168.222 248.706 168.222H314.595C319.341 168.222 323.25 164.326 323.25 159.596V150.413C323.25 145.682 319.341 141.786 314.595 141.786Z" fill="#FF7000"/>
<path d="M207.103 184.64L231.672 311.81H329.947L354.795 183.805L207.103 184.64Z" fill="#FF7000"/>
<g opacity="0.11">
<path opacity="0.11" d="M354.8 183.805L207.108 184.64L231.677 311.81H253.454L228.885 184.64L354.8 183.805Z" fill="#390028"/>
</g>
<path d="M239.773 160.709H323.251L354.799 184.641H206.549L239.494 161.266" fill="#FCA25C"/>
<path d="M303.708 209.406C285.003 196.327 259.317 200.78 246.195 219.424C233.073 238.068 237.54 263.669 256.246 276.748C274.952 289.826 300.637 285.374 313.759 266.73C326.881 248.086 322.414 222.485 303.708 209.406ZM261.55 269.234C247.033 258.938 243.682 239.181 253.733 224.711C264.063 210.241 283.886 206.901 298.404 216.919C312.921 227.215 316.272 246.973 306.221 261.443C295.891 275.913 276.068 279.252 261.55 269.234Z" fill="#F9B361"/>
<path d="M279.976 285.653C271.321 285.653 262.666 282.87 255.407 277.861C246.194 271.183 239.772 261.443 237.818 250.312C235.864 239.181 238.377 227.772 245.077 218.589C251.778 209.406 261.549 203.006 272.717 201.058C283.884 199.11 295.331 201.615 304.545 208.293C323.809 221.929 328.555 248.364 314.875 267.565C308.174 276.748 298.402 283.148 287.235 285.096C284.722 285.374 282.209 285.653 279.976 285.653ZM279.976 203.284C277.742 203.284 275.23 203.563 272.996 203.841C262.387 205.789 253.174 211.354 247.031 220.259C240.889 228.885 238.376 239.46 240.331 250.034C242.285 260.608 247.869 269.791 256.803 275.913C265.458 282.035 276.067 284.54 286.676 282.592C297.286 280.644 306.499 275.078 312.641 266.174C325.205 248.086 321.017 223.32 302.87 210.798C296.169 205.789 288.072 203.284 279.976 203.284ZM279.976 276.47C273.275 276.47 266.575 274.522 260.712 270.348C253.453 265.339 248.427 257.547 247.031 248.643C245.636 239.738 247.59 231.111 252.615 223.598C263.224 208.571 284.164 204.954 299.24 215.528C314.316 226.103 317.946 246.973 307.337 262C300.915 271.461 290.585 276.47 279.976 276.47ZM262.387 268.122C276.346 277.861 295.331 274.522 305.103 260.608C314.875 246.695 311.524 227.772 297.565 218.033C283.605 208.293 264.62 211.632 254.849 225.546C250.103 232.225 248.427 240.294 249.823 248.364C251.219 256.434 255.686 263.391 262.387 268.122Z" fill="#FFDEC4"/>
<path d="M298.405 216.919C283.887 206.623 263.785 210.24 253.734 224.71C243.404 239.18 247.033 259.216 261.551 269.234C276.069 279.53 296.171 275.912 306.222 261.442C316.273 246.972 312.922 227.215 298.405 216.919ZM283.607 255.32C283.049 256.155 281.653 256.433 280.816 255.877L267.694 246.694C266.856 246.137 266.577 244.746 267.135 243.911L276.349 230.832C276.907 229.998 278.303 229.719 279.14 230.276L292.262 239.459C293.1 240.015 293.379 241.407 292.821 242.241L283.607 255.32Z" fill="#F9B361"/>
<path d="M279.975 276.47C273.274 276.47 266.574 274.523 260.711 270.348C253.452 265.34 248.427 257.548 247.031 248.643C245.635 239.739 247.589 231.112 252.614 223.599C263.224 208.572 284.163 204.955 299.239 215.529C314.315 226.103 317.945 246.974 307.336 262C300.914 271.462 290.584 276.47 279.975 276.47ZM279.975 212.468C270.203 212.468 260.711 216.92 254.848 225.547C250.102 232.225 248.427 240.295 249.822 248.365C251.218 256.435 255.685 263.392 262.386 268.122C276.346 277.862 295.33 274.523 305.102 260.609C314.874 246.695 311.524 227.773 297.564 218.033C292.259 214.416 286.117 212.468 279.975 212.468ZM281.929 257.548C281.371 257.548 280.533 257.27 279.975 256.991L266.853 247.808C265.457 246.695 264.899 244.747 266.016 243.078L275.229 229.999C276.346 228.608 278.3 228.051 279.975 229.164L293.097 238.347C293.935 238.904 294.214 239.739 294.493 240.573C294.772 241.408 294.493 242.243 293.935 243.078L284.721 256.157C283.884 256.991 283.046 257.548 281.929 257.548ZM278.021 231.39C277.741 231.39 277.741 231.39 277.462 231.669L268.249 244.747C267.97 245.026 268.249 245.304 268.249 245.582L281.371 254.765C281.65 255.043 281.929 254.765 282.209 254.765L291.422 241.686C291.422 241.408 291.422 241.408 291.422 241.408C291.422 241.408 291.422 241.13 291.143 241.13L278.021 231.947C278.3 231.39 278.021 231.39 278.021 231.39Z" fill="#FCA25C"/>
<path d="M181.7 317.098L25.6328 317.933C22.8409 317.933 20.8867 315.706 20.8867 313.202V309.306C20.8867 306.523 23.1201 304.576 25.6328 304.576L181.7 303.741C184.492 303.741 186.447 305.967 186.447 308.471V312.367C186.726 314.872 184.492 317.098 181.7 317.098Z" fill="#470B1B"/>
<path d="M177.511 303.741L146.521 304.019C145.962 304.019 145.404 304.297 144.846 304.576L133.957 311.254C133.12 311.811 131.724 311.811 130.607 311.254L116.926 304.576C116.368 304.297 115.81 304.297 115.531 304.297L30.3775 304.854C28.7023 304.854 27.5856 304.019 27.5856 302.906V295.671C27.5856 294.558 28.7023 293.445 30.3775 293.445L177.79 292.61C179.465 292.61 180.582 293.445 180.582 294.558V301.793C180.303 302.906 178.907 303.741 177.511 303.741Z" fill="#FFD98B"/>
<path d="M175.557 326.559L32.0534 327.394C30.9366 327.394 30.099 326.559 30.099 325.446V319.602C30.099 318.489 30.9366 317.654 32.0534 317.654L175.557 316.819C176.674 316.819 177.512 317.654 177.512 318.767V324.611C177.512 325.724 176.674 326.559 175.557 326.559Z" fill="#FF7000"/>
<path opacity="0.74" d="M176.115 319.602L30.9362 320.437C30.3778 320.437 29.8193 319.88 29.8193 319.324V318.767C29.8193 318.211 30.3778 317.654 30.9362 317.654L176.115 316.819C176.674 316.819 177.232 317.376 177.232 317.932V318.489C177.511 319.046 176.953 319.602 176.115 319.602Z" fill="#EC6565"/>
<path d="M156.291 354.386L51.874 354.943C38.7521 354.943 28.1428 347.429 28.1428 337.968V326.002L180.022 325.446V337.412C180.022 346.595 169.413 354.386 156.291 354.386Z" fill="#FFAC79"/>
<path opacity="0.25" d="M179.882 325H172.044C170.644 333.256 160.567 339.861 148.531 339.861L60.6372 340.136C48.6008 340.136 38.5238 333.807 37.1242 325.55H27.887V337.384C27.887 346.741 38.5238 354.447 51.6799 354.172L156.466 355C169.622 355 180.161 345.916 179.882 336.559V325Z" fill="#F97762"/>
<path d="M184.211 294.001L23.1186 294.836C22.8394 263.67 49.9209 238.069 83.1445 237.79L123.348 237.512C156.851 237.512 183.932 262.557 184.211 294.001Z" fill="#FFB6AF"/>
<path opacity="0.08" d="M184.211 294.001L23.1186 294.836C22.8394 263.67 49.9209 238.069 83.1445 237.79L123.348 237.512C156.851 237.512 183.932 262.557 184.211 294.001Z" fill="#FFF6F7"/>
<path d="M184.211 294.001L23.1186 294.836C22.8394 263.67 49.9209 238.069 83.1445 237.79L123.348 237.512C156.851 237.512 183.932 262.557 184.211 294.001Z" fill="#FFAC79"/>
<path opacity="0.25" d="M147.081 241.965L147.36 242.243C163.553 253.096 155.736 278.418 136.192 278.697L63.8821 279.253C49.6434 279.253 41.2677 262.835 50.481 251.704C53.8313 247.808 57.74 244.191 62.207 241.687C39.0342 249.756 22.8411 270.627 22.8411 295.115L183.934 294.28C183.934 270.627 168.858 250.591 147.081 241.965Z" fill="#F97762"/>
<path d="M99.615 253.652C97.94 253.652 96.2651 253.374 96.2651 252.26C96.2651 250.869 98.2192 250.312 100.173 250.312C102.128 250.312 104.361 250.591 104.361 251.704C104.361 253.095 102.407 253.652 100.453 253.652C100.174 253.652 99.8942 253.652 99.615 253.652ZM97.9401 252.26C98.4984 252.26 99.336 252.539 100.453 252.539C101.569 252.539 102.407 252.26 102.686 251.982C102.128 251.982 101.29 251.704 100.173 251.704C99.3359 251.704 98.4984 251.982 97.9401 252.26Z" fill="#F8F8EE"/>
<path d="M124.741 260.33C123.066 260.33 121.391 260.052 121.391 258.939C121.391 258.383 121.67 257.826 122.787 257.548C123.345 257.269 124.462 256.991 125.299 256.991C126.137 256.991 127.253 256.991 127.812 257.269C128.928 257.548 129.487 258.104 129.487 258.661C129.487 260.052 127.533 260.609 125.578 260.609C125.299 260.33 125.02 260.33 124.741 260.33ZM123.066 258.661C123.624 258.661 124.462 258.939 125.578 258.939C126.695 258.939 127.533 258.661 127.812 258.383C127.253 258.383 126.416 258.104 125.299 258.104C124.182 258.383 123.345 258.383 123.066 258.661Z" fill="#F8F8EE"/>
<path d="M118.319 247.252C116.644 247.252 114.969 246.974 114.969 245.86C114.969 245.304 115.248 244.747 116.364 244.469C116.923 244.191 118.039 243.913 118.877 243.913C120.831 243.913 123.064 244.191 123.064 245.304C123.064 245.861 122.785 246.417 121.669 246.695C121.11 246.974 119.994 247.252 119.156 247.252C118.877 247.252 118.598 247.252 118.319 247.252ZM116.644 245.86C117.202 245.86 118.039 246.139 119.156 246.139C120.273 246.139 121.11 245.86 121.39 245.582C120.831 245.582 119.994 245.304 118.877 245.304C117.76 245.304 116.923 245.582 116.644 245.86Z" fill="#F8F8EE"/>
<path d="M77.2793 260.609C75.6043 260.609 73.9294 260.331 73.9294 259.217C73.9294 258.661 74.2086 258.104 75.3253 257.826C75.8836 257.548 77.0002 257.27 77.8377 257.27C78.6752 257.27 79.792 257.27 80.3503 257.548C81.467 257.826 82.0253 258.383 82.0253 258.939C82.0253 259.496 81.7461 260.052 80.6294 260.331C80.0711 260.609 78.9545 260.887 78.117 260.887C77.8378 260.609 77.5585 260.609 77.2793 260.609ZM75.6044 259.217C76.1627 259.217 77.0003 259.496 78.117 259.496C79.2337 259.496 80.0711 259.217 80.3503 258.939C79.792 258.939 78.9544 258.661 77.8377 258.661C76.721 258.661 75.8836 258.939 75.6044 259.217Z" fill="#F8F8EE"/>
<path d="M78.3963 247.252C76.7213 247.252 75.0463 246.974 75.0463 245.86C75.0463 245.304 75.3254 244.747 76.4421 244.469C77.0005 244.191 78.1172 243.913 78.9547 243.913C79.7922 243.913 80.9088 243.913 81.4671 244.191C82.5838 244.469 83.1422 245.026 83.1422 245.582C83.1422 246.139 82.8631 246.695 81.7464 246.974C81.1881 247.252 80.0713 247.53 79.2338 247.53C78.9546 247.252 78.6755 247.252 78.3963 247.252ZM76.7214 245.582C77.2797 245.582 78.1171 245.86 79.2338 245.86C80.3505 245.86 81.188 245.582 81.4671 245.304C80.9088 245.304 80.0714 245.026 78.9547 245.026C78.1172 245.304 77.2797 245.304 76.7214 245.582Z" fill="#F8F8EE"/>
<path d="M364.292 355.221H176.955C164.95 355.221 155.178 345.482 155.178 333.516V320.716C155.178 315.428 159.645 310.976 164.95 310.976H376.576C381.881 310.976 386.348 315.428 386.348 320.716V333.516C386.069 345.482 376.297 355.221 364.292 355.221Z" fill="#353535"/>
<path d="M192.31 266.73L173.883 298.453C167.462 309.306 175.558 322.663 188.122 322.663H224.975C237.538 322.663 245.356 309.028 239.214 298.453L220.787 266.73C214.366 255.878 198.731 255.878 192.31 266.73Z" fill="#E0E0E0"/>
<path opacity="0.11" d="M183.096 295.393C183.096 295.393 182.817 295.393 183.096 295.393C182.258 294.558 181.421 293.723 181.421 292.61C181.421 292.053 181.7 291.497 181.979 291.219C182.258 290.94 182.538 290.662 183.096 290.94C183.375 290.94 183.654 291.219 183.933 291.497C183.933 291.219 183.934 290.94 184.213 290.94C184.771 290.105 185.888 290.105 186.725 290.384C187.283 290.662 187.563 290.94 187.842 291.497C188.121 291.775 188.4 292.053 188.958 292.332C189.238 292.332 189.238 292.61 189.238 292.888C189.238 293.166 188.959 293.166 188.679 293.166C188.121 292.888 187.842 292.61 187.563 292.053C187.283 291.775 187.004 291.497 186.446 291.219C185.888 290.94 185.329 290.94 185.05 291.497C184.771 291.775 184.771 292.332 184.771 292.888C184.771 293.166 184.771 293.166 184.492 293.166C184.213 293.166 184.213 293.166 184.213 292.888C183.934 292.332 183.654 291.775 183.096 291.775C182.817 291.775 182.817 291.775 182.538 292.053C182.258 292.332 182.258 292.61 182.258 293.166C182.258 294.001 182.817 294.836 183.375 295.393C183.375 295.114 183.375 295.114 183.096 295.393C183.096 295.393 183.375 295.393 183.096 295.393Z" fill="#390028"/>
<path opacity="0.11" d="M179.189 305.411C179.189 305.411 179.189 305.133 179.189 305.411C178.351 304.855 178.072 304.02 177.793 303.463C177.793 302.907 177.793 302.628 178.072 302.35C178.351 301.794 179.189 301.794 179.747 302.072C180.306 302.35 180.585 302.628 180.864 303.185C180.864 303.463 180.864 303.463 180.864 303.742C180.585 303.742 180.585 303.742 180.306 303.742C180.026 303.463 179.747 303.185 179.468 302.907C179.189 302.907 178.91 302.907 178.631 302.907C178.631 303.185 178.631 303.463 178.631 303.742C178.631 304.298 179.189 304.855 179.468 305.133C179.747 304.855 179.747 305.133 179.189 305.411C179.468 305.411 179.468 305.133 179.189 305.411Z" fill="#390028"/>
<path opacity="0.11" d="M203.756 291.218C203.476 291.218 203.476 291.218 203.476 290.94C203.197 290.383 202.918 289.827 202.639 289.27C202.36 288.992 202.08 288.714 201.801 288.714C201.522 288.714 200.964 288.714 200.964 289.27C200.685 289.549 200.685 290.105 200.964 290.383C200.964 290.662 200.964 290.662 200.964 290.94C200.685 290.94 200.685 290.94 200.405 290.94C199.847 290.383 199.847 289.549 200.126 288.992C200.405 288.436 201.243 288.157 201.801 288.157C202.08 288.157 202.639 288.436 202.918 288.992C203.476 289.549 203.755 290.105 204.035 290.662C204.035 290.94 204.035 290.94 203.756 291.218Z" fill="#390028"/>
<path opacity="0.11" d="M200.687 304.853C200.408 304.853 200.408 304.853 200.408 304.575C200.129 303.74 200.129 302.905 200.129 302.071C200.129 301.236 200.408 300.957 200.687 300.957C200.966 300.957 201.245 300.957 201.525 300.957C201.804 300.957 202.083 301.236 202.362 301.514C202.362 300.957 202.92 300.401 203.2 300.123C204.037 299.566 205.154 300.123 205.712 300.679C205.991 300.957 206.271 300.957 206.55 301.236C206.829 301.514 207.387 301.792 207.666 302.071C207.945 302.071 207.946 302.349 207.946 302.627C207.946 302.905 207.666 302.905 207.387 302.905C206.829 302.627 206.55 302.349 206.27 302.071C205.991 301.792 205.712 301.792 205.712 301.514C205.433 301.236 204.596 300.957 203.758 301.236C203.479 301.236 203.2 301.792 203.2 302.071C203.2 302.071 203.2 302.349 203.2 302.627C203.2 302.627 203.2 302.905 203.2 303.184C203.2 303.184 202.92 303.462 202.641 303.184C202.641 303.184 202.641 303.184 202.362 302.905C202.083 302.627 201.525 302.349 200.966 302.071H200.687C200.687 302.071 200.687 302.349 200.687 302.627C200.687 303.462 200.966 304.297 200.966 304.853C201.245 304.853 200.966 304.853 200.687 304.853Z" fill="#390028"/>
<path opacity="0.11" d="M209.343 273.409C209.064 273.409 209.063 273.409 209.063 273.131C209.063 272.296 209.063 271.461 209.063 270.626C209.063 270.07 209.343 269.513 209.901 269.235C210.459 268.956 211.297 268.957 211.576 269.513C211.855 269.791 211.855 269.791 212.134 270.07C212.414 269.791 212.413 269.513 212.693 269.235C213.251 268.678 214.089 268.678 214.926 268.678C216.322 268.956 217.159 270.07 217.718 270.904C217.718 271.183 217.718 271.183 217.718 271.461C217.439 271.461 217.439 271.461 217.159 271.461C216.601 270.904 215.764 269.791 214.647 269.513C214.089 269.513 213.53 269.513 212.972 269.791C212.693 270.07 212.414 270.348 212.414 270.904C212.414 271.183 212.414 271.183 212.134 271.183C211.855 271.183 211.855 271.183 211.855 270.904C211.576 270.626 211.297 270.07 211.018 269.791C210.739 269.513 210.459 269.513 210.18 269.791C209.901 269.791 209.901 270.348 209.622 270.626C209.343 271.461 209.343 272.017 209.622 272.852C209.901 273.131 209.622 273.131 209.343 273.409C209.622 273.409 209.622 273.409 209.343 273.409Z" fill="#390028"/>
<path opacity="0.11" d="M224.415 304.297C224.415 304.297 224.136 304.297 224.136 304.019C223.857 303.184 223.857 302.628 223.857 301.793C223.857 301.236 224.136 300.68 224.973 300.401C225.253 300.401 225.532 300.401 225.811 300.68C226.648 301.236 227.486 301.793 228.044 302.906C228.044 303.184 228.044 303.184 228.044 303.462C227.765 303.462 227.765 303.462 227.486 303.462C226.928 302.628 226.369 302.071 225.532 301.514H225.253C224.973 301.514 224.973 301.793 224.973 302.349C224.973 302.906 224.973 303.741 225.253 304.297C224.973 304.019 224.694 304.019 224.415 304.297Z" fill="#390028"/>
<path opacity="0.11" d="M223.302 323.22H189.799C189.52 323.22 189.52 322.942 189.52 322.942V294.28C189.52 288.715 193.987 284.262 199.571 284.262H213.531C219.114 284.262 223.581 288.715 223.581 294.28V322.942L223.302 323.22ZM190.078 322.385H222.744V294.002C222.744 288.715 218.556 284.54 213.251 284.54H199.292C193.987 284.54 189.799 288.715 189.799 294.002V322.385H190.078Z" fill="#390028"/>
<path d="M223.3 322.664H189.798V294.002C189.798 288.715 194.265 284.262 199.569 284.262H213.529C218.833 284.262 223.3 288.715 223.3 294.002V322.664Z" fill="#390028"/>
<g opacity="0.11">
<path opacity="0.11" d="M201.522 273.131C200.964 273.131 200.685 272.852 200.685 272.296C200.685 271.739 200.964 271.461 201.522 271.461C202.081 271.461 202.36 271.739 202.36 272.296C202.36 272.852 202.081 273.131 201.522 273.131ZM201.522 272.017C201.522 272.296 201.802 272.296 201.522 272.017C201.802 272.017 201.522 272.017 201.522 272.017Z" fill="#390028"/>
<path opacity="0.11" d="M195.101 276.192C194.543 276.192 194.264 275.913 194.264 275.357C194.264 274.8 194.543 274.522 195.101 274.522C195.659 274.522 195.939 274.8 195.939 275.357C195.939 275.913 195.659 276.192 195.101 276.192ZM195.101 275.079C195.101 275.079 195.101 275.357 195.101 275.079C195.101 275.357 195.38 275.357 195.101 275.079C195.101 275.079 195.38 275.357 195.101 275.079Z" fill="#390028"/>
<path opacity="0.11" d="M200.964 277.861C200.126 277.861 199.568 277.304 199.568 276.469C199.568 275.635 200.126 275.078 200.964 275.078C201.801 275.078 202.36 275.635 202.36 276.469C202.36 277.304 201.801 277.861 200.964 277.861ZM200.964 276.191C200.685 276.191 200.406 276.469 200.406 276.748C200.406 277.026 200.685 277.304 200.964 277.304C201.243 277.304 201.522 277.026 201.522 276.748C201.801 276.469 201.522 276.191 200.964 276.191Z" fill="#390028"/>
</g>
<g opacity="0.11">
<path opacity="0.11" d="M233.351 306.523C233.072 306.523 233.072 306.523 232.793 306.245C232.514 305.966 232.514 305.41 232.793 305.132C233.072 304.853 233.631 304.853 233.91 305.132C234.189 305.41 234.189 305.966 233.91 306.245C233.631 306.523 233.351 306.523 233.351 306.523ZM233.351 305.688C233.072 305.688 233.072 305.688 233.351 305.688C233.072 305.688 233.072 305.688 233.351 305.688C233.351 305.966 233.072 305.966 233.351 305.688Z" fill="#390028"/>
<path opacity="0.11" d="M226.37 304.853C226.091 304.853 226.09 304.853 225.811 304.575C225.532 304.297 225.532 304.297 225.532 304.019C225.532 303.74 225.532 303.462 225.811 303.462C226.09 303.184 226.649 303.184 226.928 303.462C227.207 303.462 227.207 303.74 227.207 304.019C227.207 304.297 227.207 304.575 226.928 304.575C226.649 304.853 226.649 304.853 226.37 304.853ZM226.37 303.74C226.37 303.74 226.091 304.019 226.37 303.74C226.091 304.019 226.091 304.019 226.37 303.74C226.091 304.019 226.091 304.019 226.37 303.74C226.37 304.019 226.37 304.019 226.37 303.74C226.37 304.019 226.37 304.019 226.37 303.74C226.37 303.74 226.37 304.019 226.37 303.74Z" fill="#390028"/>
<path opacity="0.11" d="M229.999 310.141C229.72 310.141 229.441 310.141 229.162 309.863C228.883 309.584 228.604 309.306 228.604 309.028C228.604 308.75 228.604 308.471 228.883 308.193C229.441 307.636 230.278 307.636 230.837 307.915C231.116 308.193 231.395 308.471 231.395 308.749C231.395 309.028 231.395 309.306 231.116 309.584C230.837 309.863 230.279 310.141 229.999 310.141ZM229.999 308.193C229.72 308.193 229.72 308.193 229.441 308.471C229.441 308.471 229.162 308.75 229.441 309.028C229.441 309.306 229.441 309.306 229.72 309.306C229.999 309.584 230.279 309.584 230.558 309.306C230.558 309.306 230.837 309.028 230.558 308.749C230.558 308.471 230.558 308.471 230.279 308.471C230.279 308.193 229.999 308.193 229.999 308.193Z" fill="#390028"/>
</g>
<path d="M370.151 310.142H319.339C314.313 310.142 310.405 305.968 310.405 301.237V290.941C310.405 285.932 314.592 282.036 319.339 282.036H370.151C375.177 282.036 379.085 286.21 379.085 290.941V301.237C379.085 305.968 375.177 310.142 370.151 310.142Z" fill="#F8F8EE"/>
<path opacity="0.11" d="M322.965 300.961C322.128 300.126 321.29 299.013 321.29 298.178C321.29 297.622 321.569 297.065 321.849 296.509C322.128 296.23 322.407 295.952 322.965 296.23C323.244 296.23 323.803 296.509 323.803 296.787C323.803 296.509 323.803 296.23 324.082 296.23C324.64 295.395 325.757 295.395 326.594 295.674C327.153 295.952 327.432 296.23 327.711 296.787C327.99 297.065 328.269 297.343 328.828 297.622C329.107 297.622 329.107 297.9 329.107 298.178C329.107 298.456 328.828 298.457 328.548 298.457C327.99 298.178 327.711 297.9 327.432 297.343C327.153 297.065 326.874 296.787 326.315 296.509C325.757 296.23 325.199 296.23 324.64 296.787C324.361 297.065 324.361 297.622 324.361 298.178C324.361 298.456 324.361 298.457 324.082 298.457C323.803 298.457 323.803 298.456 323.803 298.178C323.524 297.622 323.244 297.065 322.686 297.065C322.407 297.065 322.407 297.065 322.128 297.343C321.848 297.622 321.849 297.9 321.849 298.457C321.849 299.291 322.407 300.126 322.965 300.683C323.523 300.404 323.523 300.683 322.965 300.961C323.244 300.961 323.244 300.961 322.965 300.961Z" fill="#390028"/>
<path opacity="0.11" d="M319.058 305.414C319.058 305.414 319.058 305.135 319.058 305.414C318.22 304.857 317.941 304.022 317.662 303.466C317.662 302.909 317.662 302.631 317.941 302.074C318.22 301.518 319.058 301.518 319.616 301.796C320.175 302.074 320.454 302.353 320.733 302.909C320.733 303.187 320.733 303.187 320.733 303.466C320.454 303.466 320.454 303.466 320.175 303.466C319.895 303.187 319.616 302.909 319.337 302.631C319.058 302.631 318.779 302.631 318.5 302.631C318.5 302.909 318.5 303.187 318.5 303.466C318.5 304.022 319.058 304.579 319.337 305.135C319.616 304.857 319.616 305.135 319.058 305.414C319.337 305.414 319.337 305.135 319.058 305.414Z" fill="#390028"/>
<path opacity="0.11" d="M344.464 296.507C344.185 296.507 344.185 296.507 344.185 296.229C343.906 295.672 343.627 295.116 343.347 294.559C343.068 294.281 342.789 294.003 342.51 294.003C342.231 294.003 341.672 294.003 341.672 294.559C341.393 294.838 341.393 295.394 341.672 295.672C341.672 295.951 341.672 295.951 341.672 296.229C341.393 296.229 341.393 296.229 341.114 296.229C340.556 295.672 340.556 294.838 340.835 294.281C341.114 293.725 341.951 293.446 342.51 293.446C343.068 293.446 343.347 293.725 343.626 294.281C344.185 294.838 344.464 295.394 344.743 296.229C344.743 296.229 344.743 296.229 344.464 296.507Z" fill="#390028"/>
<path opacity="0.11" d="M341.392 305.135C341.113 305.135 341.113 305.135 341.113 304.857C340.834 304.022 340.834 303.187 340.834 302.352C340.834 301.517 341.113 301.239 341.392 301.239C341.671 301.239 341.951 301.239 342.23 301.239C342.509 301.239 342.788 301.517 343.067 301.796C343.067 301.239 343.625 300.683 343.905 300.404C345.021 299.848 345.859 300.404 346.417 300.961C346.696 301.239 346.976 301.239 347.255 301.517C347.534 301.796 348.092 302.074 348.371 302.352C348.651 302.352 348.651 302.631 348.651 302.909C348.651 303.187 348.371 303.187 348.092 303.187C347.534 302.909 347.255 302.631 346.696 302.352C346.417 302.074 346.138 302.074 345.859 301.796C345.58 301.517 344.742 300.961 343.905 301.517C343.625 301.517 343.346 302.074 343.346 302.352C343.346 302.352 343.346 302.631 343.346 302.909C343.346 302.909 343.346 303.187 343.346 303.465C343.346 303.465 343.067 303.744 342.788 303.465C342.788 303.465 342.788 303.465 342.509 303.187C342.23 302.909 341.671 302.631 341.113 302.352H340.834C340.834 302.352 340.834 302.631 340.834 302.909C340.834 303.744 341.113 304.578 341.113 305.413C341.671 304.857 341.671 304.857 341.392 305.135C341.392 305.135 341.392 304.857 341.392 305.135Z" fill="#390028"/>
<path opacity="0.11" d="M360.657 297.9C360.377 297.9 360.377 297.9 360.377 297.622C360.377 296.787 360.377 295.952 360.377 295.117C360.377 294.561 360.657 294.004 361.215 293.726C361.773 293.448 362.332 293.448 362.89 294.004C363.169 294.283 363.448 294.283 363.448 294.561C363.727 294.283 363.727 294.004 364.007 293.726C364.565 293.169 365.402 293.169 366.24 293.169C367.636 293.448 368.473 294.561 369.311 295.396C369.311 295.674 369.311 295.674 369.311 295.952C369.032 295.952 369.032 295.952 368.753 295.952C368.194 295.117 367.357 294.283 366.24 294.004C365.682 294.004 365.123 294.004 364.565 294.283C364.286 294.561 364.007 294.839 364.007 295.396C364.007 295.674 364.007 295.674 363.728 295.674C363.448 295.674 363.448 295.674 363.448 295.396C363.169 295.117 362.89 294.561 362.611 294.283C362.332 294.004 362.052 294.004 361.773 294.004C361.494 294.004 361.494 294.561 361.215 294.839C360.936 295.674 360.936 296.23 361.215 297.065C360.936 297.622 360.657 297.9 360.657 297.9Z" fill="#390028"/>
<path opacity="0.11" d="M365.683 304.301C365.683 304.301 365.404 304.301 365.404 304.022C365.125 303.188 365.125 302.631 365.125 301.796C365.125 301.24 365.404 300.405 366.241 300.405C366.52 300.405 366.8 300.405 367.079 300.683C367.916 301.24 368.754 302.074 369.312 302.909C369.312 303.187 369.312 303.188 369.312 303.466C369.033 303.466 369.033 303.466 368.754 303.466C368.195 302.631 367.637 302.074 366.8 301.518H366.52C366.241 301.518 366.241 301.796 366.241 302.353C366.241 302.909 366.241 303.744 366.52 304.301C366.241 303.744 365.962 304.022 365.683 304.301C365.683 304.301 365.962 304.301 365.683 304.301Z" fill="#390028"/>
<path d="M376.015 289.827H313.756C308.73 289.827 304.822 285.653 304.822 280.923V275.357C304.822 270.348 309.01 266.453 313.756 266.453H376.015C381.041 266.453 384.949 270.627 384.949 275.357V280.923C384.949 285.932 380.762 289.827 376.015 289.827Z" fill="#FF7000"/>
<path d="M320.456 266.453H314.593V289.827H320.456V266.453Z" fill="#FCA25C"/>
<path d="M338.042 266.453H332.18V289.827H338.042V266.453Z" fill="#FCA25C"/>
<path d="M356.47 266.453H350.608V289.827H356.47V266.453Z" fill="#FCA25C"/>
<path d="M374.342 266.453H368.479V289.827H374.342V266.453Z" fill="#FCA25C"/>
<path d="M301.472 278.139H242.842V313.201H301.472V278.139Z" fill="#390028"/>
<path d="M272.435 288.156C288.625 288.156 301.75 283.796 301.75 278.417C301.75 273.038 288.625 268.677 272.435 268.677C256.245 268.677 243.12 273.038 243.12 278.417C243.12 283.796 256.245 288.156 272.435 288.156Z" fill="#F8F8EE"/>
<path d="M272.436 280.087C277.215 280.087 281.09 278.842 281.09 277.305C281.09 275.768 277.215 274.522 272.436 274.522C267.656 274.522 263.781 275.768 263.781 277.305C263.781 278.842 267.656 280.087 272.436 280.087Z" fill="#FF7000"/>
<path opacity="0.11" d="M265.18 274.523C264.901 274.523 264.901 274.523 264.901 274.244C264.901 273.41 264.901 272.575 264.901 271.74C264.901 271.183 265.18 270.627 265.738 270.349C266.296 270.07 267.134 270.07 267.413 270.627C267.692 270.905 267.971 270.905 267.971 271.183C268.251 270.905 268.251 270.627 268.53 270.349C269.088 269.792 269.926 269.792 270.763 269.792C272.159 270.07 272.996 271.183 273.834 272.018C273.834 272.296 273.834 272.296 273.834 272.575C273.555 272.575 273.555 272.575 273.276 272.575C272.717 271.74 271.88 270.905 270.763 270.627C270.205 270.627 269.646 270.627 269.088 270.905C268.809 271.183 268.53 271.462 268.53 272.018C268.53 272.296 268.53 272.296 268.251 272.296C267.971 272.296 267.971 272.296 267.971 272.018C267.692 271.462 267.413 271.183 267.134 270.905C266.855 270.627 266.576 270.627 266.296 270.627C266.017 270.627 266.017 271.183 265.738 271.462C265.459 272.296 265.459 272.853 265.738 273.688C265.738 274.244 265.459 274.523 265.18 274.523Z" fill="#390028"/>
<g opacity="0.11">
<path opacity="0.11" d="M257.079 274.244C256.521 274.244 256.242 273.966 256.242 273.41C256.242 272.853 256.521 272.575 257.079 272.575C257.638 272.575 257.917 272.853 257.917 273.41C257.917 273.966 257.638 274.244 257.079 274.244ZM257.079 273.41C257.079 273.41 256.8 273.41 257.079 273.41C256.8 273.688 257.359 273.688 257.079 273.41C257.079 273.41 257.359 273.41 257.079 273.41Z" fill="#390028"/>
<path opacity="0.11" d="M250.379 277.584C249.821 277.584 249.542 277.306 249.542 276.749C249.542 276.193 249.821 275.915 250.379 275.915C250.938 275.915 251.217 276.193 251.217 276.749C251.217 277.028 250.938 277.584 250.379 277.584ZM250.379 276.471C250.379 276.749 250.659 276.749 250.379 276.471C250.659 276.471 250.379 276.471 250.379 276.471Z" fill="#390028"/>
<path opacity="0.11" d="M256.52 279.253C255.682 279.253 255.124 278.697 255.124 277.862C255.124 277.027 255.682 276.471 256.52 276.471C257.357 276.471 257.916 277.027 257.916 277.862C257.916 278.697 257.357 279.253 256.52 279.253ZM256.52 277.306C256.241 277.306 255.961 277.584 255.961 277.862C255.961 278.14 256.241 278.419 256.52 278.419C256.799 278.419 257.078 278.14 257.078 277.862C257.357 277.584 256.799 277.306 256.52 277.306Z" fill="#390028"/>
</g>
<g opacity="0.11">
<path opacity="0.11" d="M291.421 277.583C290.863 277.583 290.584 277.304 290.584 276.748C290.584 276.191 290.863 275.913 291.421 275.913C291.979 275.913 292.259 276.191 292.259 276.748C292.259 277.304 291.7 277.583 291.421 277.583ZM291.421 276.47C291.421 276.47 291.142 276.748 291.421 276.47C291.142 276.748 291.421 276.748 291.421 276.47C291.421 276.47 291.421 276.748 291.421 276.47Z" fill="#390028"/>
<path opacity="0.11" d="M284.721 280.644C284.163 280.644 283.884 280.365 283.884 279.809C283.884 279.252 284.163 278.974 284.721 278.974C285.28 278.974 285.559 279.252 285.559 279.809C285.559 280.365 285.28 280.644 284.721 280.644ZM284.721 279.809C284.721 279.809 284.442 279.809 284.721 279.809C284.442 280.087 285 280.087 284.721 279.809C284.721 279.809 285 279.809 284.721 279.809Z" fill="#390028"/>
<path opacity="0.11" d="M290.863 282.591C290.025 282.591 289.467 282.035 289.467 281.2C289.467 280.365 290.025 279.809 290.863 279.809C291.7 279.809 292.258 280.365 292.258 281.2C292.258 282.035 291.7 282.591 290.863 282.591ZM290.863 280.643C290.583 280.643 290.304 280.922 290.304 281.2C290.304 281.478 290.583 281.756 290.863 281.756C291.142 281.756 291.421 281.478 291.421 281.2C291.421 280.922 291.142 280.643 290.863 280.643Z" fill="#390028"/>
</g>
<path d="M365.129 343.81H314.316C309.29 343.81 305.382 339.636 305.382 334.905V324.609C305.382 319.6 309.57 315.705 314.316 315.705H365.129C370.154 315.705 374.063 319.879 374.063 324.609V334.905C374.342 339.914 370.154 343.81 365.129 343.81Z" fill="#F8F8EE"/>
<path opacity="0.11" d="M318.223 334.628C318.223 334.628 317.943 334.628 318.223 334.628C317.385 333.793 316.547 332.68 316.547 331.845C316.547 331.289 316.827 330.732 317.106 330.176C317.385 329.897 317.664 329.619 318.223 329.897C318.502 329.897 319.06 330.176 319.06 330.454C319.06 330.176 319.06 329.897 319.339 329.897C319.898 329.062 321.014 329.062 321.852 329.341C322.41 329.619 322.689 329.897 322.968 330.454C323.248 330.732 323.527 331.01 324.085 331.289C324.364 331.289 324.364 331.567 324.364 331.845C324.364 332.124 324.085 332.123 323.806 332.123C323.248 331.845 322.968 331.567 322.689 331.01C322.41 330.732 322.131 330.454 321.573 330.176C321.014 329.897 320.177 329.897 319.898 330.454C319.618 330.732 319.618 331.289 319.618 331.845C319.618 332.124 319.618 332.123 319.339 332.123C319.06 332.123 319.06 332.124 319.06 331.845C318.781 331.289 318.502 330.732 317.943 330.732C317.664 330.732 317.664 330.732 317.385 331.01C317.106 331.289 317.106 331.567 317.106 332.123C317.106 332.958 317.664 333.793 318.223 334.35C318.502 334.071 318.502 334.35 318.223 334.628C318.223 334.628 318.502 334.628 318.223 334.628Z" fill="#390028"/>
<path opacity="0.11" d="M314.315 339.081C314.315 339.081 314.036 339.081 314.315 339.081C313.478 338.524 313.199 337.689 312.919 337.133C312.919 336.576 312.919 336.298 313.199 335.741C313.478 335.185 314.315 335.185 314.874 335.463C315.432 335.741 315.711 336.02 315.99 336.576C315.99 336.854 315.99 336.854 315.99 337.133C315.711 337.133 315.711 337.133 315.432 337.133C315.153 336.854 314.874 336.576 314.594 336.298C314.315 336.298 314.036 336.298 313.757 336.298C313.757 336.576 313.757 336.854 313.757 337.133C313.757 337.689 314.315 338.246 314.594 338.802C314.594 338.524 314.594 338.802 314.315 339.081C314.315 339.081 314.594 339.081 314.315 339.081Z" fill="#390028"/>
<path opacity="0.11" d="M339.443 330.174C339.163 330.174 339.163 330.174 339.163 329.896C338.884 329.339 338.605 328.783 338.326 328.226C338.047 327.948 337.768 327.67 337.488 327.67C337.209 327.67 336.651 327.67 336.651 328.226C336.372 328.505 336.372 329.061 336.651 329.339C336.651 329.618 336.651 329.618 336.651 329.896C336.372 329.896 336.372 329.896 336.093 329.896C335.534 329.339 335.534 328.505 335.813 327.948C336.093 327.392 336.93 327.113 337.488 327.113C338.047 327.113 338.326 327.392 338.605 327.948C339.163 328.505 339.443 329.061 339.722 329.896C340.001 329.896 340.001 330.174 339.443 330.174C339.722 330.174 339.722 330.174 339.443 330.174Z" fill="#390028"/>
<path opacity="0.11" d="M336.369 338.802C336.09 338.802 336.089 338.802 336.089 338.524C335.81 337.689 335.81 336.854 335.81 336.019C335.81 335.184 336.09 334.906 336.369 334.906C336.648 334.906 336.927 334.906 337.206 334.906C337.485 334.906 337.764 335.184 338.044 335.463C338.044 334.906 338.602 334.35 338.881 334.071C339.998 333.515 340.835 334.071 341.394 334.628C341.673 334.906 341.952 334.906 342.231 335.184C342.51 335.463 343.069 335.741 343.348 336.019C343.627 336.019 343.627 336.297 343.627 336.576C343.627 336.854 343.348 336.854 343.069 336.854C342.51 336.576 342.231 336.298 341.673 336.019C341.394 335.741 341.114 335.741 340.835 335.463C340.556 335.184 339.719 334.628 338.881 335.184C338.602 335.184 338.323 335.741 338.323 336.019C338.323 336.019 338.323 336.297 338.323 336.576C338.323 336.576 338.323 336.854 338.323 337.132C338.323 337.132 338.044 337.411 337.765 337.132C337.765 337.132 337.764 337.132 337.485 336.854C337.206 336.576 336.648 336.298 336.089 336.019C335.81 336.019 335.81 336.019 335.81 336.019C335.81 336.019 335.81 336.297 335.81 336.576C335.81 337.411 336.089 338.245 336.089 339.08C336.927 338.524 336.648 338.524 336.369 338.802C336.369 338.802 336.648 338.802 336.369 338.802Z" fill="#390028"/>
<path opacity="0.11" d="M355.635 331.567C355.356 331.567 355.356 331.567 355.356 331.289C355.356 330.454 355.356 329.619 355.356 328.784C355.356 328.228 355.635 327.671 356.194 327.393C356.752 327.115 357.589 327.115 357.869 327.671C358.148 327.95 358.427 327.95 358.427 328.228C358.706 327.95 358.706 327.671 358.985 327.393C359.544 326.836 360.381 326.836 361.219 326.836C362.614 327.115 363.452 328.228 364.29 329.063C364.29 329.341 364.29 329.341 364.29 329.619C364.01 329.619 364.01 329.619 363.731 329.619C363.173 328.784 362.335 327.95 361.219 327.671C360.66 327.671 360.102 327.671 359.544 327.949C359.264 328.228 358.985 328.506 358.985 329.063C358.985 329.341 358.985 329.341 358.706 329.341C358.427 329.341 358.427 329.341 358.427 329.063C358.148 328.506 357.869 328.228 357.589 327.949C357.31 327.671 357.031 327.671 356.752 327.671C356.473 327.671 356.473 328.228 356.194 328.506C355.914 329.341 355.914 329.897 356.194 330.732C356.194 331.289 355.914 331.567 355.635 331.567Z" fill="#390028"/>
<path opacity="0.11" d="M360.94 337.968C360.94 337.968 360.661 337.968 360.661 337.689C360.382 336.854 360.382 336.02 360.382 335.463C360.382 334.907 360.661 334.072 361.499 334.072C361.778 334.072 362.057 334.072 362.336 334.35C363.174 334.907 364.011 335.741 364.569 336.576C364.569 336.854 364.569 336.855 364.569 337.133C364.29 337.133 364.29 337.133 364.011 337.133C363.453 336.298 362.894 335.741 362.057 335.185H361.778C361.499 335.185 361.499 335.463 361.499 336.02C361.499 336.576 361.499 337.411 361.778 337.968C361.219 337.689 361.22 337.689 360.94 337.968Z" fill="#390028"/>
<path d="M370.991 323.499H308.731C303.706 323.499 299.797 319.325 299.797 314.595V309.029C299.797 304.02 303.985 300.125 308.731 300.125H370.991C376.016 300.125 379.925 304.299 379.925 309.029V314.595C380.204 319.604 376.016 323.499 370.991 323.499Z" fill="#FF7000"/>
<path d="M315.709 300.122H309.847V323.496H315.709V300.122Z" fill="#FCA25C"/>
<path d="M333.022 300.122H327.159V323.496H333.022V300.122Z" fill="#FCA25C"/>
<path d="M351.448 300.122H345.586V323.496H351.448V300.122Z" fill="#FCA25C"/>
<path d="M369.595 300.122H363.733V323.496H369.595V300.122Z" fill="#FCA25C"/>
<path d="M297.007 304.576H238.377V339.638H297.007V304.576Z" fill="#390028"/>
<path d="M267.692 314.315C283.882 314.315 297.007 309.954 297.007 304.575C297.007 299.196 283.882 294.836 267.692 294.836C251.502 294.836 238.377 299.196 238.377 304.575C238.377 309.954 251.502 314.315 267.692 314.315Z" fill="#F8F8EE"/>
<path d="M267.692 306.523C272.472 306.523 276.347 305.277 276.347 303.74C276.347 302.203 272.472 300.958 267.692 300.958C262.913 300.958 259.038 302.203 259.038 303.74C259.038 305.277 262.913 306.523 267.692 306.523Z" fill="#FF7000"/>
<path opacity="0.11" d="M260.432 300.958C260.153 300.958 260.153 300.958 260.153 300.68C260.153 299.845 260.153 299.01 260.153 298.175C260.153 297.619 260.432 297.062 260.991 296.784C261.549 296.506 262.386 296.506 262.666 297.062C262.945 297.341 263.224 297.341 263.224 297.619C263.503 297.341 263.503 297.062 263.782 296.784C264.341 296.228 265.178 296.228 266.016 296.228C267.411 296.506 268.249 297.619 269.086 298.454C269.086 298.732 269.086 298.732 269.086 299.01C268.807 299.01 268.807 299.01 268.528 299.01C267.97 298.175 267.132 297.341 266.016 297.062C265.457 297.062 264.899 297.062 264.34 297.341C264.061 297.619 263.782 297.897 263.782 298.454C263.782 298.732 263.782 298.732 263.503 298.732C263.224 298.732 263.224 298.732 263.224 298.454C262.945 298.175 262.666 297.619 262.386 297.341C262.107 297.062 261.828 297.062 261.549 297.062C261.27 297.062 261.27 297.619 260.991 297.897C260.711 298.732 260.711 299.289 260.991 300.123C260.991 300.68 260.711 300.958 260.432 300.958C260.711 300.958 260.711 300.958 260.432 300.958Z" fill="#390028"/>
<g opacity="0.11">
<path opacity="0.11" d="M252.333 300.682C251.774 300.682 251.495 300.404 251.495 299.848C251.495 299.291 251.774 299.013 252.333 299.013C252.891 299.013 253.17 299.291 253.17 299.848C253.17 300.404 252.891 300.682 252.333 300.682ZM252.333 299.848C252.333 300.126 252.612 300.126 252.333 299.848C252.612 299.848 252.333 299.848 252.333 299.848Z" fill="#390028"/>
<path opacity="0.11" d="M245.633 304.022C245.075 304.022 244.795 303.744 244.795 303.187C244.795 302.631 245.075 302.353 245.633 302.353C246.191 302.353 246.471 302.631 246.471 303.187C246.471 303.466 246.191 304.022 245.633 304.022ZM245.633 302.909C245.633 303.187 245.912 303.187 245.633 302.909C245.912 302.909 245.912 302.909 245.633 302.909Z" fill="#390028"/>
<path opacity="0.11" d="M251.774 305.691C250.937 305.691 250.379 305.134 250.379 304.3C250.379 303.465 250.937 302.908 251.774 302.908C252.612 302.908 253.17 303.465 253.17 304.3C253.17 305.134 252.612 305.691 251.774 305.691ZM251.774 303.743C251.495 303.743 251.216 304.021 251.216 304.3C251.216 304.578 251.495 304.856 251.774 304.856C252.054 304.856 252.333 304.578 252.333 304.3C252.612 304.021 252.333 303.743 251.774 303.743Z" fill="#390028"/>
</g>
<g opacity="0.11">
<path opacity="0.11" d="M286.675 304.022C286.117 304.022 285.837 303.743 285.837 303.187C285.837 302.63 286.117 302.352 286.675 302.352C287.233 302.352 287.513 302.63 287.513 303.187C287.513 303.465 287.233 304.022 286.675 304.022ZM286.675 302.909C286.675 302.909 286.396 302.909 286.675 302.909C286.396 303.187 286.954 303.187 286.675 302.909C286.675 302.909 286.954 302.909 286.675 302.909Z" fill="#390028"/>
<path opacity="0.11" d="M279.978 307.083C279.42 307.083 279.141 306.804 279.141 306.248C279.141 305.691 279.42 305.413 279.978 305.413C280.536 305.413 280.816 305.691 280.816 306.248C280.816 306.804 280.536 307.083 279.978 307.083ZM279.978 306.248C279.978 306.526 280.257 306.526 279.978 306.248C280.257 306.248 280.257 306.248 279.978 306.248Z" fill="#390028"/>
<path opacity="0.11" d="M286.119 309.031C285.281 309.031 284.723 308.474 284.723 307.639C284.723 306.805 285.281 306.248 286.119 306.248C286.956 306.248 287.514 306.805 287.514 307.639C287.514 308.474 286.956 309.031 286.119 309.031ZM286.119 307.083C285.839 307.083 285.56 307.361 285.56 307.639C285.56 307.918 285.839 308.196 286.119 308.196C286.398 308.196 286.677 307.918 286.677 307.639C286.956 307.361 286.677 307.083 286.119 307.083Z" fill="#390028"/>
</g>
<path d="M181.418 289.548L162.433 322.384C156.012 333.515 164.108 347.428 176.951 347.428H214.921C227.764 347.428 235.86 333.515 229.439 322.384L210.454 289.548C204.033 278.417 187.84 278.417 181.418 289.548Z" fill="white"/>
<path opacity="0.11" d="M171.646 319.324C170.808 318.489 169.971 317.376 169.971 316.541C169.971 315.985 170.25 315.428 170.529 314.871C170.808 314.593 171.088 314.315 171.646 314.593C171.925 314.593 172.483 314.871 172.483 315.15C172.483 314.871 172.483 314.593 172.763 314.593C173.321 313.758 174.438 313.758 175.275 314.037C175.833 314.315 176.113 314.593 176.392 315.15C176.671 315.428 176.95 315.706 177.508 315.984C177.788 315.984 177.788 316.263 177.788 316.541C177.788 316.819 177.509 316.819 177.229 316.819C176.671 316.541 176.392 316.263 176.113 315.706C175.833 315.428 175.554 315.15 174.996 314.871C174.438 314.593 173.6 314.593 173.321 315.15C173.042 315.428 173.042 315.985 173.042 316.541C173.042 316.819 173.042 316.819 172.763 316.819C172.483 316.819 172.483 316.819 172.483 316.541C172.204 315.985 171.925 315.428 171.367 315.428C171.088 315.428 171.087 315.428 170.808 315.706C170.529 315.984 170.529 316.263 170.529 316.819C170.529 317.654 171.088 318.489 171.646 319.045C172.204 318.767 172.204 319.045 171.646 319.324C171.925 319.324 171.925 319.324 171.646 319.324Z" fill="#390028"/>
<path opacity="0.11" d="M167.739 329.341C166.901 328.785 166.622 327.95 166.343 327.393C166.343 326.837 166.343 326.559 166.622 326.002C166.901 325.446 167.739 325.446 168.297 325.724C168.855 326.002 169.134 326.28 169.414 326.837C169.414 327.115 169.414 327.115 169.414 327.393C169.134 327.393 169.135 327.393 168.855 327.393C168.576 327.115 168.297 326.837 168.018 326.559C167.739 326.559 167.459 326.559 167.18 326.559C167.18 326.837 167.18 327.115 167.18 327.393C167.18 327.95 167.739 328.507 168.018 329.063C168.297 329.063 168.297 329.341 167.739 329.341C168.018 329.341 168.018 329.341 167.739 329.341Z" fill="#390028"/>
<path opacity="0.11" d="M193.147 314.872C192.867 314.872 192.868 314.872 192.868 314.593C192.588 314.037 192.309 313.48 192.03 312.924C191.751 312.645 191.472 312.367 191.193 312.367C190.913 312.367 190.355 312.367 190.355 312.924C190.076 313.202 190.076 313.758 190.355 314.037C190.355 314.315 190.355 314.315 190.355 314.593C190.076 314.593 190.076 314.593 189.797 314.593C189.238 314.037 189.238 313.202 189.517 312.645C189.797 312.089 190.634 311.811 191.193 311.811C191.751 311.811 192.03 312.089 192.309 312.645C192.867 313.202 193.147 313.758 193.426 314.593C193.426 314.593 193.426 314.872 193.147 314.872Z" fill="#390028"/>
<path opacity="0.11" d="M190.075 329.065C189.796 329.065 189.796 329.065 189.796 328.786C189.517 327.952 189.517 327.117 189.517 326.282C189.517 325.447 189.796 325.169 190.075 325.169C190.354 325.169 190.633 325.169 190.913 325.169C191.192 325.169 191.471 325.447 191.75 325.725C191.75 325.169 192.309 324.612 192.588 324.334C193.704 323.777 194.542 324.334 195.1 324.891C195.379 325.169 195.658 325.169 195.938 325.447C196.217 325.725 196.775 326.004 197.054 326.282C197.334 326.282 197.333 326.56 197.333 326.838C197.333 327.117 197.054 327.117 196.775 327.117C196.217 326.838 195.938 326.56 195.379 326.282C195.1 326.004 194.821 326.004 194.542 325.725C194.263 325.447 193.425 324.891 192.588 325.447C192.309 325.447 192.029 326.004 192.029 326.282C192.029 326.282 192.029 326.56 192.029 326.838C192.029 326.838 192.029 327.117 192.029 327.395C192.029 327.395 191.75 327.673 191.471 327.395C191.471 327.395 191.471 327.395 191.192 327.117C190.913 326.838 190.354 326.56 189.796 326.282H189.517C189.517 326.282 189.517 326.56 189.517 326.838C189.517 327.673 189.796 328.508 189.796 329.343C190.354 328.786 190.354 329.065 190.075 329.065Z" fill="#390028"/>
<path opacity="0.11" d="M199.007 296.506C198.728 296.506 198.728 296.505 198.728 296.227C198.728 295.392 198.728 294.558 198.728 293.723C198.728 293.166 199.007 292.61 199.566 292.331C200.124 292.053 200.961 292.053 201.24 292.61C201.52 292.888 201.799 292.888 201.799 293.166C202.078 292.888 202.078 292.61 202.357 292.331C202.916 291.775 203.753 291.775 204.591 291.775C205.986 292.053 206.824 293.166 207.661 294.001C207.661 294.279 207.661 294.279 207.661 294.558C207.382 294.558 207.382 294.558 207.103 294.558C206.545 293.723 205.707 292.888 204.591 292.61C204.032 292.61 203.474 292.61 202.915 292.888C202.636 293.166 202.357 293.445 202.357 294.001C202.357 294.279 202.357 294.279 202.078 294.279C201.799 294.279 201.799 294.279 201.799 294.001C201.52 293.723 201.241 293.166 200.961 292.888C200.682 292.61 200.403 292.61 200.124 292.61C199.845 292.61 199.845 293.166 199.566 293.445C199.286 294.279 199.286 294.836 199.566 295.671C199.286 296.227 199.286 296.506 199.007 296.506Z" fill="#390028"/>
<path opacity="0.11" d="M214.364 328.229C214.364 328.229 214.084 328.229 214.084 327.951C213.805 327.116 213.805 326.281 213.805 325.725C213.805 325.168 214.085 324.333 214.922 324.333C215.201 324.333 215.48 324.334 215.76 324.612C216.597 325.168 217.435 326.003 217.993 326.838C217.993 327.116 217.993 327.116 217.993 327.395C217.714 327.395 217.714 327.395 217.434 327.395C216.876 326.56 216.318 326.003 215.48 325.447H215.201C214.922 325.447 214.922 325.725 214.922 326.281C214.922 326.838 214.922 327.673 215.201 328.229C214.922 327.951 214.643 328.229 214.364 328.229C214.364 328.229 214.643 328.229 214.364 328.229Z" fill="#390028"/>
<path opacity="0.11" d="M212.966 347.707H178.626C178.347 347.707 178.346 347.429 178.346 347.429V317.654C178.346 312.088 182.814 307.636 188.397 307.636H203.194C208.778 307.636 213.245 312.088 213.245 317.654V347.429C213.524 347.707 213.245 347.707 212.966 347.707ZM178.905 347.15H212.687V317.654C212.687 312.366 208.499 308.192 203.194 308.192H188.397C183.093 308.192 178.905 312.366 178.905 317.654V347.15V347.15Z" fill="#390028"/>
<path d="M212.966 347.429H178.625V317.654C178.625 312.366 183.092 307.914 188.397 307.914H203.194C208.498 307.914 212.966 312.366 212.966 317.654V347.429Z" fill="#390028"/>
<g opacity="0.11">
<path opacity="0.11" d="M190.91 296.227C190.352 296.227 190.073 295.948 190.073 295.392C190.073 294.835 190.352 294.557 190.91 294.557C191.468 294.557 191.748 294.835 191.748 295.392C191.748 295.948 191.189 296.227 190.91 296.227ZM190.91 295.114C190.631 295.114 190.631 295.392 190.91 295.114C190.631 295.67 190.91 295.67 190.91 295.114C190.91 295.114 190.91 295.392 190.91 295.114Z" fill="#390028"/>
<path opacity="0.11" d="M184.21 299.288C183.652 299.288 183.373 299.01 183.373 298.453C183.373 297.896 183.652 297.618 184.21 297.618C184.769 297.618 185.048 297.896 185.048 298.453C185.048 299.01 184.489 299.288 184.21 299.288ZM184.21 298.453C184.21 298.453 183.931 298.453 184.21 298.453C183.931 298.731 184.21 298.731 184.21 298.453Z" fill="#390028"/>
<path opacity="0.11" d="M190.352 301.236C189.514 301.236 188.956 300.679 188.956 299.844C188.956 299.01 189.514 298.453 190.352 298.453C191.189 298.453 191.748 299.01 191.748 299.844C191.748 300.679 190.91 301.236 190.352 301.236ZM190.352 299.288C190.072 299.288 189.793 299.566 189.793 299.844C189.793 300.123 190.072 300.401 190.352 300.401C190.631 300.401 190.91 300.123 190.91 299.844C190.91 299.566 190.631 299.288 190.352 299.288Z" fill="#390028"/>
</g>
<g opacity="0.11">
<path opacity="0.11" d="M223.576 330.732C223.297 330.732 223.297 330.732 223.018 330.453C222.739 330.175 222.739 330.175 222.739 329.897C222.739 329.619 222.739 329.34 223.018 329.34C223.297 329.062 223.297 329.062 223.576 329.062C223.855 329.062 224.134 329.062 224.134 329.34C224.414 329.618 224.414 329.619 224.414 329.897C224.414 330.175 224.414 330.453 224.134 330.453C223.855 330.732 223.576 330.732 223.576 330.732ZM223.576 329.897C223.297 329.897 223.297 329.897 223.576 329.897C223.297 329.897 223.297 329.897 223.576 329.897C223.297 329.897 223.297 329.897 223.576 329.897C223.576 330.175 223.297 330.175 223.576 329.897Z" fill="#390028"/>
<path opacity="0.11" d="M216.318 329.063C216.039 329.063 216.039 329.063 215.759 328.785C215.48 328.506 215.48 327.95 215.759 327.672C216.039 327.393 216.597 327.393 216.876 327.672C217.155 327.95 217.155 327.95 217.155 328.228C217.155 328.506 217.155 328.785 216.876 328.785C216.876 328.785 216.597 329.063 216.318 329.063ZM216.318 327.95C216.039 328.228 216.039 328.228 216.318 327.95C216.318 328.228 216.318 328.228 216.318 327.95C216.318 328.228 216.318 328.228 216.318 327.95C216.597 327.95 216.597 328.228 216.318 327.95Z" fill="#390028"/>
<path opacity="0.11" d="M220.224 334.351C219.945 334.351 219.666 334.351 219.387 334.073C219.108 333.794 218.829 333.516 218.829 333.238C218.829 332.96 218.829 332.403 219.108 332.403C219.666 331.846 220.504 331.846 221.062 332.125C221.341 332.403 221.62 332.681 221.62 332.96C221.62 333.238 221.62 333.794 221.341 333.794C220.783 334.351 220.504 334.351 220.224 334.351ZM220.224 332.403C219.945 332.403 219.945 332.403 219.666 332.681C219.666 332.681 219.387 332.96 219.387 333.238C219.387 333.516 219.387 333.516 219.666 333.794C219.945 334.073 220.225 334.073 220.504 333.794C220.504 333.794 220.783 333.516 220.783 333.238C220.783 332.96 220.783 332.96 220.504 332.681C220.504 332.403 220.224 332.403 220.224 332.403Z" fill="#390028"/>
</g>
<path d="M371.549 355.22H170.253C160.761 355.22 152.943 347.429 152.943 337.967H389.138C388.859 347.429 381.042 355.22 371.549 355.22Z" fill="#CC3E3E"/>
<path d="M66.3626 172.844C67.4778 172.844 68.3818 171.943 68.3818 170.832C68.3818 169.72 67.4778 168.819 66.3626 168.819C65.2474 168.819 64.3433 169.72 64.3433 170.832C64.3433 171.943 65.2474 172.844 66.3626 172.844Z" fill="#F9B361"/>
<path d="M135.526 14.5919C136.641 14.5919 137.545 13.6907 137.545 12.5791C137.545 11.4675 136.641 10.5664 135.526 10.5664C134.411 10.5664 133.507 11.4675 133.507 12.5791C133.507 13.6907 134.411 14.5919 135.526 14.5919Z" fill="#F9B361"/>
<path d="M358.668 150.201C359.783 150.201 360.687 149.3 360.687 148.188C360.687 147.076 359.783 146.175 358.668 146.175C357.553 146.175 356.649 147.076 356.649 148.188C356.649 149.3 357.553 150.201 358.668 150.201Z" fill="#F9B361"/>
<path d="M278.651 4.0255C279.766 4.0255 280.67 3.12436 280.67 2.01275C280.67 0.901144 279.766 0 278.651 0C277.536 0 276.632 0.901144 276.632 2.01275C276.632 3.12436 277.536 4.0255 278.651 4.0255Z" fill="#F9B361"/>
<path d="M36.325 35.2232C37.4402 35.2232 38.3442 34.3221 38.3442 33.2105C38.3442 32.0989 37.4402 31.1978 36.325 31.1978C35.2098 31.1978 34.3058 32.0989 34.3058 33.2105C34.3058 34.3221 35.2098 35.2232 36.325 35.2232Z" fill="#F9B361"/>
<path d="M322.572 96.8634C323.687 96.8634 324.591 95.9623 324.591 94.8506C324.591 93.739 323.687 92.8379 322.572 92.8379C321.457 92.8379 320.552 93.739 320.552 94.8506C320.552 95.9623 321.457 96.8634 322.572 96.8634Z" fill="#F9B361"/>
<path d="M258.96 86.5484C259.518 86.5484 259.97 86.0978 259.97 85.542C259.97 84.9862 259.518 84.5356 258.96 84.5356C258.402 84.5356 257.95 84.9862 257.95 85.542C257.95 86.0978 258.402 86.5484 258.96 86.5484Z" fill="#F9B361"/>
<path d="M405.619 105.92C406.177 105.92 406.629 105.47 406.629 104.914C406.629 104.358 406.177 103.908 405.619 103.908C405.062 103.908 404.61 104.358 404.61 104.914C404.61 105.47 405.062 105.92 405.619 105.92Z" fill="#F9B361"/>
<path d="M349.834 40.7584C350.95 40.7584 351.854 39.8573 351.854 38.7457C351.854 37.6341 350.95 36.7329 349.834 36.7329C348.719 36.7329 347.815 37.6341 347.815 38.7457C347.815 39.8573 348.719 40.7584 349.834 40.7584Z" fill="#F9B361"/>
<path d="M87.8196 92.5865C88.656 92.5865 89.3339 91.9107 89.3339 91.077C89.3339 90.2433 88.656 89.5674 87.8196 89.5674C86.9832 89.5674 86.3051 90.2433 86.3051 91.077C86.3051 91.9107 86.9832 92.5865 87.8196 92.5865Z" fill="#F9B361"/>
<path d="M369.271 212.344C370.107 212.344 370.785 211.668 370.785 210.835C370.785 210.001 370.107 209.325 369.271 209.325C368.434 209.325 367.756 210.001 367.756 210.835C367.756 211.668 368.434 212.344 369.271 212.344Z" fill="#F9B361"/>
<path d="M8.80985 149.446C9.64625 149.446 10.3243 148.77 10.3243 147.936C10.3243 147.103 9.64625 146.427 8.80985 146.427C7.97346 146.427 7.29541 147.103 7.29541 147.936C7.29541 148.77 7.97346 149.446 8.80985 149.446Z" fill="#F9B361"/>
</svg>
