<svg width="415" height="349" viewBox="0 0 415 349" fill="none" xmlns="http://www.w3.org/2000/svg">
<g opacity="0.61">
<g opacity="0.61">
<g opacity="0.61">
<g opacity="0.41">
<path opacity="0.41" d="M2.99677 246.159C0.226795 242.89 0.226857 237.861 2.74501 235.095C5.26317 232.329 11.5585 230.569 14.3285 233.838C17.0984 237.107 13.0694 241.884 12.314 245.907C10.8031 251.439 5.76674 249.427 2.99677 246.159Z" fill="#FF9455"/>
</g>
<g opacity="0.41">
<path opacity="0.41" d="M411.694 197.631C415.22 200.648 415.975 206.431 413.205 210.454C410.687 214.477 403.888 218.249 400.614 215.231C397.089 212.214 401.118 205.677 401.622 200.648C402.377 193.608 408.169 194.613 411.694 197.631Z" fill="#FF9455"/>
</g>
<g opacity="0.41">
<path opacity="0.41" d="M212.256 46.0138C216.033 41.4879 223.336 39.9793 228.876 42.9965C234.416 46.0138 239.452 54.3112 235.927 58.8371C232.15 63.363 223.588 59.0886 217.041 58.5857C207.723 58.3343 208.479 50.7911 212.256 46.0138Z" fill="#FF9455"/>
</g>
</g>
<g opacity="0.28">
<g opacity="0.28">
<g opacity="0.28">
<path opacity="0.28" d="M27.423 314.047C23.3939 290.915 29.6893 271.051 31.452 248.422C32.9629 227.05 26.4157 208.946 22.8903 188.328C19.6167 170.225 20.8757 149.355 24.653 131.503C30.1929 107.113 42.7837 84.484 60.6627 70.6549C88.866 49.0312 126.387 51.797 157.612 66.3804C170.706 72.6664 183.297 80.7124 197.147 82.9754C217.544 85.9926 237.437 75.6837 257.079 69.3977C284.023 60.8488 313.737 60.3459 339.171 73.6722C368.129 88.7585 388.527 123.206 386.26 160.921C385.253 178.019 379.713 194.866 381.476 211.963C383.49 229.313 392.052 243.645 396.585 259.988C400.866 274.823 402.376 294.687 399.858 312.79C397.844 326.871 386.008 337.431 371.655 337.431H55.3745C41.7765 337.18 29.9411 327.625 27.423 314.047Z" fill="#FF9455"/>
</g>
</g>
</g>
<g opacity="0.66">
<g opacity="0.66">
<g opacity="0.47">
<path opacity="0.47" d="M367.199 205.549C365.618 184.728 357.397 163.907 343.169 149.08C321.035 125.735 287.519 120.056 258.113 125.419C245.782 127.628 233.45 131.729 221.119 130.467C202.78 128.574 186.654 116.271 169.896 106.806C147.13 94.1875 120.886 87.5626 96.8555 92.9256C69.3469 99.235 46.8973 122.265 44.0516 153.181C42.7869 167.062 55.1183 191.984 51.324 205.234C47.2135 218.799 18.4401 259.81 19.0725 291.358C19.7049 318.173 24.7639 328.899 32.0363 341.518C34.2496 345.619 38.6763 348.142 43.4192 348.142H326.727H333.683C339.374 348.142 344.433 344.357 346.331 338.994C350.441 326.69 352.338 315.018 346.647 297.982C341.271 280.947 356.132 267.066 361.824 251.608C366.883 237.727 368.464 221.007 367.199 205.549Z" fill="#FF5F00"/>
</g>
</g>
</g>
</g>
</g>
<path d="M107.072 174.667C143.614 174.667 173.236 145.089 173.236 108.602C173.236 72.1157 143.614 42.5376 107.072 42.5376C70.5312 42.5376 40.9087 72.1157 40.9087 108.602C40.9087 145.089 70.5312 174.667 107.072 174.667Z" fill="#F9B361"/>
<path d="M107.073 162.442C136.853 162.442 160.994 138.337 160.994 108.602C160.994 78.8672 136.853 54.7622 107.073 54.7622C77.2938 54.7622 53.1526 78.8672 53.1526 108.602C53.1526 138.337 77.2938 162.442 107.073 162.442Z" fill="white"/>
<path d="M127.392 72.1897C126.61 71.9296 126.35 70.8893 126.871 70.109L130.257 64.1268C130.518 63.3465 131.56 63.0864 132.342 63.6066C133.123 63.8667 133.384 64.907 132.863 65.6873L129.476 71.6696C128.955 72.1898 127.913 72.4498 127.392 72.1897Z" fill="#FD4932"/>
<path d="M82.3276 153.86C81.546 153.6 81.2854 152.56 81.8065 151.779L85.1933 145.797C85.4539 145.017 86.4959 144.757 87.2775 145.277C88.0591 145.537 88.3196 146.577 87.7986 147.358L84.4117 153.34C83.8907 153.86 83.1091 154.12 82.3276 153.86Z" fill="#FD4932"/>
<path d="M143.803 128.631C144.064 127.851 145.106 127.591 145.887 128.111L151.879 131.492C152.661 131.752 152.921 132.793 152.4 133.573C152.14 134.353 151.098 134.613 150.316 134.093L144.324 130.712C143.543 130.452 143.282 129.411 143.803 128.631Z" fill="#FD4932"/>
<path d="M62.0101 83.8939C62.2706 83.1136 63.3127 82.8535 64.0943 83.3737L70.0863 86.7549C70.8679 87.015 71.1284 88.0554 70.6074 88.8357C70.3469 89.616 69.3048 89.8761 68.5232 89.3559L62.5311 85.9746C61.7495 85.4544 61.4891 84.414 62.0101 83.8939Z" fill="#FD4932"/>
<path d="M149.013 96.6392C148.753 95.8589 149.274 95.0786 150.055 94.8185L153.442 93.7781C154.224 93.518 155.005 94.0382 155.266 94.8185C155.526 95.5988 155.005 96.3791 154.224 96.6392L150.837 97.6796C150.055 97.6796 149.274 97.4195 149.013 96.6392Z" fill="#FD4932"/>
<path d="M59.1447 122.648C58.8842 121.868 59.4052 121.087 60.1868 120.827L64.3552 119.527C65.1367 119.267 65.9183 119.787 66.1788 120.567C66.4393 121.347 65.9183 122.128 65.1367 122.388L60.9683 123.688C60.1867 123.688 59.1447 123.428 59.1447 122.648Z" fill="#FD4932"/>
<path d="M119.318 150.479C120.099 150.219 120.881 150.739 121.141 151.52L122.183 154.901C122.444 155.681 121.923 156.461 121.141 156.722C120.36 156.982 119.578 156.462 119.318 155.681L118.276 152.3C118.015 151.52 118.536 150.739 119.318 150.479Z" fill="#FD4932"/>
<path d="M93.2706 60.7454C94.0521 60.4853 94.8337 61.0055 95.0942 61.7858L96.3968 65.9473C96.6573 66.7276 96.1363 67.5079 95.3547 67.768C94.5732 68.0281 93.7916 67.5079 93.531 66.7276L92.2284 62.5661C91.9679 61.7858 92.489 60.7454 93.2706 60.7454Z" fill="#FD4932"/>
<path d="M107.596 108.342C106.814 108.602 105.772 108.081 105.512 107.301L97.9577 80.5112C97.6972 79.7309 98.2181 78.6906 98.9996 78.4305C99.781 78.1704 100.823 78.6905 101.084 79.4708L108.638 106.261C108.898 107.301 108.377 108.342 107.596 108.342Z" fill="#FD4932"/>
<path d="M106.295 110.164C106.035 109.383 106.556 108.343 107.337 108.083L129.739 101.58C130.52 101.32 131.562 101.84 131.823 102.621C132.083 103.401 131.562 104.441 130.781 104.702L108.379 111.204C107.337 111.464 106.556 110.944 106.295 110.164Z" fill="#FD4932"/>
<path d="M107.075 114.326C110.24 114.326 112.806 111.764 112.806 108.603C112.806 105.443 110.24 102.881 107.075 102.881C103.91 102.881 101.344 105.443 101.344 108.603C101.344 111.764 103.91 114.326 107.075 114.326Z" fill="#F9B361"/>
<path opacity="0.3" d="M287.331 30.0522C286.289 30.0522 285.508 30.0523 284.466 30.3124C302.179 31.6128 316.245 46.4384 316.245 64.6452C316.245 80.5111 292.541 105.48 284.466 113.543C286.029 115.364 287.331 116.144 287.331 116.144C287.331 116.144 321.976 83.6322 321.976 64.6452C321.976 45.398 306.347 30.0522 287.331 30.0522Z" fill="white"/>
<path d="M286.55 43.5767C275.87 43.5767 267.014 52.42 267.014 63.0839C267.014 73.7479 275.87 82.5912 286.55 82.5912C297.23 82.5912 306.087 73.7479 306.087 63.0839C306.087 52.1599 297.23 43.5767 286.55 43.5767Z" fill="white"/>
<path d="M345.161 342.431C366.452 342.431 383.713 325.197 383.713 303.937C383.713 282.677 366.452 265.442 345.161 265.442C323.869 265.442 306.609 282.677 306.609 303.937C306.609 325.197 323.869 342.431 345.161 342.431Z" fill="#390028"/>
<path d="M345.16 326.826C357.244 326.826 367.041 317.044 367.041 304.978C367.041 292.912 357.244 283.13 345.16 283.13C333.075 283.13 323.279 292.912 323.279 304.978C323.279 317.044 333.075 326.826 345.16 326.826Z" fill="white"/>
<path d="M291.76 249.316H343.597C365.217 249.316 382.67 266.742 382.67 288.33H291.499V249.316H291.76Z" fill="#DA4D4D"/>
<path d="M328.75 223.046L296.971 179.87C294.105 176.229 292.282 171.807 290.979 167.385L290.719 166.865L300.357 164.524C301.138 164.264 301.659 163.484 301.399 162.964L295.929 140.856C295.147 137.994 292.282 136.434 289.677 136.954L280.039 139.295C272.224 141.116 267.275 149.179 269.099 156.982V157.242L278.476 195.736L286.03 184.032V291.452L301.138 305.237L330.313 258.94C337.086 247.235 336.304 233.45 328.75 223.046Z" fill="#FB6464"/>
<path d="M290.979 167.385L290.719 166.865L300.357 164.524C301.138 164.264 301.659 163.484 301.399 162.964L295.929 140.856C295.147 137.994 292.282 136.434 289.677 136.954L280.039 139.295C272.224 141.116 267.275 149.179 269.099 156.982V157.242L271.443 167.125L289.938 166.865C290.719 167.125 290.979 167.125 290.979 167.385Z" fill="#FF5E4D"/>
<path d="M184.701 318.241H277.955C292.803 318.241 305.046 306.016 305.046 291.191V288.33H170.374V304.196C170.634 311.998 176.886 318.241 184.701 318.241Z" fill="#FB6464"/>
<path d="M217 288.33L63.0522 274.805C61.7498 274.805 60.9683 273.504 60.9683 272.464C61.2287 270.383 61.2288 267.522 61.7498 265.702C65.9176 243.333 85.7145 226.687 109.158 226.687H207.623C211.79 226.687 214.135 231.109 212.051 234.75L206.06 244.634C198.506 257.118 200.589 273.244 211.009 283.388L217 288.33Z" fill="#FB6464"/>
<path d="M216.999 226.427H109.158C86.2347 226.427 66.9587 242.293 62.0095 263.881C61.228 267.262 60.707 270.903 60.707 274.805L141.718 281.047C141.718 281.047 129.476 275.845 129.476 247.755C129.476 226.166 159.432 226.167 159.432 226.167" fill="#DA4D4D"/>
<path opacity="0.25" d="M159.171 226.427H105.25C90.9235 226.427 64.6143 242.293 61.4885 263.881C60.9675 267.262 60.707 270.903 60.707 274.805L109.679 278.706C109.679 278.706 101.864 276.365 103.948 247.755C105.771 226.427 122.703 226.167 122.703 226.167" fill="#390028"/>
<path d="M58.8846 233.189H121.402C125.569 233.189 128.695 230.328 128.695 226.687V154.12C128.695 150.478 125.309 147.617 121.402 147.617H58.8846C48.7256 147.617 40.6505 155.16 40.6505 164.263V216.803C40.39 225.646 48.7256 233.189 58.8846 233.189Z" fill="#FFD2AB"/>
<path d="M59.7092 233.965H123.778C128.049 233.965 131.253 225.765 131.253 222.286C131.253 222.286 41.0225 220.298 41.2894 221.54C43.1581 228.498 50.6328 233.965 59.7092 233.965Z" fill="#DA4D4D"/>
<path d="M128.434 170.246V154.12C128.434 150.478 125.047 147.617 121.14 147.617H58.6233C48.4643 147.617 40.3892 155.16 40.3892 164.263V170.766L128.434 170.246Z" fill="#FF7000"/>
<path d="M127.391 222.266H41.1696C40.3882 222.266 39.8672 221.745 39.8672 220.965C39.8672 220.185 40.3882 219.665 41.1696 219.665H127.391C128.172 219.665 128.693 220.185 128.693 220.965C128.693 221.745 128.172 222.266 127.391 222.266Z" fill="#FF4628"/>
<path d="M127.391 172.328H41.1696C40.3882 172.328 39.8672 171.807 39.8672 171.027C39.8672 170.247 40.3882 169.727 41.1696 169.727H127.391C128.172 169.727 128.693 170.247 128.693 171.027C128.693 171.807 128.172 172.328 127.391 172.328Z" fill="#FF4628"/>
<path d="M220.384 238.651C220.645 240.471 219.082 242.292 217.258 242.292L143.801 241.512C137.028 241.512 130.777 236.57 128.432 229.547L122.441 212.641C119.836 204.838 124.525 196.515 131.819 195.995L202.15 193.914C209.704 193.654 215.956 199.896 216.998 208.219L220.384 238.651Z" fill="#FF7000"/>
<path opacity="0.22" d="M201.891 193.915L131.559 195.996C129.736 195.996 127.913 196.776 126.61 197.817L131.299 211.342C133.904 218.624 139.895 223.306 146.668 223.306L218.302 224.086L216.478 208.22C215.697 199.897 209.445 193.655 201.891 193.915Z" fill="#390028"/>
<path d="M311.556 227.467C311.296 226.427 310.775 225.387 310.514 224.606L286.549 176.749C277.172 181.17 272.744 192.354 276.651 201.978L282.121 215.763C285.247 223.566 286.81 232.149 286.81 240.472V254.257C286.81 272.984 271.702 288.07 252.947 288.07H216.999L114.628 278.967V302.896H170.633H216.999H270.139C280.037 302.896 292.801 293.792 299.834 280.527C306.867 267.522 310.514 251.396 312.077 242.553C313.119 237.871 313.119 232.409 311.556 227.467Z" fill="#DA4D4D"/>
<path d="M300.69 164.893C304.603 163.939 306.198 156.718 304.253 148.764C302.308 140.811 297.559 135.136 293.646 136.09C289.733 137.044 288.138 144.266 290.083 152.219C292.028 160.173 296.777 165.847 300.69 164.893Z" fill="#FFD98B"/>
<path opacity="0.39" d="M297.604 152.611C299.84 152.065 300.74 147.89 299.614 143.286C298.488 138.681 295.762 135.39 293.526 135.935C291.29 136.48 290.39 140.655 291.516 145.26C292.642 149.865 295.368 153.156 297.604 152.611Z" fill="white"/>
<path d="M272.221 158.541L244.349 165.303C243.307 165.564 242.265 164.783 242.005 163.743L241.223 160.882C240.963 159.841 241.744 158.801 242.786 158.541L270.658 151.778C271.7 151.518 272.742 152.299 273.003 153.339L273.784 156.2C273.784 157.24 273.263 158.281 272.221 158.541Z" fill="#390028"/>
<path d="M275.087 162.182L271.18 163.223C269.617 163.743 267.794 162.703 267.533 160.882L265.449 152.819L272.222 151.258L275.087 162.182Z" fill="#390028"/>
<path d="M245.133 166.865C243.049 167.385 240.964 166.085 240.443 164.004L239.922 162.183C239.401 160.102 240.704 158.022 242.788 157.501C244.872 156.981 246.956 158.282 247.477 160.363L247.999 162.183C248.52 164.264 247.217 166.345 245.133 166.865Z" fill="#390028"/>
<path d="M101.865 342.43C123.156 342.43 140.417 325.196 140.417 303.936C140.417 282.676 123.156 265.441 101.865 265.441C80.5728 265.441 63.3125 282.676 63.3125 303.936C63.3125 325.196 80.5728 342.43 101.865 342.43Z" fill="#390028"/>
<path d="M101.863 326.826C113.947 326.826 123.744 317.044 123.744 304.978C123.744 292.911 113.947 283.129 101.863 283.129C89.7783 283.129 79.9819 292.911 79.9819 304.978C79.9819 317.044 89.7783 326.826 101.863 326.826Z" fill="white"/>
<path d="M162.82 314.08H112.807C106.815 314.08 101.866 309.658 101.866 303.936C101.866 298.214 106.815 293.792 112.807 293.792H162.82C168.811 293.792 173.761 298.214 173.761 303.936C173.761 309.398 168.811 314.08 162.82 314.08Z" fill="#F94A3D"/>
<path d="M102.906 315.38C109.236 315.38 114.367 310.256 114.367 303.936C114.367 297.615 109.236 292.492 102.906 292.492C96.576 292.492 91.4446 297.615 91.4446 303.936C91.4446 310.256 96.576 315.38 102.906 315.38Z" fill="#390028"/>
<path d="M345.16 316.16C351.49 316.16 356.621 311.036 356.621 304.716C356.621 298.395 351.49 293.271 345.16 293.271C338.83 293.271 333.698 298.395 333.698 304.716C333.698 311.036 338.83 316.16 345.16 316.16Z" fill="#390028"/>
<path d="M271.441 144.494C271.441 142.413 270.139 140.593 268.576 139.292L263.887 136.171C261.803 134.87 259.459 134.87 257.375 135.911L228.461 130.189L203.975 98.1968L187.304 124.467L209.966 151.257L248.258 151.517C252.686 153.597 257.635 156.459 258.938 156.459C263.105 156.719 266.752 153.597 267.013 149.436V148.395L267.794 149.956C268.055 150.216 268.315 150.736 268.836 150.736C270.139 151.257 271.441 150.216 271.441 148.656V144.494Z" fill="#F9A06E"/>
<path d="M223.251 120.566L196.942 141.114L173.759 116.925L206.059 93.5161L223.772 116.145C224.814 117.445 224.554 119.526 223.251 120.566Z" fill="#EE6B04"/>
<path d="M202.853 49.5442C207.165 49.7143 210.803 46.2452 210.979 41.7957C211.155 37.3461 207.802 33.6012 203.489 33.4311C199.177 33.261 195.538 36.7301 195.363 41.1796C195.187 45.6291 198.54 49.3741 202.853 49.5442Z" fill="#EA9561"/>
<path d="M205.801 38.1157C205.801 33.4339 201.113 29.2724 195.382 29.2724L183.66 29.0123C177.929 28.7522 173.501 32.6536 173.501 37.3354L174.022 60.484L170.115 85.4533C169.594 88.8346 172.198 91.6956 175.845 92.4759L184.702 93.7764C188.349 94.2966 191.735 92.2159 192.256 88.8346L194.34 76.0898C194.6 76.0898 194.861 76.0898 195.121 76.0898C201.633 75.0494 205.801 69.3273 203.978 63.6052L205.541 44.358L205.801 38.1157Z" fill="#FFAC79"/>
<path d="M197.463 67.2483C197.463 67.2483 199.287 66.7277 200.068 68.0293Z" fill="#FFAC79"/>
<path d="M200.069 68.8081C199.808 68.8081 199.548 68.808 199.548 68.548C198.766 67.5076 197.463 67.7677 197.463 68.0278C197.203 68.0278 196.682 68.0278 196.682 67.5076C196.682 67.2475 196.682 66.7273 197.203 66.7273C197.203 66.7273 199.287 66.2071 200.59 67.7677C200.85 68.0277 200.85 68.548 200.329 68.548C200.329 68.808 200.329 68.8081 200.069 68.8081Z" fill="#FF7000"/>
<path d="M191.733 48.7803C192.254 49.0404 192.775 48.7803 193.296 48.7803C193.817 48.7803 194.599 48.5203 195.12 48.5203C195.641 48.5203 196.162 48.5202 196.943 48.2601C197.464 48.2601 198.246 48.2602 198.506 48.0001C199.027 47.74 199.027 47.2198 198.506 46.6996C197.985 46.1794 196.683 45.6592 194.859 45.6592C193.035 45.9193 191.993 46.6996 191.472 47.4799C190.951 48 191.212 48.5202 191.733 48.7803Z" fill="#390028"/>
<path d="M202.15 51.3799C202.15 52.6804 203.192 53.4607 204.234 53.4607C205.016 53.4607 205.537 53.9809 205.537 54.7612V55.0213C205.537 56.5818 204.495 57.6222 202.932 57.8823H200.847" fill="#FFAC79"/>
<path d="M201.11 58.1428C200.849 58.1428 200.589 57.8827 200.328 57.6226C200.328 57.3625 200.589 56.8423 200.849 56.8423H202.933C203.454 56.8423 203.975 56.5822 204.497 56.3221C204.757 55.8019 205.018 55.2817 205.018 54.7615V54.5014C205.018 54.2413 205.018 54.2413 204.757 53.9812C204.757 53.9812 204.497 53.7211 204.236 53.7211C202.673 53.7211 201.37 52.4206 201.37 51.1201C201.37 50.86 201.631 50.3398 201.891 50.3398C202.152 50.3398 202.412 50.5999 202.673 50.86C202.673 51.6403 203.454 52.4206 204.236 52.4206C204.757 52.4206 205.278 52.6807 205.539 52.9408C205.799 53.2009 206.06 53.7211 206.06 54.2413V54.5014C206.06 55.2817 205.799 56.3221 205.018 56.8423C204.497 57.3625 203.454 57.8826 202.673 57.8826L201.11 58.1428Z" fill="#FF7000"/>
<path d="M198.766 53.7224C198.505 52.422 197.724 50.3412 194.858 50.0811C194.337 50.0811 194.076 50.0811 193.555 50.0811C191.732 50.3412 190.429 51.9018 189.908 53.2022C189.387 54.2426 189.908 55.283 190.95 55.5431C193.816 56.0633 196.682 55.5431 197.984 55.283C198.505 55.283 198.766 54.7628 198.766 54.2426C199.026 54.2426 198.766 53.9825 198.766 53.7224Z" fill="white"/>
<path d="M198.364 56.5693C200.088 56.4822 201.421 55.1324 201.342 53.5543C201.262 51.9763 199.799 50.7675 198.075 50.8546C196.35 50.9416 195.017 52.2915 195.097 53.8696C195.177 55.4476 196.639 56.6563 198.364 56.5693Z" fill="#390028"/>
<path d="M198.246 63.0861C198.246 63.0861 193.817 63.8664 193.557 61.0054Z" fill="#FFAC79"/>
<path d="M196.942 63.8661C195.9 63.8661 194.598 63.606 193.816 63.0858C193.295 62.5656 192.774 62.0455 192.774 61.2652C192.774 61.0051 193.035 60.4849 193.295 60.4849C193.556 60.4849 194.077 60.745 194.077 61.0051C194.077 61.5253 194.337 61.7854 194.598 62.0455C195.379 62.8258 197.463 62.5656 197.985 62.5656C198.245 62.5656 198.766 62.8257 198.766 63.0858C198.766 63.3459 198.506 63.8661 198.245 63.8661C198.245 63.8661 197.724 63.8661 196.942 63.8661Z" fill="#FF7000"/>
<path opacity="0.41" d="M182.359 71.1484C182.359 71.1484 185.485 76.8706 194.081 76.3504L193.299 81.0321C192.778 81.2922 181.838 81.0321 182.359 71.1484Z" fill="#FF7000"/>
<path d="M169.855 59.9641L173.501 66.4665L178.711 54.7622C179.493 52.9415 176.106 56.3228 175.325 54.7622L174.543 53.2016H174.283C170.115 52.6814 167.51 56.8429 169.855 59.9641Z" fill="#390028"/>
<path d="M171.678 60.4842C179.753 62.825 181.316 51.3808 183.139 47.4793C185.223 43.0577 190.694 40.9769 195.122 43.0577C201.894 45.9187 206.323 45.3986 210.751 45.1385L211.272 38.1158C212.054 28.7524 205.02 20.6893 195.903 19.9091L179.232 18.6086C169.855 17.8283 161.78 24.8509 160.998 33.9543C160.998 33.9543 160.998 44.0981 161.258 48.7798C161.779 58.6635 171.157 60.2241 171.678 60.4842Z" fill="#FF7000"/>
<path d="M211.532 37.8556C212.314 28.4921 205.281 20.4291 196.164 19.6488L179.492 18.3483C174.022 17.8281 168.812 20.169 165.426 24.0704C168.552 21.7296 172.72 20.4291 177.148 20.6892L193.819 21.9897C203.197 22.77 209.97 30.833 209.188 40.1965L208.667 45.1383C209.449 45.1383 210.23 45.1383 211.011 44.8782L211.532 37.8556Z" fill="#EA9561"/>
<path d="M211.011 45.6578L197.205 45.1376C194.861 45.1376 193.298 43.3169 193.298 40.9761L214.137 41.7564V42.7968C214.137 44.3574 212.574 45.6578 211.011 45.6578Z" fill="#390028"/>
<path d="M171.678 53.461C171.678 53.461 171.417 53.461 171.678 53.461C169.072 53.461 167.249 51.3802 167.249 49.0393C167.249 47.9989 167.77 46.6985 168.551 45.9182C169.333 45.1379 170.636 44.6177 171.678 44.6177C174.022 44.6177 176.107 46.6984 175.846 49.0393C175.846 51.6403 174.022 53.461 171.678 53.461ZM171.678 46.6985C171.157 46.6985 170.375 46.9585 170.115 47.4787C169.594 47.9989 169.333 48.5191 169.333 49.0393C169.333 50.3398 170.375 51.3802 171.678 51.6403C172.98 51.6403 174.022 50.5999 174.283 49.2994C174.543 47.9989 172.98 46.6985 171.678 46.6985Z" fill="white"/>
<path d="M209.966 101.58C209.706 100.279 209.185 98.9786 208.664 97.6781C206.059 91.6959 200.589 88.0545 195.118 86.2339C190.169 84.6733 184.699 84.4132 179.489 84.4132C175.582 84.4132 171.935 83.1127 168.028 83.3728C160.213 83.893 152.138 89.0949 149.273 96.6377C148.231 99.7589 147.71 103.14 147.449 106.261C145.886 125.248 138.593 159.321 137.811 178.568C137.29 189.752 145.365 195.735 145.105 206.919V197.555L209.445 201.197L209.966 187.932C210.487 173.106 210.748 158.021 211.008 143.195C211.008 135.652 211.269 128.37 211.269 120.827C211.008 114.845 211.529 108.082 209.966 101.58Z" fill="#FF7000"/>
<path opacity="0.27" d="M181.834 155.679C177.406 152.038 162.298 137.472 158.651 125.768L157.609 126.548C157.609 127.069 157.609 127.589 157.349 128.109C158.391 138.253 167.247 148.397 172.717 153.859C175.322 156.199 178.709 156.98 181.834 155.679Z" fill="#353535"/>
<path opacity="0.27" d="M206.06 135.393L207.883 133.832L185.742 110.684L206.06 135.393Z" fill="#353535"/>
<path d="M260.76 161.141L258.676 155.419L258.416 154.119C257.895 152.038 256.592 150.477 254.508 149.697L249.299 147.616C246.954 146.836 244.61 147.096 243.047 148.657H240.442L213.612 145.795L205.537 136.172L183.916 154.379L190.95 162.182C194.075 165.563 198.504 167.384 203.192 167.384L238.098 166.083C242.526 167.384 247.215 168.684 248.517 168.424C252.685 167.644 255.55 164.002 255.029 159.841V158.8L255.811 159.581L255.55 160.101L258.155 162.962C258.676 163.742 259.979 163.742 260.5 163.222C260.76 162.702 261.021 161.921 260.76 161.141Z" fill="#FFAC79"/>
<path opacity="0.41" d="M213.874 145.535L203.455 147.096C203.455 147.096 212.051 142.934 211.79 143.194C211.79 143.715 213.874 145.795 213.874 145.535Z" fill="#FF755F"/>
<path d="M241.746 184.55H239.402V184.29L137.03 180.388L136.77 192.613C136.249 210.82 150.315 225.645 170.894 224.345L227.94 222.784L225.075 280.265L245.914 278.185L261.543 205.097C262.064 194.173 253.208 184.81 241.746 184.55Z" fill="#390028"/>
<path d="M269.19 297.691C269.45 290.149 263.72 283.646 256.166 283.126L246.788 282.606L247.309 273.502L225.428 272.462L224.386 295.35L246.267 296.391L269.19 297.691Z" fill="#F5C017"/>
<path d="M269.247 295.423L224.237 293.214L224.071 296.591L269.081 298.801L269.247 295.423Z" fill="#F7EEE6"/>
<path d="M247.567 284.167C247.307 284.167 246.786 283.907 246.525 283.646C246.264 283.386 246.264 282.866 246.525 282.346C247.828 280.005 249.13 278.965 250.172 278.705C250.693 278.705 251.214 278.705 251.996 279.485C252.517 280.265 252.517 281.045 252.517 281.306C251.996 282.606 250.433 283.386 247.567 284.167C247.567 284.167 247.828 284.167 247.567 284.167ZM250.433 280.005C249.912 280.005 248.87 280.785 247.828 282.606C249.912 282.086 250.954 281.306 251.214 281.045C251.214 281.045 251.214 280.785 250.954 280.525C250.693 280.265 250.433 280.005 250.433 280.005Z" fill="#EAEAEA"/>
<path d="M243.138 284.946C242.096 284.946 241.315 284.686 240.794 284.166C240.273 283.906 240.012 283.125 240.012 282.085C240.012 281.045 240.794 280.525 241.054 280.264C242.357 279.744 244.181 280.264 246.786 282.085C247.307 282.345 247.567 283.126 247.307 283.646C247.046 283.906 246.786 284.166 246.525 284.166C245.483 284.686 244.181 284.946 243.138 284.946ZM242.357 281.565C242.096 281.565 242.096 281.565 241.836 281.565C241.836 281.565 241.575 281.825 241.315 282.345C241.315 282.865 241.315 283.125 241.575 283.386C242.096 283.906 243.92 283.906 246.265 283.126C244.441 281.825 243.138 281.565 242.357 281.565Z" fill="#EAEAEA"/>
<path d="M244.701 289.369C244.44 289.369 244.18 289.109 244.18 289.109C243.919 288.849 244.18 288.328 244.44 288.328C246.785 287.288 246.525 283.907 246.525 283.907C246.525 283.647 246.785 283.126 247.046 283.126C247.306 283.126 247.827 283.387 247.827 283.647C247.827 283.907 248.088 287.808 244.961 289.369C244.961 289.109 244.701 289.369 244.701 289.369Z" fill="#EAEAEA"/>
<path d="M231.94 289.108C231.94 289.108 231.94 288.848 231.94 289.108C230.377 289.108 229.335 288.587 228.553 287.547C227.771 286.507 227.25 285.466 227.25 284.166C227.25 281.565 229.595 279.744 232.2 279.744C233.503 279.744 234.545 280.264 235.327 281.305C236.108 282.345 236.629 283.385 236.629 284.686C236.629 287.027 234.545 289.108 231.94 289.108ZM231.94 281.045C230.116 281.045 228.553 282.345 228.553 284.166C228.553 284.946 228.813 285.986 229.335 286.507C229.856 287.287 230.898 287.547 231.679 287.547C233.503 287.547 235.066 286.247 235.327 284.426C235.327 283.646 235.066 282.605 234.545 282.085C233.763 281.305 232.982 281.045 231.94 281.045C231.94 281.045 232.2 281.045 231.94 281.045Z" fill="#EAEAEA"/>
<path d="M232.106 128.889L239.92 127.068C246.954 125.247 254.247 129.149 255.81 135.651C257.373 142.154 252.945 148.656 245.651 150.477L240.441 151.777C236.795 152.558 233.408 150.737 232.627 147.616L229.24 133.57C228.719 131.49 230.022 129.409 232.106 128.889Z" fill="#390028"/>
<path d="M279.515 154.639C278.994 154.639 278.733 154.379 278.473 153.859L269.616 138.773C268.053 136.172 264.927 134.872 262.062 135.392L248.777 138.773C247.996 139.033 247.475 138.513 247.214 137.733C246.954 136.952 247.475 136.432 248.256 136.172L261.541 132.791C265.709 131.75 269.877 133.571 271.961 137.212L280.817 152.298C281.078 152.818 281.078 153.599 280.296 154.119C280.036 154.639 279.775 154.639 279.515 154.639Z" fill="#390028"/>
<path d="M339.675 106.61C340.787 106.61 341.689 105.709 341.689 104.598C341.689 103.488 340.787 102.587 339.675 102.587C338.562 102.587 337.66 103.488 337.66 104.598C337.66 105.709 338.562 106.61 339.675 106.61Z" fill="#F9B361"/>
<path d="M360.322 46.7672C361.435 46.7672 362.337 45.8666 362.337 44.7557C362.337 43.6447 361.435 42.7441 360.322 42.7441C359.209 42.7441 358.307 43.6447 358.307 44.7557C358.307 45.8666 359.209 46.7672 360.322 46.7672Z" fill="#F9B361"/>
<path d="M40.7675 310.777C41.8802 310.777 42.7823 309.877 42.7823 308.766C42.7823 307.655 41.8802 306.754 40.7675 306.754C39.6547 306.754 38.7527 307.655 38.7527 308.766C38.7527 309.877 39.6547 310.777 40.7675 310.777Z" fill="#F9B361"/>
<path d="M401.621 243.644C402.733 243.644 403.635 242.744 403.635 241.633C403.635 240.522 402.733 239.621 401.621 239.621C400.508 239.621 399.606 240.522 399.606 241.633C399.606 242.744 400.508 243.644 401.621 243.644Z" fill="#F9B361"/>
<path d="M221.824 4.02303C222.937 4.02303 223.839 3.12244 223.839 2.01152C223.839 0.90059 222.937 0 221.824 0C220.711 0 219.809 0.90059 219.809 2.01152C219.809 3.12244 220.711 4.02303 221.824 4.02303Z" fill="#F9B361"/>
<path d="M19.6159 46.0138C20.7286 46.0138 21.6307 45.1132 21.6307 44.0022C21.6307 42.8913 20.7286 41.9907 19.6159 41.9907C18.5031 41.9907 17.6011 42.8913 17.6011 44.0022C17.6011 45.1132 18.5031 46.0138 19.6159 46.0138Z" fill="#F9B361"/>
<path d="M338.918 176.762C340.031 176.762 340.933 175.861 340.933 174.75C340.933 173.639 340.031 172.739 338.918 172.739C337.806 172.739 336.903 173.639 336.903 174.75C336.903 175.861 337.806 176.762 338.918 176.762Z" fill="#F9B361"/>
<path d="M392.303 112.896C392.859 112.896 393.31 112.446 393.31 111.891C393.31 111.335 392.859 110.885 392.303 110.885C391.746 110.885 391.295 111.335 391.295 111.891C391.295 112.446 391.746 112.896 392.303 112.896Z" fill="#F9B361"/>
<path d="M410.183 160.418C410.739 160.418 411.19 159.967 411.19 159.412C411.19 158.857 410.739 158.406 410.183 158.406C409.626 158.406 409.175 158.857 409.175 159.412C409.175 159.967 409.626 160.418 410.183 160.418Z" fill="#F9B361"/>
<path d="M52.0982 253.702C52.6546 253.702 53.1057 253.252 53.1057 252.696C53.1057 252.141 52.6546 251.69 52.0982 251.69C51.5418 251.69 51.0908 252.141 51.0908 252.696C51.0908 253.252 51.5418 253.702 52.0982 253.702Z" fill="#F9B361"/>
<path d="M35.2277 186.568C36.0622 186.568 36.7388 185.893 36.7388 185.059C36.7388 184.226 36.0622 183.551 35.2277 183.551C34.3931 183.551 33.7166 184.226 33.7166 185.059C33.7166 185.893 34.3931 186.568 35.2277 186.568Z" fill="#F9B361"/>
</svg>
